<svg height="248.825365" viewBox="0 0 349.29 216" width="401.888287" xmlns="http://www.w3.org/2000/svg"><path d="m341.08 99.61c-.24-4.49-2.09-9.64-3.63-13.93-.46-1.27-.89-2.47-1.19-3.43s1-4.07 1-4.07c7.92-11-17.06-5.12-17.06-5.12l-.92.69c-3.18 2.36-5.7 7.07-8.9 13-1.68 3.14-3.53 6.61-5.57 9.79 1.83-4.28 3.93-9.26 5.89-14 2.23-5.4 4-9.74 5.16-12.92 2-5.43 3-7.91 1.13-10.11-2.24-2.69-5.45-1.91-7-1.54a8.34 8.34 0 0 1 -.85.18 11.45 11.45 0 0 0 -6.74 1.9c-1 .76-1.33 1-5.77 11.75-.67 1.61-1.81 4.39-2.77 6.81a10.59 10.59 0 0 0 -8-.34 10.82 10.82 0 0 0 3.14-7.84 10.62 10.62 0 0 0 -4-8.34 4.62 4.62 0 0 0 -.93-.66 4.38 4.38 0 0 0 1.52-2.21l.07-.26c.22-1 .58-4.35-4.12-6.37-1.09-.47-2.94-1.23-5.55-2.17-3.13-1.13-8-2.74-14.22-4.37l10-20.3a4.35 4.35 0 0 0 -2.88-6.17l-21.76-5.28a4.4 4.4 0 0 0 -3.78.85l-26.28 21.32-20.32 7.05a9.17 9.17 0 0 1 -1.18-1.38 17.42 17.42 0 0 0 -2.57-2.84 55.54 55.54 0 0 0 -3.61-7.68c-8.13-14.34-21.94-25.3-36.93-29.33h-.07a58.8 58.8 0 0 0 -39.39 2.48 52.18 52.18 0 0 0 -6.75 3.54l-1.19.69a39.51 39.51 0 0 0 -13.43 13.85c-34.54-1.15-44.29 5.43-45.3 6.15a4.39 4.39 0 0 0 -1.19 5.57c.7 1.29 7.85 12.87 43.57 26.84 3.09 14.12 13.53 22.94 31.06 26.24a99.86 99.86 0 0 0 16.75 1.64 76.9 76.9 0 0 0 9.84-.56l3.52-.2a30.49 30.49 0 0 0 -2 11.12v.09c-.38 3.88 2.16 5.24 3.26 5.65 1.56.57 3.91.71 6.25-1.86l.13-.15a4.25 4.25 0 0 1 3.76-1.62 5.94 5.94 0 0 0 3.1-.46c-6.63 15.38-13 30.06-14.26 32.93-.53.68-1.12 1.47-1.73 2.3l-.05.07c.25-.59.5-1.17.74-1.75 1.28-3 2.61-6.08 3.75-9.24 1.29-3.6 1-7.05-.79-9.71a10.48 10.48 0 0 0 -8.63-4.34 16.46 16.46 0 0 0 -10.36 3.21c-.64.47-1.26 1-1.86 1.46a7.12 7.12 0 0 0 -2.16-1.54c-2.68-1.23-5.39-.46-7.45.34a21.2 21.2 0 0 0 -4.4 2.44l-.44.29c-3.12 2.09-4.6 6.37-5.91 10.16a4.42 4.42 0 0 1 -.53.72c-2.26-6.35-7.28-10-14-9.81a16.6 16.6 0 0 0 -15.67 12.27l-.33-.59c-.81-1.51-3.31-6.1-9.27-4.15s-11 2.41-15.72 1.37c-1.4-.31-4-.88-6.22.64a5.48 5.48 0 0 0 -.68.56c1.43-3.36 2.77-6.49 4.09-9.56 2.26-5.26 4.59-10.69 7.32-17.16.71-1.68 4.9-9.6 3.84-12-1.29-2.84-7.09-1.32-8.06-1.13-2.25.42-4.37.82-6.45 1.15a8.8 8.8 0 0 0 -1.41.34c-8.74 1.3-17.69 6-24.66 13.03-7.38 7.45-11.54 16.68-11.44 25.4v.09c-.37 3.88 2.16 5.24 3.26 5.65 1.56.57 3.91.71 6.25-1.86l.13-.15a4.26 4.26 0 0 1 3.72-1.66 5.85 5.85 0 0 0 3.27-.55l-.37.88-.18.45-.08.5c-2.68 6.36-5.11 12.28-7.45 18s-4.88 11.9-7.63 18.41c-.47 1.12-1.79 3.95-3.08 6.7-1.53 3.28-3.12 6.67-3.81 8.31 0 0-1.2 2.64-1 3.53a9.77 9.77 0 0 1 -.31 3.18l-4.36 14.95 6.52-1.12c25.05-4.27 38.21 6.92 40.6 9.21l2.63 2.48 2.82-2.26c2-1.6 16.48-8.07 107.83-33.59 55-15.36 115.3-31.37 147.69-40 12-3.18 19.22-5.1 20.64-5.52 8.55-2.52 18.6-7 20.39-19.16.88-6.21-1.99-11.89-8.04-15.86zm-228.56 65.73-87.66 18.87a7.52 7.52 0 0 0 .44-.9c1.54-3.73 3.42-8.1 5.4-12.68l.14.13a4.15 4.15 0 0 0 5.16.24c3.17-2.29 11.19-11.3 16.92-18.75a48.45 48.45 0 0 0 -1.62 5.75c-.48 2.17-1.93 8.76 2.94 13.8 4.56 4.7 10.49 2.91 13.34 2.05a25.85 25.85 0 0 0 8-4.21c.65-.48 1.74-1.15 2.9-1.87s2.51-1.55 3.65-2.34c6.09 3.3 13.38 2.1 19-3.42 5.33-5.22 7.81-11.81 9.22-16.51.14-.1.29-.19.44-.28-1.56 3.79-3 7.31-4.45 10.73-.4.95-1.61 3.87.4 6.21 1.32 1.54 3.3 2 5.86 1.36a24.47 24.47 0 0 1 3.88-.7c3.22-.26 5.51-2.05 6.82-5.3 1.22-3 2.49-6.12 3.74-9.15a10.27 10.27 0 0 0 2.63 8.58 10.1 10.1 0 0 0 6.62 3.26zm138.9-82.67 8.45-.53 1.44.65a4.18 4.18 0 0 0 1.22.35l11.6 1.6a4.48 4.48 0 0 0 2.28-.28 41.82 41.82 0 0 0 -5.73 6.62 7.32 7.32 0 0 0 -3.26-4.31 6.24 6.24 0 0 0 -5-.41 34.14 34.14 0 0 1 -11.78 1.73 5.2 5.2 0 0 0 .92-1.58 5.3 5.3 0 0 0 -.13-3.85zm13.36 23.83a32.37 32.37 0 0 0 -.73 5.34c-1.14 1.25-3.12 3.25-4.63 4.63a30.37 30.37 0 0 1 5.37-9.98zm-31.16-3c1.14-2 3.27-5.61.87-9a5.1 5.1 0 0 0 -.7-.81 13 13 0 0 0 3-2.6l1.51-.15a12 12 0 0 0 -.73 3c-.08.51-.14 1-.2 1.55s-.1 1-.17 1.37c-.7 1.62-2.29 4.58-4.23 7.91.16-.45.41-.87.66-1.29zm-17.22-7.37a27.33 27.33 0 0 0 .83-5l1.66.1a5.12 5.12 0 0 0 1.87-.24 6.39 6.39 0 0 0 1.15 2.26 7.9 7.9 0 0 0 -4.76 4.76c-1.82 4.24-2.76 6.8-3.67 9.28-1 2.86-1.95 5.32-4.1 10a28.29 28.29 0 0 1 -1.47 2.68 29.34 29.34 0 0 0 -2.84-7.81c5.66-3.44 9.47-8.84 11.33-16.03zm-55.06 58.69a6.53 6.53 0 0 0 .36-.75l3.14-7.56a7.29 7.29 0 0 0 1.41 1.53 25.65 25.65 0 0 0 7.32 4.15zm28.52-26a12.24 12.24 0 0 1 -6.43 8.18 14 14 0 0 1 -11.84 0 5.13 5.13 0 0 0 -2.45-.7c2.56-6.14 5.2-12.45 7.78-18.7a20.68 20.68 0 0 0 13.43.6 7.83 7.83 0 0 1 .25 1.33 25.92 25.92 0 0 1 -.74 9.27zm3.81-27.9a23.46 23.46 0 0 0 -8.59-2.92c.42-1 .83-2 1.25-3 .81-2 1.64-3.91 2.46-5.86l1.21-2.83 7.69-.43c.83 1.13 1.41 1.88 1.88 2.42a16.59 16.59 0 0 1 -5.9 12.6zm7.87 45.27.1-.11a19 19 0 0 0 3.33-3.39c.42-.51.81-1 1.29-1.51s2.13-2 3.84-3.61a10.7 10.7 0 0 0 9.8 2.36h.21c2.47-.35 5.51-1.2 9.37-4.93a5.61 5.61 0 0 0 .51-.48c.27-.27.64-.66 1-1.1a35.07 35.07 0 0 0 2.37-2.81 108.67 108.67 0 0 0 7-10.22l1.22-1.84c-.91 5.17.19 9.34 3.28 12.39 4.53 4.48 10.17 2.89 13.2 2 2.37-.68 5.57-3.18 9.82-6.65l1.24-1c3.19 2.55 7.64 3.25 12.61 1.85a17 17 0 0 0 6.69-3.66l.11-.1a9.43 9.43 0 0 0 7.55 2.4c-22.48 4.85-57.25 12.35-94.54 20.39zm97.33-21c2.45-.83 6.91-3.09 10.72-9 2 2.38 5 3.89 9.07 4.48l.65.09c-3.57.7-10.69 2.24-20.44 4.38z" fill="#fff"/><path d="m109.62 15.57c-2.34 1.92-4.08 8.23-3 11.05-3.65-.26-7.15-.44-10.6-.56 2.15-4.94 6.4-9.59 12.05-13.28a19.54 19.54 0 0 0 1.29 1.8c-4.33 1.31-5.24 4.71-5.13 5.87 2.34-2.8 4.06-4.2 5.39-4.88zm-1.62-2.8.09-.06zm43.28-6a53.67 53.67 0 0 0 -41.81 5.07c1.77 2.16 4.62 2.29 5.25 1.84 1.06-.58.48 4.39-1.88 3.87.38 2.65-1 7.43-2.8 9.32 5.65.46 11.56 1.1 17.69 1.9-1.38-3-.18-9.43 1.9-12.57-.49.18-1 .34-1.5.49a22.31 22.31 0 0 0 -5.38 6.69 6.92 6.92 0 0 1 1.94-6 19.72 19.72 0 0 1 -2.9.07c-4.52-.24-.8-5.6-.21-4.27.29.66-.34 2.07 3.08 1.9s16-7.71 19-5.92c-3.16.83-5.9 2.77-8.93 4.56 3.06 2.84.82 12.73-2.47 15.7q5.43.76 11.06 1.69h.1c7.26 1.14 14.89 2.47 22.78 4-2.62-8.56-14.9-20.59-14.9-20.59a67.46 67.46 0 0 1 14.9 10.68c-5.1-11.72-22.65-17.77-22.65-17.77 21.72 2.87 33.45 20.71 38.38 30.83l5.07 1.15c-5.26-13.47-18.1-27.61-35.68-32.63zm-6.47 54.16c-6.06 5.49-21.22 6.17-29.26 6.14 9.82 2.18 21 2.85 29.85-2.65l1.12-3.42-1.36-.36c-.1.1-.16.2-.31.3z" fill="#fff"/><path d="m283 75.07.23-.25zm-47.25 9.3c.07-.25.13-.5.19-.76-.01.25-.07.5-.14.75zm45.54-8.23.22-.09zm-52.45 3.68h.05c-.16.13-.31.26-.47.41zm6.86 4.71c-.07.25-.15.5-.24.74.14-.27.22-.51.29-.75zm-6.49-5-.2.14zm6.06 6.18c0 .1-.07.2-.12.3s-.23.49-.36.73a10.85 10.85 0 0 0 .68-1.51 4.62 4.62 0 0 1 -.15.48zm47.31-10.35.12-.11zm-113.6 7.2 6-.34c.91-2.12 1.77-4.14 2.56-6a18.08 18.08 0 0 0 -8.54 6.34zm23.05-6.84c0 .06-.08.16-.13.28q-1.08 2.7-2.21 5.4l10.46-.59a11.83 11.83 0 0 0 -7.65-5 3.78 3.78 0 0 0 -.42-.09zm36.22 4.61a6.14 6.14 0 0 0 -.43.45l-.11.11c-.17.2-.35.42-.51.64-.15.2-.3.42-.44.64a10.42 10.42 0 0 1 1.54-1.84zm56.24-8.24a5.12 5.12 0 0 1 -.19.67 5.12 5.12 0 0 0 .24-.67zm.07-.62a1.55 1.55 0 0 1 0 .21c0-.14.05-.27.07-.42zm-85.34 5.37.19.17zm1.53 1.48a2.11 2.11 0 0 1 .19.23 2.11 2.11 0 0 0 -.19-.23zm-111.75-51.26 2.26.06h1.24.11 1.36a364.13 364.13 0 0 1 46.76 5h.09c10.32 1.62 21.73 3.68 34.38 6.28 3.66.75 8.57 1.92 12.45 2.75l.59.16h.1l.53.2h.05a5.8 5.8 0 0 1 1 .58 11.41 11.41 0 0 1 2.27 2.44c.23.31.47.62.71.91l.12.14.14.16a3.58 3.58 0 0 0 .26.29l.11.12.32.3h.05a3.88 3.88 0 0 0 .31.26l.09.07a3.11 3.11 0 0 0 .38.25h.08c.12.07.24.14.37.2h.07l.46.18h.09l.51.14 1.33.26 21-7.27 9.57 1.1-7.93-2 26-21.13 21.22 5.49-11.45 23.17-1.07-.25a167.55 167.55 0 0 0 -28.65-3.92 1.55 1.55 0 0 0 -.43 3.06l3.56.89-43.31 3.31s-55-2.92-55.08-2.09a.85.85 0 0 0 .15.56l54.33 3.75 53.05-4h-.09.12l-.67-.16-.25-.07-.39-.09-.23-.06-.45-.11h-.19l-.47-.11h-.11l-.52-.13h-.14l-.39-.1-.31-.08h-.18l-.38-.1h-.19l-1.22-.31-.72-.17-.77-.2h-.2l-.75-.19h-.13l-.3-.08h-.07l-1.05-.26-.5-.46-.46-.12h-.19-.12l-.41-.11-.33-.08-.29-.07-.38-.1a166.09 166.09 0 0 1 28.15 3.85l1 .22c5.44 1.26 10.12 2.59 14 3.82h.08c1.14.36 2.19.71 3.18 1.05l.84.29.81.29c1.86.67 3.39 1.26 4.56 1.74l.11.05.45.19-.37-.16h.06l.31.13a20.28 20.28 0 0 1 2.22 1c-.07.35-3.95-.35-9.61-1.57l-.71-.15h-.1l-.29-.08-.47-.12h-.09l-.69-.17h-.15-.21-.12l-1.75-.4h-.2l-.3-.07h-.17l-.56-.23h-.15l-.85-.19h-.06l-.62-.13h-.1l-.41-.09h-.14l-.43-.09h-.2-.07l-.44-.1h-.05l-.47-.1h-.12l-.4-.09h-.11-.07l-1.19-.25-1.5-.31h-.18l-1.57-.65-1.54-.31h-.15l-1.55-.32-7.8-1.56-3.95-.81-.72-.14-.62-.12-.67-.13-.32-.06h-.16.06l.28.09-.42-.08s6.37 1.88 13.92 3.72l1.79.43c2.92.69 5.94 1.35 8.8 1.89l-1.14-.22 1.17.22.66.12.34.06h.07l.8.14h.22c1.11.19 2.18.35 3.18.47h.09l-11.17 2-4.92.89h-.07l-25.55 4.65 2.49.38h.22a1.24 1.24 0 0 0 .27 0l23.82-4.23a10.8 10.8 0 0 0 3.38.16l4.33.88 5.15 1 .57.11a11.21 11.21 0 0 1 2.07 3.2c3.69.42 8.89 1 14.17 1.54a5.81 5.81 0 0 1 .59 1.23c-5-.54-10.38-1.12-14.34-1.57a8.15 8.15 0 0 1 .26 2.25l14.43 1.18a1.94 1.94 0 0 1 0 .24v.5.41c0-.13 0-.27 0-.41v.41l-14.51-1.18a8 8 0 0 1 -.95 2.61l.07-.11 14.71 1a6.4 6.4 0 0 1 -.72 1.11l-14.72-1a6.25 6.25 0 0 1 -.4.5l4.34 2.55 3.86-.22-3.86.22-10.33-6.07 11.47 8.1-11.6-1.6-23.7-10.72c-1.7-.2-2.79-.26-2.85-.09a1.87 1.87 0 0 0 1 2.26l19.94 9-12.55.71-3.21-3-.39-.36a2.59 2.59 0 0 0 -1-.47l.12.08 8.57 8.8a1.24 1.24 0 0 1 .27 1.26 1.19 1.19 0 0 1 -1 .79l-1.17.13h-.23l-1 .11h-.2-.24l-.65.07h-.2l-1 .1h-.18l-.91.09h-.15l-.81.08h-.1l-.82.09h-.25l-.71.07h-.18l-.56.06h-.23l-.56.06a15.54 15.54 0 0 0 .78-2.5 1.38 1.38 0 0 0 0-.2c.14-1.21.51-4.43-2.32-6.44-2-1.43-4.35-1.35-6.92.21a12.31 12.31 0 0 0 -4.61 5.61c-.17-.18-.36-.36-.55-.55l-.28-.28-.33-.34-.14-.14-.47-.47-.45-.46-.07-.07-.17-.17-.3-.31c-.2-.2-.4-.41-.62-.62-1.75-1.79-3.9-4-6.57-6.74a1.2 1.2 0 0 1 -.21-1.39 1.22 1.22 0 0 1 1.25-.65l12.48 1.19-13.12-2.69a3.37 3.37 0 0 0 -3.13 1.72l-.06.1a2.73 2.73 0 0 0 .47 3.14l5.22 5.67-2.11.12h-1-.39a22.55 22.55 0 0 0 -10.76-11 33.12 33.12 0 0 0 -18.16-3.19 40.82 40.82 0 0 0 -23.91 10.77 36 36 0 0 0 -5.67 6.79l-9 .51s-48.12 6.53-52.78-25.47c-3.07-1.17-5.92-2.31-8.59-3.43 5.43-2.79 9.24-7.29 10.08-12.78s-1.4-10.84-5.71-15.12zm67.86 26.63 2.61.52 1.43.28 8.65 1.71 8.95 1.31 39.3 5.75-27.3-5.93zm78.95-12.37 5.38 1.24 1.06-1.23 1.12.26-.63 1.32 5.26 1.19 9.58-21-5.13-1.1zm-140.26 17.38 14.81 6.73-10.25-1.53s6.34 11.8 17.14 12.7c15.53 1.29 23.51-4.7 27.45-9.82l-1.7 5.44 5.32-2 4.52-12.3-11.61-2.52-5.7 2.71 9.47 2.49c-30.54 4.94-48.7-2.2-49.45-1.9zm182.38-2.34.47.19zm-52.4 28.28q.13-.36.3-.72a2 2 0 0 1 .1-.21c.08-.18.16-.35.25-.52a.61.61 0 0 0 .07-.14l.06-.1c.11-.2.22-.4.35-.6a12.53 12.53 0 0 0 -1.15 2.32z" fill="#b5d5f0"/><path d="m97.63 130.94c-1.89-.47-4.58 1.21-5.34 3.27a4.12 4.12 0 0 0 2.12 5.07 7 7 0 0 0 2.36.89c2.67.44 3 .19 3.53-2.56 0-1.22.1-2.44 0-3.64a3.19 3.19 0 0 0 -2.67-3.03zm.76 5.48v1a9.37 9.37 0 0 1 -.22 1 9.36 9.36 0 0 1 -1.06-.14 4.89 4.89 0 0 1 -1.7-.66 2.24 2.24 0 0 1 -1.28-2.72 3.71 3.71 0 0 1 2.83-2.09.88.88 0 0 1 .24 0c1 .23 1.17.66 1.21 1.29s0 1.51-.02 2.32zm46.36-66.07 3.25-10.14-9.18-2.42 2.58-1.22 10 2.17-3.89 10.6zm79.88 22.34a4.91 4.91 0 0 0 2.76.77 9.52 9.52 0 0 0 3.89-.95 11.44 11.44 0 0 0 6.6-8.49 1.38 1.38 0 0 0 0-.2c.14-1.21.51-4.43-2.32-6.44-2-1.43-4.35-1.35-6.92.21-3.64 2.22-5.72 7.1-5.89 10.79a4.6 4.6 0 0 0 1.88 4.31zm5-13.44c1.5-.91 3.15-1.45 4.8-.29s1.73 2.82 1.52 4.64a9.61 9.61 0 0 1 -5.5 7.15c-3.07 1.38-5.93 1.1-5.78-2.28s2.14-7.47 5-9.22zm46.7-2.74-3.86.22-4.34-2.55a3.13 3.13 0 0 0 .4-.5l14.72 1a4.94 4.94 0 0 1 -3.87 1.77zm-72.62 9.54c-.34-6.23-4.34-10.62-10.76-12.13-1.55-.36-2.26-.08-2.84 1.36-2.42 6-5 12-7.48 18-1.19 2.86-2.34 5.73-3.61 8.84a18.9 18.9 0 0 1 13.45 2.73 2.24 2.24 0 0 0 3-.1c6.21-4.86 8.68-11.21 8.28-18.7zm-9.43 17.17a1.45 1.45 0 0 1 -.31.21 2.55 2.55 0 0 1 -.49-.24 21 21 0 0 0 -11.17-3.3h-.3c.82-2 1.6-4 2.41-5.88s1.63-3.91 2.45-5.87c1.68-4 3.4-8.08 5-12.15.05-.12.1-.22.13-.28a3.78 3.78 0 0 1 .47.08c5.68 1.34 9 5 9.26 10.36.47 7.21-1.98 12.79-7.41 17.07zm87.8-38a6.13 6.13 0 0 1 2.62 4.86l-14.4-1.15a8.15 8.15 0 0 0 -.26-2.25c4 .45 9.46 1.07 14.47 1.6a6.17 6.17 0 0 0 -.62-1.23c-5.27-.57-10.58-1.15-14.27-1.57a11.21 11.21 0 0 0 -2.07-3.2l.94.19h.13l3.25.65.55.11 2.63.53.82.16.52.11.24.05 1.07.21c.38-.03 4.42.93 4.42.93zm2.62 6.04c0-.13 0-.27 0-.41.02.15.01.28-.01.41zm0 0a7.06 7.06 0 0 1 -.68 2.35l-14.71-1a14.93 14.93 0 0 0 .88-2.5zm54.37 29.5c.1-4.35-1.89-9.88-3.52-14.42-.47-1.29-.91-2.51-1.22-3.51-.46-1.44-.62-3.15 1.26-5.94a1.93 1.93 0 0 0 -1.79-3l-12.12 1.17a1.86 1.86 0 0 0 -1 .37c-2.79 2.07-5.34 6.82-8.28 12.32a119 119 0 0 1 -7.28 12.35c-4.42 6.26-6.59 8.81-7.65 9.82a10.34 10.34 0 0 1 1.28-4.66c1.77-4 6.18-14.25 10-23.59 7.94-19.24 7.59-19.67 6.63-20.81-1.37-1.65-3.44-1.15-4.81-.82a8.11 8.11 0 0 1 -1.28.25 9.56 9.56 0 0 0 -5.5 1.45c-.5.38-.87.66-5.08 10.85 0 .08-2.46 6-3.64 9-4.12-2.61-7.39-2.46-12 .36a35.7 35.7 0 0 0 -12.56 13.77 2.37 2.37 0 0 0 -.14.32 2.64 2.64 0 0 0 -.37-.73 1.55 1.55 0 0 0 -.24-.27 8 8 0 0 1 -.62-1.83c-.44-1.65-1-3.71-2.71-4.66a4.11 4.11 0 0 0 -3.34-.23c-6.4 2-11.76 2.37-16.88 1.26-1.57-.34-3.21-.6-4.53.31s-1.67 2.55-1.91 4.16c-.08.48-.13 1-.19 1.46s-.13 1.2-.23 1.76c-1.83 4.44-11 19.88-15.39 24.72.13-.25.25-.5.35-.74 1.82-4.3 2.62-6.63 3.4-8.89s1.58-4.36 3.29-8.36a16.33 16.33 0 0 1 .91-1.7c1.09-1.86 2.57-4.41 1-6.7-1.3-1.85-3.77-1.37-5.94-1a15.93 15.93 0 0 1 -2.36.34 5.53 5.53 0 0 0 -5.26 3.84c-1.8 4.18-2.73 6.71-3.63 9.16-1 2.78-2 5.41-4.16 10.19a68.2 68.2 0 0 1 -5 8.11 27.41 27.41 0 0 0 -4.33-15c6.29-3.15 10.3-8.34 12.24-15.84 2.9-11.19-1.58-21.33-11.7-26.45a33.12 33.12 0 0 0 -18.16-3.19 40.82 40.82 0 0 0 -23.91 10.77c-6.86 6.45-10.57 14.64-10.45 23a2.12 2.12 0 0 1 0 .24c-.16 1.74.46 2.89 1.85 3.4a3.46 3.46 0 0 0 3.88-1.28c.06-.06.11-.13.17-.18a6.43 6.43 0 0 1 5.53-2.29 3.28 3.28 0 0 0 2.68-.77 3.14 3.14 0 0 0 .78-2.54 19.21 19.21 0 0 1 .85-7.37c2-6.37 5.85-10.53 11.69-12.69-8.45 20-24 55.85-25.47 59.14-.55.69-1.19 1.55-1.87 2.46-2 2.76-5.11 6.91-7.22 8l-.45.2a2.18 2.18 0 0 1 .12-.53c.75-2.23 1.56-4.42 2.41-6.51.68-1.65 1.39-3.32 2.09-4.94 1.26-3 2.58-6 3.69-9.13 1.05-2.92.86-5.67-.54-7.75a8.41 8.41 0 0 0 -6.91-3.38 14.11 14.11 0 0 0 -9 2.8 43.39 43.39 0 0 0 -3.51 2.89 6.11 6.11 0 0 0 -2.7-2.76c-1.92-.88-4-.29-5.75.4a19.18 19.18 0 0 0 -4 2.21l-.45.3c-2.35 1.57-3.59 4.78-5.09 9.13-.3.87-2 2.63-3.75 4.14 0-.06 0-.13 0-.19-1.3-7.54-5.95-11.76-12.7-11.61a14.42 14.42 0 0 0 -14 12.33 2.48 2.48 0 0 1 -.58 1.3c-3.57 4.38-5.34 9.76-5.39 16.44 0 .17-.09.69-.18 1.28-.92 1.29-4.35 5.84-8 8-1.54.89-2 .43-2.16.23-.38-.4-.29-1 .19-2.56v-.07c2.29-7.5 7.11-13.41 12-18.69l.34-.35a5.1 5.1 0 0 0 1.85-3.53 3.62 3.62 0 0 0 -1.23-2.57 5.68 5.68 0 0 1 -.79-1.24c-.86-1.58-2.45-4.51-6.69-3.12-6.4 2.1-11.76 2.55-16.86 1.43-1.56-.35-3.19-.61-4.52.31s-1.69 2.56-2 4.31c-.07.5-.13 1-.19 1.52-.08.71-.15 1.38-.28 2-.46 2.21-7.69 11.07-10.8 14.11a1.92 1.92 0 0 0 -.47 2c.48 1.38-.86 5-4 10.83-1 1.89-1.64 3-.41 4.11a2 2 0 0 0 2.47.09c4.48-3.24 19.85-21.44 22.17-26.83 0-.11.09-.24.14-.36l3.35.05a49.6 49.6 0 0 0 -7 16.38c-1.13 5.13-.36 9 2.38 11.82 3.62 3.74 8.32 2.32 11.13 1.48a23.63 23.63 0 0 0 7.37-3.87c.73-.54 1.86-1.24 3.06-2a51.35 51.35 0 0 0 4.68-3.11c5.51 3.74 12.26 2.89 17.61-2.35 5.18-5.07 7.51-11.63 8.81-16.12v-.09-.17a35.38 35.38 0 0 0 7.54-5.9c-2.87 7-5.32 12.95-7.68 18.61-.36.85-1.1 2.64 0 4s3 .85 3.68.67a26.58 26.58 0 0 1 4.23-.76 5.58 5.58 0 0 0 5-3.94c1.52-3.78 3.11-7.62 4.65-11.34 1.85-4.46 3.76-9.08 5.57-13.66a9.57 9.57 0 0 1 4.59-5.18c.22-.11.44-.24.66-.37a8 8 0 0 1 .95-.51 8.59 8.59 0 0 1 -.41 1.09c-.12.27-.23.53-.32.77-1 2.65-2 5.33-3 7.92-1.34 3.42-2.71 7-4 10.48-1.78 4.78-.24 7.84 1.36 9.56 2.21 2.37 5.16 3.13 9 2.32a11.29 11.29 0 0 0 3.63-1.56 1.93 1.93 0 0 0 .42 1.14 2 2 0 0 0 1.86.69l3-.57c2.26-.42 4.4-.83 6.51-1.16a4.61 4.61 0 0 0 3.88-3.07c2.34-5.65 4.73-11.38 7.05-16.93 3-7.11 6-14.46 9-21.71a18.7 18.7 0 0 0 14.93 1.14c.21-.07.6-.2.92-.28.14.28.3.64.37.8a10 10 0 0 1 .77 3 28.35 28.35 0 0 1 -.79 10.11 14.39 14.39 0 0 1 -7.59 9.6 16.47 16.47 0 0 1 -13.77 0h-.07a2.57 2.57 0 0 0 -3.32.35 4.8 4.8 0 0 0 -1.42 3.62 4.88 4.88 0 0 0 1.82 3.53c9.52 7.74 24.39 6.85 32.56-1.91a16.84 16.84 0 0 0 3.1-3.14c.42-.52.85-1.05 1.39-1.63.77-.83 3.51-3.32 5.58-5.19a8.46 8.46 0 0 0 9.19 3.3h.36c1.39-.2 4.29-.61 8.16-4.35a17.44 17.44 0 0 0 1.47-1.49c.68-.75 1.62-1.81 2.23-2.65a106 106 0 0 0 6.88-10.07l1.28-1.94c3.72-5.63 7.24-11 9.17-15.32a1.89 1.89 0 0 0 .13-.35h2.52c-4 6-6.63 11.5-7.7 16.3-1.11 5-.3 8.69 2.46 11.43 3.63 3.59 8.29 2.27 11.08 1.48 2-.56 5.12-3.05 9-6.24 1.1-.9 2-1.67 2.59-2.06l.18-.13c2.67 3 6.95 4 11.86 2.62a14.82 14.82 0 0 0 5.84-3.2c.61-.54 1.16-1.08 1.72-1.65 1.87 2.9 4.75 4 8.38 3.23 1.63-.36 7.28-2.13 11.67-10.16l.89-1.63a8.37 8.37 0 0 0 .94 2.16c1.55 2.5 4.37 4.07 8.39 4.66 6.88 1 12.89-3 16.42-8a3.69 3.69 0 0 1 .9 2.7c-.51 3.45-6 7-14 9.06-5.09 1.31-123.12 26.71-209.3 45.26-56.06 12.03-100.48 21.59-104.94 22.61a1.93 1.93 0 0 0 -1.43 1.33l-2.45 8.23a1.94 1.94 0 0 0 2.19 2.46c20.2-3.44 35.18 2.8 42.46 9.78a2 2 0 0 0 2.57.11c7.11-5.81 93.36-30.7 256.34-74 12-3.18 19.19-5.1 20.58-5.51 8.42-2.48 17.25-6.48 18.85-17.38.89-5.73-2.01-10.78-8.05-14.33zm6.13 14.07c-1.38 9.39-8.76 13.23-17.48 15.8s-264.51 69.14-277.62 79.85c-7.19-6.9-22.71-13.95-44.13-10.3l2.45-8.18c11.69-2.69 306.21-65.87 314.48-68s14.75-6 15.44-10.66c.33-2.23-1-4.34-3.17-6.06-3 5.52-9 10.13-15.78 9.14-7.54-1.11-8.54-5.63-7.91-9.9s6.32-8.94 14.64-8c-1-3.85-3.38-8.3-3.08-11.26-3.8 2.27-10.67 15.47-15.85 24.93-4.06 7.42-9.2 8.94-10.38 9.19-3 .66-5.2-.28-6.62-2.85-.29-.52-.56-1-.91-1.71-1.2 1.21-2.26 2.38-3.44 3.43a13 13 0 0 1 -5.09 2.78c-5 1.41-8.92.11-10.91-3.5-.56.45-1.14.89-1.73 1.31-2.07 1.48-8.58 7.31-11 8-3.17.9-6.52 1.65-9.18-1s-2.72-6.17-1.94-9.63c1.27-5.69 4.69-11.69 8-16.48.45-.66.88-1.32 1.44-2.16-2.64 0-5 0-7.44-.15-.73-.06-.33 1-.6 1.58-2.08 4.71-6.09 10.59-10.3 17a102.37 102.37 0 0 1 -6.81 10 36.4 36.4 0 0 1 -3.48 3.92c-4 3.87-6.63 3.67-7.63 3.91-3.77.9-6.84-.91-8.19-4.51 0 0-6.21 5.53-7.55 7-1.69 1.81-2.37 3.17-4.37 4.64-7.53 8.22-21.27 9-30 1.86a2.84 2.84 0 0 1 -.26-4.27c.51-.5.84-.09 1.23.08 10.5 4.57 21.35-.3 24-10.84a30.2 30.2 0 0 0 .85-10.8 12 12 0 0 0 -.93-3.53c-1-2.31-1.22-2.37-3.66-1.58a16.83 16.83 0 0 1 -13.5-1c-1.35-.72-1.89-.78-2.53.78-5.34 13-10.81 25.9-16.18 38.87a2.72 2.72 0 0 1 -2.39 1.9c-3 .47-6 1.08-9.6 1.73l2.65-6.3a29.14 29.14 0 0 1 -5.08 4.39 10 10 0 0 1 -3.53 1.66c-2.66.55-5.22.37-7.2-1.75s-1.95-4.93-1-7.57c2.28-6.16 4.74-12.24 7.06-18.38.51-1.35 1.6-3 .21-4.18-1.2-1-2.62.17-3.81.81a11.46 11.46 0 0 0 -5.48 6.17c-3.31 8.37-6.87 16.64-10.22 25-.68 1.7-1.57 2.59-3.33 2.73a28.08 28.08 0 0 0 -4.54.82c-2.06.51-2.23-.17-1.46-2q5.53-13.26 10.93-26.61c.55-1.35 1.94-3.21.61-4.21-1.8-1.36-1.22 8.29-14.79 16.06a9.56 9.56 0 0 0 -.34 1c-1.66 5.73-4 11.08-8.31 15.28-5.08 5-11.47 5.39-16.34 1.23-1.84 1.95-6.66 4.44-8.81 6a21.89 21.89 0 0 1 -6.77 3.56c-3.18 1-6.53 1.77-9.18-1s-2.68-6.44-1.88-10a48.33 48.33 0 0 1 7.16-16.42c.45-.69.89-1.39 1.45-2.26l-7.46-.19c-1 0-1.08.92-1.35 1.55-2.12 4.93-17.22 22.91-21.53 26-.84.61 6.27-10.1 4.89-14.09 2.49-2.43 10.7-12 11.33-15.1.25-1.2.31-2.43.5-3.64.49-3.24 1.07-3.7 4.14-3 6.09 1.34 12.07.42 17.89-1.48 3.82-1.26 3.92 2.39 5.53 3.92s0 2.65-1 3.74c-5.26 5.7-10 11.73-12.41 19.43-.48 1.57-1 3.22.23 4.53s3.12.94 4.54.11c4.75-2.74 8.92-8.9 8.92-8.9.08-.54.26-1.76.27-2 0-5.64 1.35-10.86 4.95-15.28a4.37 4.37 0 0 0 1-2.24 12.43 12.43 0 0 1 12.09-10.68c5.8-.13 9.61 3.42 10.75 10l.25 3.69c1.56-1 6.5-5.08 7.26-7.3 1.26-3.66 2.45-6.88 4.34-8.15a19.65 19.65 0 0 1 4-2.32c3.84-1.5 5.44-.75 7 3.77 1.86-1.59 3.52-3.2 5.36-4.53a12.24 12.24 0 0 1 7.79-2.43c5 .18 7.44 3.68 5.7 8.54s-3.85 9.32-5.75 14c-.89 2.18-1.7 4.39-2.45 6.62a2.39 2.39 0 0 0 .49 2.8c.79.64 1.71.29 2.53-.12 3.33-1.63 7.58-8.29 9.9-11.13 0 0 17.5-40.22 26.23-60.92.24-.57.87-1.24.31-1.73s-1.3 0-1.92.19c-7.61 2.29-12.11 7.35-14.36 14.42a21 21 0 0 0 -.93 8.1c.08 1-.26 1.32-1.36 1.23a8.43 8.43 0 0 0 -7.11 2.88c-.54.58-1.05 1.32-2 1s-.55-1.19-.56-1.85c-.19-16.63 15.68-30.34 32.65-31.84a31.24 31.24 0 0 1 17.11 3c9.29 4.71 13.34 14.07 10.71 24.25-1.72 6.63-5.33 11.87-11.92 14.92-1.57.73-.8 1.37-.26 2.18a25.67 25.67 0 0 1 3.36 20.66c2.33-1.89 8.21-10.9 9.53-13.79 4.06-8.94 3.92-10.36 7.8-19.39.72-1.7 1.61-2.63 3.51-2.66 2.33 0 5.79-1.48 6.68-.21 1.25 1.77-1.16 4.35-2.08 6.54-3.48 8.31-3.05 9-6.58 17.26-.63 1.5-2.08 3.5-.22 4.71 2.79 1.81 17.11-22.82 18.91-27.38.24-1.14.3-2.32.47-3.48.47-3.1 1.05-3.54 4.12-2.87 6.09 1.32 12.07.48 17.86-1.3 3.81-1.18 3.15 4.79 4.77 6.27a.78.78 0 0 1 -.23 1.09c-8.11 6.35-10.9 12-13.21 19.33-.48 1.5-1 3.07.25 4.34s3.13.91 4.54.14c1.91-1 7.51-6.83 8.46-8.12-.32-5.35 3-14.39 4-16.7a34.1 34.1 0 0 1 11.81-12.92c4.27-2.66 6.87-2.66 11.06.34.66.48 1.07.44 1.21-.2.24-1.08 8-20 8.62-20.53a7.77 7.77 0 0 1 4.41-1.07c1.56-.06 3.63-1.2 4.53-.12s-13.71 35.06-16.96 42.38a11.49 11.49 0 0 0 -1.43 5.75 2.65 2.65 0 0 0 1.23 2.07c1.1.78 4.66-3.62 9.92-11.07 6.43-9.1 10.8-21 15.13-24.24l12.15-1.17c-2 2.93-2.26 5.23-1.51 7.62 1.49 4.7 5.29 13.27 4.57 18.43 5.34 2.81 8.94 7.2 8.13 12.98zm-27.66-17.17a69.17 69.17 0 0 1 4.13-6.27c.34 1.19.79 2.42 1.25 3.68.18.48.35 1 .52 1.43a17.74 17.74 0 0 0 -5.9 1.16zm-48.33 1.64c-1.32 3.78-2.87 9.27-2.85 13.3-1.55 1.81-6.07 6.33-7.43 7.08-1.58.86-2 .4-2.23.2s-.3-.77.19-2.33v-.07c2.31-7.27 4.96-12.34 12.32-18.18zm-80.86 9a10.87 10.87 0 0 1 -8.62.67c-.52-.17-1-.45-1-1.07 0-.77.69-1.05 1.34-1.21 2.84-.69 5.39.12 8.28 1.61zm-90.83 35.82a11.3 11.3 0 0 1 -7.75-1.94c-.52-.35-1.06-.66-1.4.21-1.23 3.12-2.07 6.3-1.21 9.67a3.12 3.12 0 0 0 2.52 2.49 4.61 4.61 0 0 0 2.93-.92c3-2 4.48-5.21 5.86-8.46.44-1.03-.19-1.12-.95-1.05zm-6 7.91a2.83 2.83 0 0 1 -1.58.59c-.34-.08-.7-.28-.89-1a12.43 12.43 0 0 1 .64-7.17 13.08 13.08 0 0 0 6.26 1.71 13.64 13.64 0 0 1 -4.44 5.84zm224-44.43c-.29 2 1.57 3.3 3.58 3.61 4.77.72 7.05-2.56 7.4-7.8h-.25c-4.47-.89-10.13.33-10.7 4.19zm7.06 1.08a3.93 3.93 0 0 1 -3.19.61c-.81-.12-2.07-.61-1.95-1.41a2.33 2.33 0 0 1 1.07-1.58 9 9 0 0 1 5-1.26q.42 0 .84 0a6 6 0 0 1 -1.74 3.64zm-244.31 44.39c0-.22 0 0 0 0zm14-111.27c.83-5.44-2-10.84-7-14.8h2 1.81c4.28 4.28 6.52 9.67 5.68 15.12s-4.7 10.05-10.13 12.88l-1.48-.63-1.56-.68c5.75-2.35 9.85-6.58 10.67-11.89zm51.28-34.37c21.72 2.87 33.45 20.71 38.38 30.83-1.43-.32-2.82-.62-4.06-.87q-5.91-1.22-11.65-2.31c-2.62-8.56-14.9-20.59-14.9-20.59a67.46 67.46 0 0 1 14.88 10.71c-5.1-11.72-22.65-17.77-22.65-17.77zm-133.91 179.81a2 2 0 0 0 .35 0l3-.57c2.26-.43 4.4-.83 6.5-1.16a4.61 4.61 0 0 0 3.88-3.07c2.6-6.28 6.12-14.36 9.53-22.17 3.65-8.36 7.42-17 10.18-23.71a8.31 8.31 0 0 0 .32-1.09c2.69-6.38 5-11.76 7.24-17s4.58-10.68 7.31-17.14c.7-1.68 1.41-3.36 2.18-5.18l1.18-2.83a1.94 1.94 0 0 0 -2.14-2.65l-3 .57c-2.27.42-4.41.83-6.52 1.16a5 5 0 0 0 -1.21.32c-8.38 1.09-17 5.58-23.69 12.34-7 7.06-10.94 15.76-10.82 23.87a2.11 2.11 0 0 1 0 .25c-.16 1.74.46 2.88 1.85 3.4a3.48 3.48 0 0 0 3.88-1.28l.17-.19a6.49 6.49 0 0 1 5.53-2.29 3.23 3.23 0 0 0 2.68-.76 3.14 3.14 0 0 0 .78-2.54 19.19 19.19 0 0 1 .85-7.37c1.75-5.53 6.47-12.29 12.95-15.08-1.78 4.21-3.53 8.2-5.23 12.08-2.36 5.37-4.8 10.93-7.29 17a2.23 2.23 0 0 0 -.13.44v.28c-2.72 6.45-5.17 12.44-7.55 18.24s-4.92 11.89-7.67 18.43c-.49 1.16-1.77 3.89-3.12 6.78-1.52 3.26-3.1 6.63-3.77 8.23a1.93 1.93 0 0 0 1.78 2.69zm6.89-17c5.51-13 9.77-23.84 15.28-36.88l.08-.52c4.75-11.52 9.11-20.84 13.94-32.4 0 0 0 0-.06-.07-.5-.44-1.3 0-1.93.19-7.6 2.29-13.77 9.93-16 17a21 21 0 0 0 -.93 8.11c.08 1-.26 1.32-1.36 1.23a8.44 8.44 0 0 0 -7.11 2.88c-.54.58-1.05 1.32-2 1s-.55-1.19-.56-1.85c-.23-16.26 16.56-32.32 33.12-34.33a3.7 3.7 0 0 1 1-.29c3-.48 6.06-1.09 9.6-1.74-1.25 3-2.3 5.5-3.36 8-5.44 12.9-9.17 21.36-14.61 34.26a7.13 7.13 0 0 1 -.26 1c-5.37 12.94-14.37 32.87-19.74 45.83a2.72 2.72 0 0 1 -2.38 1.91c-3.05.47-6.06 1.08-9.61 1.73 1.25-2.98 5.83-12.49 6.89-15.01zm225.34-130.05 3 .68-.62 1.32 3.15.72 8.7-19.06-3.25-.74-15.14 17.59 3.11.71zm7-8.13-2.38 5.22-1.76-.4zm41.8 56.25a9.82 9.82 0 0 0 -3.16 2.3c-5.63 5.79-7.89 10.76-9.57 18.79 0 .69-1.07 4.06 1.13 5a3 3 0 0 0 2.93-.4 6.29 6.29 0 0 0 2.37-3c3.3-7.14 5.28-12.5 8.56-19.64a4.51 4.51 0 0 0 .4-1.26c.21-1.68-.97-2.52-2.67-1.79zm.51 2.3c-1.63 3.53-2.95 6.67-4.23 9.71s-2.66 6.32-4.32 9.92a4.53 4.53 0 0 1 -1.63 2.12c-.75.45-1 .35-1.16.27s-.39-.47-.07-2.36c0-.23.07-.42.09-.6 1.7-8 4-12.52 9-17.71a8 8 0 0 1 2.47-1.85 3.72 3.72 0 0 1 -.16.5z" fill="#f78e1e"/><g fill="#00539b"><path d="m217.8 63.26-48.25-7.06-12.69-2.51 33.64 3.64zm-170.28-29.95a1.81 1.81 0 0 1 .48-2.31c.38-.29 9.7-7 45.29-5.62 2.5-5.31 7.1-10.28 13.28-14.27.38-.25.73-.48 1.09-.69a49.43 49.43 0 0 1 6.46-3.42 56.26 56.26 0 0 1 37.72-2.37h.08c14.36 3.86 27.59 14.37 35.38 28.12a51.54 51.54 0 0 1 3.69 8 13.09 13.09 0 0 1 2.68 2.83c1.07 1.4 1.79 2.27 3 2.52h.14l21.62-7.5 26.63-21.6a1.76 1.76 0 0 1 1.56-.35l21.78 5.35a1.79 1.79 0 0 1 1.21 1 1.81 1.81 0 0 1 0 1.56l-11.47 23.12a172.59 172.59 0 0 1 17.06 5.07c2.54.92 4.34 1.66 5.4 2.11 2.07.9 2.94 2.13 2.64 3.46-.5 1.47-1.63 1.36-2.36 1.36-1.2 0-3.79-.38-10.11-1.75l-8.23 1.46c11 2.21 19.11 3.87 20 4.08a1.79 1.79 0 0 1 .87.49 8 8 0 0 1 3.15 6.39c0 4.6-3 7.94-7.12 7.94h-.81l-3.06.19.38.23a1.85 1.85 0 0 1 .67 2.2 1.87 1.87 0 0 1 -1.74 1.19h-.25l-11.63-1.58a1.77 1.77 0 0 1 -.51-.15l-2-.91-14.41.9 2.57 2.37a2.72 2.72 0 0 1 -1.65 4.61c-4.72.5-8.25.87-10.91 1.13a13.35 13.35 0 0 0 1-2c2.54-.26 5.86-.6 10.18-1.06a1.19 1.19 0 0 0 1-.79 1.24 1.24 0 0 0 -.27-1.26l-8.57-8.8-.12-.08a2.59 2.59 0 0 1 1 .47l.39.36 3.21 3 12.55-.71-19.94-9a1.87 1.87 0 0 1 -1-2.26c.06-.17 1.15-.11 2.85.09l23.7 10.72.82.11 6 .83 4.78.66-.16-.11-1.84-1.3-10-7 10.82 6.36 3.86-.22h3.05a5.74 5.74 0 0 0 .6 0h.1a3.4 3.4 0 0 0 .46-.08l.32-.08.44-.15.22-.09h.06a2.68 2.68 0 0 0 .33-.18l.14-.07.39-.28.11-.08.27-.24.1-.09c.11-.11.22-.23.32-.35l-14.71-1a9.53 9.53 0 0 0 .73-1.1l14.7 1a7.07 7.07 0 0 0 .68-2.34l-14.51-1.18c0-.17.06-.33.08-.5s0-.43 0-.65l14.43 1.18a1.94 1.94 0 0 1 0 .24 6.18 6.18 0 0 0 -2.64-5.1s-4-1-4.4-.89l-1.07-.21-.24-.05-.52-.11-.82-.16-2.63-.53-.55-.11-3.25-.65h-.13l-.94-.19-.57-.11-5.15-1-4.33-.88a10.8 10.8 0 0 1 -3.38-.16l-23.74 4.03a1.24 1.24 0 0 1 -.27 0h-.22l-2.5-.38 25.62-4.62 4.92-.89 11.17-2a154.82 154.82 0 0 1 -16-3.19c-7.55-1.84-13.92-3.72-13.92-3.72s25.48 4.93 31.65 6.6c0 0 10.38 2.07 10.46 1.7 0-.12-8.75-4.25-24.09-8l-2.16-.52-1-.22a165.32 165.32 0 0 0 -28.33-3.85s5.45 1.37 12.94 3.21l-53.05 4-54.33-3.75a.85.85 0 0 1 -.15-.56c.09-.83 55.08 2.09 55.08 2.09l43.29-3.22-3.56-.89a1.55 1.55 0 0 1 .43-3.06 167.55 167.55 0 0 1 28.63 3.89l1.07.25 11.47-23.19-21.13-5.13-26.04 21.13 7.93 2-9.57-1.1-21 7.27-1.33-.26-.51-.14h-.11l-.46-.18h-.07c-.13-.06-.25-.13-.37-.2h-.08a3.11 3.11 0 0 1 -.38-.25l-.09-.07a3.88 3.88 0 0 1 -.31-.26h-.05l-.32-.3-.11-.12a3.58 3.58 0 0 1 -.26-.29l-.14-.16-.15-.18a17.5 17.5 0 0 0 -3-3.35 5.9 5.9 0 0 0 -2.27-1c-3.88-.83-8.79-2-12.45-2.75-12.65-2.6-24.06-4.66-34.38-6.28h-.09a364.13 364.13 0 0 0 -46.76-5l-2.72-.1-2.23-.22h-1.81-2c5 4 7.82 9.36 7 14.8s-4.92 9.54-10.67 11.85l1.56.68 1.48.63c2.67 1.12 5.52 2.26 8.59 3.43 4.73 31.94 52.85 25.41 52.85 25.41l9-.51c-.5.78-1 1.57-1.39 2.37l-7.4.42a72.88 72.88 0 0 1 -9.59.56 96.54 96.54 0 0 1 -16.28-1.61c-17-3.18-26.82-11.8-29.29-25.6-36.58-14.1-43.26-25.69-43.53-26.18zm62-21.46a2.82 2.82 0 0 0 .38.43c2.16 2 4.28 1.74 4.87 1.41 1.06-.58.48 4.39-1.88 3.87a13.14 13.14 0 0 1 -.5 4.71 12.25 12.25 0 0 1 -2.3 4.61c5.65.46 11.56 1.1 17.69 1.9-.74-1.77-.82-4.63-.06-7.72a17.24 17.24 0 0 1 2-4.85c-.49.18-1 .34-1.5.49a22.31 22.31 0 0 0 -5.38 6.69 6.92 6.92 0 0 1 1.94-6 19.72 19.72 0 0 1 -2.9.07c-4.52-.24-.8-5.6-.21-4.27.29.66-.34 2.07 3.08 1.9s16-7.71 19-5.92c-3.16.83-5.9 2.77-8.93 4.56 1.47 1.32 1.91 5 .91 9a14.57 14.57 0 0 1 -3.38 6.7q5.43.76 11.06 1.69h.1c7.26 1.14 14.89 2.47 22.78 4q5.75 1.1 11.65 2.31c1.24.25 2.63.55 4.06.87l3 .68 2 .47c-5.26-13.51-18.1-27.65-35.68-32.67a53.67 53.67 0 0 0 -41.81 5.07zm-13.52 14.21h.41q4.93.18 10.19.55a11 11 0 0 1 .25-5.94 11 11 0 0 1 2.78-5.11c-1.33.68-3.05 2.08-5.42 4.88a5.86 5.86 0 0 1 3.62-5.25 10.54 10.54 0 0 1 1.51-.62 19.54 19.54 0 0 1 -1.29-1.8l.09-.06h-.09c-5.66 3.76-9.91 8.41-12.05 13.35zm119 44.82 12.48 1.19-13.12-2.69a3.37 3.37 0 0 0 -3.13 1.72l-.06.1a2.73 2.73 0 0 0 .47 3.14l5.36 5.52-3.54.2c.13.3.26.61.38.93 0 .07 0 .14.07.2.09.25.18.5.26.75l.09.28.21.69c0 .1.05.21.08.31s.11.46.17.69 0 .21.07.32.09.47.13.71 0 .2.05.3c.05.26.08.52.12.78v.25c0 .33.07.66.09 1v1.09l3.91.24h.15a2.48 2.48 0 0 0 2-3.9l-1.08-1.56c1.15 1.16 2.08 2.08 2.83 2.82a15.07 15.07 0 0 1 .93-2.8l-1.38-1.39-2.12-2.15c-1.76-1.78-3.91-4-6.58-6.74a1.2 1.2 0 0 1 -.21-1.39 1.22 1.22 0 0 1 1.37-.61zm15.47 19.87c.26-.12.5-.25.74-.38l.18-.1a8.7 8.7 0 0 0 1.29-.9l.14-.12a7 7 0 0 0 .56-.53 9 9 0 0 0 1.44-2 11.23 11.23 0 0 0 .67-1.5c.08-.23.16-.46.23-.7a1 1 0 0 1 .05-.16c.07-.25.13-.5.19-.76.21-1.82.08-3.5-1.52-4.64s-3.3-.62-4.8.29a6 6 0 0 0 -.61.42l-.17.14-.42.36-.17.16a6.14 6.14 0 0 0 -.43.45l-.11.11c-.17.2-.35.42-.51.64-.15.2-.3.42-.44.64l-.08.13c-.13.21-.26.42-.37.63l-.06.1a13.35 13.35 0 0 0 -.72 1.59 12.76 12.76 0 0 0 -.75 2.93c0 .13 0 .26-.05.39s0 .33 0 .49c-.19 3.42 2.67 3.7 5.74 2.32zm-56.43-6.18 1-2.35-6 .34a20.17 20.17 0 0 0 -1.46 2.38l6.49-.37zm-142.23 48.84c-5.51 13-9.77 23.84-15.28 36.88-1.06 2.52-5.64 12-6.89 15 3.55-.65 6.56-1.26 9.61-1.73a2.72 2.72 0 0 0 2.38-1.91c5.37-12.95 14.37-32.88 19.71-45.85a7.13 7.13 0 0 0 .26-1c5.44-12.9 9.17-21.36 14.61-34.26 1.06-2.51 2.11-5 3.36-8-3.57.68-6.57 1.29-9.57 1.77a3.7 3.7 0 0 0 -1 .29c-16.53 2-33.32 18.07-33.08 34.31 0 .66-.33 1.52.56 1.85s1.43-.4 2-1a8.44 8.44 0 0 1 7.11-2.88c1.1.09 1.44-.19 1.36-1.23a21 21 0 0 1 .93-8.11c2.25-7.07 8.42-14.71 16-17 .63-.19 1.43-.63 1.93-.19 0 0 0 0 .06.07-4.87 11.58-9.23 20.9-13.98 32.47zm210.93-90.5.63-1.32-1.12-.26-1.06 1.23-5.38-1.24 16.64-19.32 5.1 1.17-9.55 20.93zm2.11-2-.62 1.32 3.15.72 8.7-19.06-3.25-.74-15.12 17.55 3.11.71 1.05-1.22zm-43 45.29a8.65 8.65 0 0 0 -.08-.89 2.51 2.51 0 0 0 0-.27c0-.2-.06-.39-.09-.58a2.82 2.82 0 0 0 -.07-.31c0-.19-.09-.38-.14-.57a2.33 2.33 0 0 0 -.07-.25c-.07-.24-.15-.48-.24-.71l-.15-.36c-.05-.12-.1-.24-.16-.36l-.18-.37-.18-.32-.21-.36-10.46.59-1 2.34 10.18-.62a39.6 39.6 0 0 0 2.8 3.64c.03-.22.02-.43.01-.64zm143.38 28.67c-1.38 9.39-8.76 13.23-17.48 15.8s-264.54 69.1-277.65 79.81c-7.19-6.9-22.71-13.95-44.13-10.3l2.45-8.18c11.69-2.69 306.21-65.87 314.48-68s14.75-6 15.44-10.66c.33-2.23-1-4.34-3.17-6.06-3 5.52-9 10.13-15.78 9.14-7.54-1.11-8.54-5.63-7.91-9.9s6.32-8.94 14.64-8c-1-3.85-3.38-8.3-3.08-11.26-3.8 2.27-10.67 15.47-15.85 24.93-4.06 7.42-9.2 8.94-10.38 9.19-3 .66-5.2-.28-6.62-2.85-.29-.52-.56-1-.91-1.71-1.2 1.21-2.26 2.38-3.44 3.43a13 13 0 0 1 -5.09 2.78c-5 1.41-8.92.11-10.91-3.5-.56.45-1.14.89-1.73 1.31-2.07 1.48-8.58 7.31-11 8-3.17.9-6.52 1.65-9.18-1s-2.72-6.17-1.94-9.63c1.27-5.69 4.69-11.69 8-16.48.45-.66.88-1.32 1.44-2.16-2.64 0-5 0-7.44-.15-.73-.06-.33 1-.6 1.58-2.08 4.71-6.09 10.59-10.3 17a102.37 102.37 0 0 1 -6.81 10 36.4 36.4 0 0 1 -3.48 3.92c-4 3.87-6.63 3.67-7.63 3.91-3.77.9-6.84-.91-8.19-4.51 0 0-6.21 5.53-7.55 7-1.69 1.81-2.37 3.17-4.37 4.64-7.53 8.22-21.27 9-30 1.86a2.84 2.84 0 0 1 -.26-4.27c.51-.5.84-.09 1.23.08 10.5 4.57 21.35-.3 24-10.84a30.2 30.2 0 0 0 .85-10.8 12 12 0 0 0 -.93-3.53c-1-2.31-1.22-2.37-3.66-1.58a16.83 16.83 0 0 1 -13.5-1c-1.35-.72-1.89-.78-2.53.78-5.34 13-10.81 25.9-16.18 38.87a2.72 2.72 0 0 1 -2.39 1.9c-3 .47-6 1.08-9.6 1.73l2.65-6.3a29.14 29.14 0 0 1 -5.08 4.39 10 10 0 0 1 -3.53 1.66c-2.66.55-5.22.37-7.2-1.75s-1.95-4.93-1-7.57c2.28-6.16 4.74-12.24 7.06-18.38.51-1.35 1.6-3 .21-4.18-1.2-1-2.62.17-3.81.81a11.46 11.46 0 0 0 -5.48 6.17c-3.31 8.37-6.87 16.64-10.22 25-.68 1.7-1.57 2.59-3.33 2.73a28.08 28.08 0 0 0 -4.54.82c-2.06.51-2.23-.17-1.46-2q5.53-13.26 10.93-26.61c.55-1.35 1.94-3.21.61-4.21-1.8-1.36-1.22 8.29-14.79 16.06a9.56 9.56 0 0 0 -.34 1c-1.66 5.73-4 11.08-8.31 15.28-5.08 5-11.47 5.39-16.34 1.23-1.84 1.95-6.66 4.44-8.81 6a21.89 21.89 0 0 1 -6.77 3.56c-3.18 1-6.53 1.77-9.18-1s-2.68-6.44-1.88-10a48.33 48.33 0 0 1 7.16-16.42c.45-.69.89-1.39 1.45-2.26l-7.46-.19c-1 0-1.08.92-1.35 1.55-2.12 4.93-17.22 22.91-21.53 26-.84.61 6.27-10.1 4.89-14.09 2.49-2.43 10.7-12 11.33-15.1.25-1.2.31-2.43.5-3.64.49-3.24 1.07-3.7 4.14-3 6.09 1.34 12.07.42 17.89-1.48 3.82-1.26 3.92 2.39 5.53 3.92s0 2.65-1 3.74c-5.26 5.7-10 11.73-12.41 19.43-.48 1.57-1 3.22.23 4.53s3.12.94 4.54.11c4.75-2.74 8.92-8.9 8.92-8.9s0-.22 0 0c.08-.54.26-1.76.27-2 0-5.64 1.35-10.86 4.95-15.28a4.37 4.37 0 0 0 1-2.24 12.43 12.43 0 0 1 12.09-10.68c5.8-.13 9.61 3.42 10.75 10l.25 3.69c1.56-1 6.5-5.08 7.26-7.3 1.26-3.66 2.45-6.88 4.34-8.15a19.65 19.65 0 0 1 4-2.32c3.84-1.5 5.44-.75 7 3.77 1.86-1.59 3.52-3.2 5.36-4.53a12.24 12.24 0 0 1 7.79-2.43c5 .18 7.44 3.68 5.7 8.54s-3.85 9.32-5.75 14c-.89 2.18-1.7 4.39-2.45 6.62a2.39 2.39 0 0 0 .49 2.8c.79.64 1.71.29 2.53-.12 3.33-1.63 7.58-8.29 9.9-11.13l.13-.3.09-.21.1-.23v-.06l.18-.41.62-1.43v-.1c.14-.31.28-.65.44-1 .25-.56.51-1.18.8-1.84l.06-.13.19-.44.18-.42.29-.67.47-1.09.08-.18q.15-.33.3-.69l.4-.92c.39-.91.81-1.86 1.24-2.85l.18-.42.65-1.52.2-.45c2.46-5.69 5.37-12.41 8.3-19.22l.05-.11c1.24-2.87 2.48-5.76 3.69-8.59l.1-.23.36-.84.14-.31.39-.91c.91-2.12 1.79-4.19 2.64-6.19.33-.79.66-1.56 1-2.32l1.43-3.36.06-.15c.21-.5.42-1 .63-1.48l.11-.26c.2-.49.41-1 .6-1.43s.87-1.24.31-1.73-1.3 0-1.92.19c-.43.13-.84.27-1.24.41l-.35.13-.91.36-.29.13a11.47 11.47 0 0 0 -1.06.5l-.36.18-.68.38-.42.24-.66.42-.63.44-.47.35-.49.39-.33.28a18.29 18.29 0 0 0 -1.67 1.62l-.15.16a21.92 21.92 0 0 0 -3.95 6.49l-.15.38-.18.49c-.13.35-.25.7-.37 1.07a21 21 0 0 0 -.93 8.1c.08 1-.26 1.32-1.36 1.23a8.43 8.43 0 0 0 -7.11 2.88c-.54.58-1.05 1.32-2 1s-.55-1.19-.56-1.85c0-.31 0-.62 0-.93a2.44 2.44 0 0 0 0-.27v-.69c0-.09 0-.18 0-.27 0-.3 0-.59.07-.89 0-.31.07-.61.11-.92a1.57 1.57 0 0 1 0-.23c0-.24.07-.47.11-.7a2 2 0 0 0 0-.24c.12-.61.25-1.21.41-1.81a1.54 1.54 0 0 1 .05-.17c.06-.25.13-.5.21-.74a1.21 1.21 0 0 1 .05-.18c.19-.61.39-1.2.62-1.79a.42.42 0 0 1 0-.1c.1-.27.21-.53.32-.79a.61.61 0 0 1 .05-.12c.25-.59.53-1.18.82-1.75.14-.28.28-.55.43-.82v-.08c.32-.57.66-1.14 1-1.69.18-.27.36-.55.55-.82q.59-.83 1.2-1.62l.63-.76v-.05c.43-.52.88-1 1.35-1.52l.68-.69.06-.06c.48-.48 1-.94 1.48-1.4l.71-.62.09-.07c.51-.43 1-.85 1.58-1.26l.07-.05.74-.54.11-.08c.55-.39 1.1-.76 1.67-1.12l.12-.07.73-.45.16-.09c.57-.34 1.15-.66 1.73-1a.8.8 0 0 0 .16-.08l.74-.37.18-.09q.89-.43 1.8-.81l.2-.09.72-.29.22-.09c.61-.23 1.22-.45 1.84-.66l.23-.08.71-.22.26-.08.92-.26.93-.24.27-.06.7-.15.28-.06q.47-.11.93-.18l1-.16h.28l.71-.09h.28l1-.1a31.24 31.24 0 0 1 17.11 3l.87.46.22.13.61.36.23.15c.19.12.39.24.57.37l.21.14c.19.13.38.26.56.4l.18.13.56.43.15.12.56.48.12.1.56.51.08.09c.19.18.38.37.56.56l.06.06.55.6c.19.22.37.43.54.65l.52.68a19.61 19.61 0 0 1 2.15 3.81l.05.11c.11.26.21.52.3.79l.06.16c.1.28.2.57.28.85v.08c.06.23.13.45.18.68v.09c.06.22.11.44.16.67v.1c.05.23.09.45.13.68v.07c.05.24.08.49.12.73v.09c0 .32.08.63.1 1v.1c0 .62.08 1.25.07 1.88v.91.06q0 .43-.06.87v.1c0 .28-.06.55-.1.83a.77.77 0 0 1 0 .15q0 .39-.12.78v.21q-.06.38-.15.75v.23c-.07.33-.15.65-.23 1-1.72 6.63-5.33 11.87-11.92 14.92-1.57.73-.8 1.37-.26 2.18a25.67 25.67 0 0 1 3.36 20.66c2.33-1.89 8.21-10.9 9.53-13.79 4.06-8.94 3.92-10.36 7.8-19.39.72-1.7 1.61-2.63 3.51-2.66 2.33 0 5.79-1.48 6.68-.21 1.25 1.77-1.16 4.35-2.08 6.54-3.48 8.31-3.05 9-6.58 17.26-.63 1.5-2.08 3.5-.22 4.71 2.79 1.81 17.11-22.82 18.91-27.38.24-1.14.3-2.32.47-3.48.47-3.1 1.05-3.54 4.12-2.87 6.09 1.32 12.07.48 17.86-1.3 3.81-1.18 3.15 4.79 4.77 6.27a.78.78 0 0 1 -.23 1.09c-8.11 6.35-10.9 12-13.21 19.33-.48 1.5-1 3.07.25 4.34s3.13.91 4.54.14c1.91-1 7.51-6.83 8.46-8.12-.32-5.35 3-14.39 4-16.7a34.1 34.1 0 0 1 11.81-12.92c4.84-3 7.44-3 11.63 0 .66.48 1.07.44 1.21-.2.24-1.08 8-20 8.62-20.53a7.77 7.77 0 0 1 4.41-1.07c1.56-.06 3.63-1.2 4.53-.12s-13.71 35.06-16.96 42.38a11.49 11.49 0 0 0 -1.43 5.75 2.65 2.65 0 0 0 1.23 2.07c1.1.78 4.66-3.62 9.92-11.07 6.43-9.1 10.8-21 15.13-24.24l12.15-1.17c-2 2.93-2.26 5.23-1.51 7.62 1.49 4.7 5.29 13.27 4.57 18.43 5.34 2.81 8.94 7.2 8.13 12.98zm-247.71 29.25a11.3 11.3 0 0 1 -7.75-1.94c-.52-.35-1.06-.66-1.4.21-1.23 3.12-2.07 6.3-1.21 9.67a3.12 3.12 0 0 0 2.52 2.49 4.61 4.61 0 0 0 2.93-.92c3-2 4.48-5.21 5.86-8.46.44-1.03-.19-1.12-.95-1.05zm2.79-10.12a3.19 3.19 0 0 0 -2.68-3c-1.89-.47-4.58 1.21-5.34 3.27a4.12 4.12 0 0 0 2.12 5.07 7 7 0 0 0 2.36.89c2.67.44 3 .19 3.53-2.56.01-1.28.1-2.5.01-3.67zm88-25.67c-2.89-1.49-5.44-2.3-8.27-1.61-.65.16-1.3.44-1.34 1.21 0 .62.47.9 1 1.07a10.87 10.87 0 0 0 8.65-.7zm11.36-7.81.39-.54.35-.51c.11-.18.23-.35.33-.53l.33-.55.28-.52.3-.58.24-.52.27-.62c.06-.16.13-.33.19-.5s.17-.44.24-.66.1-.32.15-.48.15-.47.21-.7l.12-.45.18-.77c0-.12 0-.24.07-.36 0-.29.11-.58.15-.88 0 0 0-.06 0-.1a26.65 26.65 0 0 0 .22-5.17c0-.43-.07-.85-.13-1.26 0-.28-.09-.56-.14-.84-.09-.45-.21-.89-.34-1.32-.08-.26-.17-.52-.27-.77a3.65 3.65 0 0 1 -.14-.35c-.06-.12-.12-.25-.17-.37s-.14-.31-.22-.46-.24-.45-.37-.67l-.23-.36c-.09-.13-.18-.27-.28-.4l-.23-.33c-.16-.21-.33-.41-.5-.6s-.17-.19-.26-.29l-.38-.39-.27-.26c-.2-.18-.41-.37-.62-.54l-.26-.2-.52-.37-.27-.19-.77-.47-.21-.11c-.22-.13-.45-.25-.68-.36l-.27-.12c-.3-.14-.6-.27-.92-.39h-.12c-.28-.11-.58-.21-.88-.31l-.24-.15c-.34-.1-.68-.2-1-.28-1.55-.36-2.26-.08-2.84 1.36-.5 1.24-1 2.48-1.51 3.72l-1 2.51-.65 1.49c-1.43 3.41-2.87 6.82-4.29 10.23-1.19 2.86-2.34 5.73-3.61 8.84a18.9 18.9 0 0 1 13.45 2.73 2.24 2.24 0 0 0 3-.1c.38-.29.73-.59 1.08-.89.12-.11.22-.22.34-.32l.65-.61.38-.4.54-.56.38-.45c.15-.18.31-.36.45-.54zm91-12.18a9.82 9.82 0 0 0 -3.16 2.3c-5.63 5.79-7.89 10.76-9.57 18.79 0 .69-1.07 4.06 1.13 5a3 3 0 0 0 2.93-.43 6.29 6.29 0 0 0 2.37-3c3.3-7.14 5.28-12.5 8.56-19.64a4.51 4.51 0 0 0 .4-1.26c.21-1.68-.97-2.52-2.67-1.79zm35.87 15.1h-.25c-4.5-.84-10.16.38-10.73 4.24-.29 2 1.57 3.3 3.58 3.61 4.76.64 7.04-2.64 7.39-7.88zm-77.68-71.38-4.14 4.82 1.76.4zm-105.86 40.16 1.72-5.44c-3.94 5.12-11.92 11.11-27.45 9.82-10.8-.9-17.14-12.7-17.14-12.7l10.25 1.53-14.83-6.73c.75-.3 18.91 6.84 49.49 1.9l-9.53-2.5 5.7-2.71 11.61 2.52-4.52 12.3zm5-12-3.2 10.14 2.68-1 3.89-10.6-10-2.17-2.58 1.22zm-3.22 4.65.51-.3h.08l.12-.08 1.03-3.49-1.36-.36c-6.67 7-29.57 6.45-29.57 6.45.57.14 1.14.25 1.7.37l.39.08 1.62.3h.15c.49.09 1 .16 1.45.23h.37l1.49.2h.23l1.29.13h.32l1.38.09h.27 1.16 1.84 1.07.23c.4 0 .79 0 1.17-.06h.28q.51 0 1-.09h.15l1.09-.14h.27c.33 0 .65-.1 1-.15h.08l1-.2h.25l.94-.22h.07l.85-.23.23-.06.84-.26h.12l.73-.25.19-.07.76-.3h.14l.63-.27.16-.07.68-.32.14-.07.56-.29.13-.06.6-.34zm139.01 2.13c-5.28-.56-10.48-1.13-14.17-1.54a7.73 7.73 0 0 1 .41 1.2c4 .45 9.34 1 14.35 1.56a6 6 0 0 0 -.59-1.22z"/><path d="m330.83 136.93h1.48v4.03h1.01v-4.03h1.48v-.88h-3.97z"/><path d="m338.6 139.26h-.02l-1.15-3.21h-1.74v4.91h1.01v-3.9h.02l1.38 3.9h.96l1.43-3.9h.02v3.9h1v-4.91h-1.72z"/></g></svg>