<svg height="70" viewBox="0 0 617 114" fill="none" xmlns="http://www.w3.org/2000/svg">
<path d="M0 32.4802C4.84909 32.4699 9.69647 32.4562 14.5456 32.4477C16.3428 32.4443 18.14 32.4716 19.9355 32.434C20.5808 32.4203 20.8051 32.6343 20.7537 33.2658C20.7092 33.8016 20.7452 34.3442 20.7452 35.0203C19.814 35.0203 18.9411 35.0203 18.0681 35.0203C15.4664 35.0203 14.1023 36.1431 14.0372 38.7174C13.9088 43.902 13.9345 49.0917 13.8986 54.2797C13.8969 54.6358 13.8986 54.9918 13.8986 55.3478C13.9739 55.3786 14.0509 55.4077 14.1262 55.4385C14.5764 54.9489 15.0214 54.4543 15.4784 53.9699C17.8645 51.4435 20.2659 48.9325 22.6382 46.3942C24.5621 44.3368 26.4758 42.2674 28.3432 40.1604C28.843 39.5972 29.2332 38.904 29.5447 38.2125C30.2037 36.7473 29.709 35.758 28.136 35.4259C27.3093 35.2513 26.4415 35.2582 25.5925 35.1966C25.3135 35.1761 25.0311 35.1932 24.6272 35.1932C24.6272 34.4246 24.6032 33.7228 24.6477 33.0245C24.6563 32.8841 24.9027 32.6924 25.0722 32.6445C25.3101 32.5777 25.5806 32.6206 25.8373 32.6206C31.3711 32.6206 36.9048 32.6206 42.4386 32.6206C42.8014 32.6206 43.1626 32.6206 43.5717 32.6206C43.5717 33.5123 43.5717 34.298 43.5717 35.1418C43.3064 35.1606 43.0565 35.2137 42.8134 35.1897C39.6434 34.8697 37.1256 36.2612 35.034 38.4042C31.9154 41.5981 28.9268 44.9204 25.9075 48.2085C23.7713 50.5329 21.6729 52.8933 19.5111 55.2896C21.2141 57.3555 22.9087 59.4095 24.6015 61.4652C28.3825 66.0559 32.119 70.6824 35.96 75.2217C38.257 77.9364 41.1001 79.7062 44.8486 79.5248C45.5503 79.4906 46.2555 79.5197 47.0001 79.5197C47.0001 80.4217 47.0001 81.2056 47.0001 82.0426C39.3336 82.0426 31.7048 82.0426 24.0024 82.0426C24.0024 81.2467 24.0024 80.4662 24.0024 79.571C24.3465 79.5539 24.7042 79.5385 25.0602 79.5197C25.7123 79.4854 26.3782 79.5265 27.0115 79.3981C28.2182 79.1517 28.694 78.2821 28.0333 77.25C27.0714 75.7506 25.952 74.3402 24.8172 72.9623C21.3956 68.8116 17.9329 64.6934 14.4822 60.5649C14.3607 60.4194 14.2032 60.3047 13.9568 60.0771C13.9328 60.4759 13.902 60.7446 13.902 61.0133C13.8986 65.5492 13.866 70.085 13.926 74.6192C13.9396 75.6496 14.1622 76.7142 14.4925 77.6933C14.905 78.9206 15.9217 79.4923 17.214 79.5162C18.1828 79.5334 19.1533 79.5316 20.1238 79.5179C20.5398 79.5128 20.7657 79.6326 20.7503 80.0965C20.728 80.7195 20.7452 81.3443 20.7452 82.1214C13.7856 82.1214 6.89452 82.1214 0.00342664 82.1214C0.00342664 81.2655 0.00342664 80.4097 0.00342664 79.5539C1.0869 79.5419 2.17037 79.5316 3.25384 79.5197C5.02711 79.5008 6.09004 78.7374 6.57786 77.0241C6.76271 76.3754 6.86541 75.6804 6.86541 75.006C6.88253 63.2265 6.88082 51.4469 6.86884 39.6674C6.86884 39.0752 6.8055 38.4693 6.67028 37.8924C6.21669 35.9497 5.07332 35.0493 3.08268 35.0271C2.0574 35.0168 1.03041 35.0408 0.00342664 35.0494C3.34314e-06 34.1918 0 33.336 0 32.4802Z" fill="#222964"></path>
<path d="M264.45 31.9342C278.194 31.7014 290.547 43.3783 290.107 58.3877C289.717 71.6564 278.838 83.2887 264.356 83.263C250.041 83.2391 238.708 71.5759 238.737 57.4874C238.768 43.0086 250.9 31.6655 264.45 31.9342ZM246.298 54.8138C246.392 55.5652 246.452 56.9413 246.746 58.2644C248.333 65.3609 251.898 71.3003 257.48 75.9577C260.551 78.5201 264.023 80.1632 268.2 79.7542C271.277 79.4529 274.028 78.3609 276.272 76.2504C280.887 71.9097 282.891 66.4564 282.506 60.202C282.366 57.9341 281.852 55.6268 281.123 53.4684C279.392 48.3403 276.503 43.89 272.503 40.2134C269.342 37.3087 265.821 35.1761 261.302 35.3609C256.893 35.5406 253.262 37.2865 250.529 40.7611C247.433 44.6979 246.426 49.3108 246.298 54.8138Z" fill="#222964"></path>
<path d="M349.553 44.8143C349.553 45.0916 349.553 45.3672 349.553 45.6445C349.553 54.5741 349.536 63.5021 349.573 72.4317C349.578 73.6128 349.732 74.8264 350.042 75.9646C350.698 78.3729 352.332 79.5163 354.824 79.5197C355.586 79.5197 356.346 79.5197 357.151 79.5197C357.151 80.42 357.151 81.2039 357.151 82.0409C351.085 82.0409 345.053 82.0409 338.947 82.0409C338.947 81.2467 338.947 80.4645 338.947 79.5197C339.692 79.5197 340.452 79.4666 341.203 79.5283C344.688 79.8124 345.691 77.7789 345.708 74.953C345.749 67.8497 345.722 60.7463 345.722 53.643C345.722 49.4495 345.777 45.2542 345.686 41.0641C345.662 39.9344 345.344 38.7483 344.892 37.7042C344.156 36.0028 342.658 35.2753 340.842 35.1983C340.337 35.176 339.832 35.1949 339.274 35.1949C339.274 34.3151 339.274 33.5329 339.274 32.7044C339.474 32.6736 339.637 32.6274 339.8 32.6274C342.795 32.6223 345.79 32.6069 348.786 32.6445C349.118 32.6479 349.547 32.8824 349.761 33.1477C359.312 44.8965 368.846 56.6606 378.382 68.4214C378.592 68.6815 378.827 68.9229 379.19 69.3285C379.229 68.9212 379.269 68.6918 379.269 68.4641C379.272 59.1066 379.282 49.7507 379.251 40.3931C379.25 39.5835 379.068 38.7483 378.818 37.9746C378.248 36.2082 377.009 35.3712 375.147 35.3661C374.294 35.3626 373.44 35.3661 372.506 35.3661C372.506 34.4024 372.506 33.4867 372.506 32.4973C372.833 32.4802 373.137 32.4511 373.442 32.4511C378.606 32.4477 383.768 32.4682 388.932 32.4289C389.776 32.422 390.057 32.677 389.959 33.4901C389.903 33.9608 389.949 34.4435 389.949 35.0237C388.917 35.0237 387.984 35.0186 387.051 35.0254C384.951 35.0374 383.804 35.9292 383.375 37.9763C383.207 38.7774 383.116 39.6109 383.115 40.4291C383.099 53.8946 383.104 67.3584 383.104 80.8222C383.104 81.2125 383.104 81.6045 383.104 82.0872C382.18 82.0872 381.355 82.1436 380.545 82.058C380.236 82.0255 379.895 81.7192 379.678 81.4504C373.671 74.0852 367.677 66.708 361.683 59.3325C357.878 54.6511 354.075 49.9681 350.272 45.285C350.112 45.0899 349.957 44.893 349.799 44.6979C349.714 44.7356 349.633 44.775 349.553 44.8143Z" fill="#222964"></path>
<path d="M201.324 63.0639C201.324 63.5756 201.324 63.8512 201.324 64.1285C201.324 67.7794 201.305 71.4321 201.338 75.083C201.346 76.0159 201.447 76.9624 201.637 77.8765C202.01 79.6703 203.135 80.5312 204.968 80.5449C205.91 80.5518 206.851 80.5723 207.792 80.5381C208.359 80.5175 208.513 80.7366 208.525 81.2827C208.575 83.5232 208.592 83.5232 206.389 83.5232C200.371 83.5232 194.351 83.5232 188.333 83.5232C187.966 83.5232 187.6 83.5232 187.174 83.5232C187.174 82.5219 187.174 81.5976 187.174 80.5466C188.151 80.5466 189.111 80.5484 190.07 80.5466C192.41 80.5432 193.44 79.6651 193.805 77.3305C193.897 76.7416 193.954 76.1409 193.954 75.5469C193.962 64.108 193.964 52.6691 193.95 41.2301C193.95 40.5797 193.877 39.9173 193.738 39.2823C193.295 37.2471 191.792 36.0661 189.702 36.0507C189.361 36.049 189.021 36.0507 188.507 36.0507C189.411 34.5735 190.231 33.1905 191.112 31.8469C191.225 31.6757 191.679 31.6192 191.944 31.6706C195.431 32.3364 198.953 32.487 202.488 32.4374C204.078 32.4151 205.668 32.1464 207.257 32.1669C211.626 32.2251 215.748 33.1237 219.099 36.191C223.783 40.477 226.018 45.8242 225.544 52.1436C225.032 58.9696 220.542 65.2822 213.887 66.7593C209.374 67.7606 205.293 66.874 201.896 63.5603C201.772 63.4405 201.641 63.3377 201.324 63.0639ZM201.264 48.6655C201.264 51.2039 201.362 53.7474 201.23 56.2789C201.144 57.9221 201.725 59.199 202.668 60.4279C204.619 62.9697 207.842 64.25 210.577 63.4576C213.175 62.7061 214.813 60.8387 215.868 58.4647C217.764 54.1958 217.971 49.7781 216.751 45.2884C216.044 42.6902 214.844 40.3589 212.867 38.4812C210.269 36.0147 207.101 35.568 203.725 35.9873C202.796 36.102 202.084 36.7217 201.805 37.6271C201.54 38.4846 201.309 39.3918 201.288 40.2819C201.223 43.0753 201.264 45.8721 201.264 48.6655Z" fill="#222964"></path>
<path d="M97.6406 72.1579C97.3667 73.2174 97.1288 74.1451 96.8875 75.0711C96.3055 77.3014 95.7201 79.5299 95.1399 81.7602C95.0355 82.1659 94.9191 82.4483 94.3731 82.4466C83.2765 82.4278 72.1799 82.4329 61.0816 82.4312C60.9446 82.4312 60.8077 82.4055 60.5663 82.3816C60.5663 81.6729 60.5236 80.9934 60.5955 80.3259C60.6143 80.1513 60.9857 79.8997 61.2116 79.8825C62.2027 79.8055 63.2023 79.8329 64.1968 79.7644C65.8143 79.6532 66.7129 78.6604 67.0911 77.1798C67.2794 76.4438 67.3907 75.6651 67.3924 74.9051C67.4112 63.3224 67.43 51.7414 67.3667 40.1587C67.3599 39.0136 66.9491 37.8222 66.5041 36.7456C66.0933 35.7512 65.1005 35.3831 64.0341 35.3695C62.9267 35.3558 61.8176 35.3661 60.6348 35.3661C60.6348 34.5239 60.6348 33.7417 60.6348 32.8499C60.9138 32.8311 61.2134 32.7952 61.5112 32.7952C71.9522 32.7917 82.3933 32.8003 92.8343 32.7763C93.5121 32.7746 93.7654 33.0023 93.9229 33.627C94.712 36.7388 95.5438 39.8403 96.3911 43.065C95.5678 43.065 94.8335 43.1198 94.1146 43.0342C93.8699 43.0051 93.6234 42.6474 93.4522 42.3906C92.557 41.0504 91.8176 39.5784 90.7701 38.3734C89.411 36.8107 87.4563 36.1466 85.4503 35.9138C83.0813 35.6382 80.6885 35.4996 78.3024 35.4499C76.0687 35.4037 74.672 36.8381 74.6224 39.2772C74.518 44.4652 74.5334 49.6549 74.4803 54.8429C74.4752 55.4248 74.7165 55.5652 75.2471 55.5618C78.756 55.5464 82.2649 55.5891 85.7738 55.5429C88.3549 55.5087 89.7345 53.8929 89.8235 50.9506C89.8338 50.5877 89.8252 50.2248 89.8252 49.7986C90.6537 49.7986 91.3794 49.7986 92.1685 49.7986C92.1685 54.7881 92.1685 59.7622 92.1685 64.8012C91.4239 64.8012 90.6999 64.8012 89.9074 64.8012C89.8424 64.0926 89.791 63.3943 89.714 62.6976C89.4709 60.529 88.1975 59.1819 85.9963 59.0655C83.5777 58.9371 81.1506 59.0005 78.7269 58.9868C77.361 58.9799 75.9934 58.9851 74.4906 58.9851C74.4906 59.3822 74.4906 59.7125 74.4906 60.0446C74.4906 64.666 74.4581 69.2875 74.5128 73.9089C74.5265 75.1173 74.6909 76.3514 74.9921 77.5222C75.3396 78.8744 76.3974 79.6326 77.7718 79.6617C81.1301 79.7319 84.502 79.8329 87.8072 79.0507C91.02 78.289 93.3136 76.4216 94.486 73.291C94.7873 72.4882 95.193 71.9747 96.16 72.1459C96.5948 72.2212 97.0552 72.1579 97.6406 72.1579Z" fill="#222964"></path>
<path d="M124.52 79.6891C125.509 79.6891 126.444 79.6926 127.38 79.6891C129.557 79.6823 130.709 78.7477 131.12 76.6047C131.237 75.9937 131.298 75.3638 131.3 74.7407C131.315 70.8895 131.273 67.0383 131.329 63.1871C131.346 61.9736 131.062 60.9329 130.483 59.8734C126.663 52.8779 122.896 45.855 119.099 38.8475C117.694 36.2544 115.303 35.3883 112.552 35.2C111.934 35.1572 111.311 35.1932 110.646 35.1932C110.646 34.3237 110.646 33.5397 110.646 32.6685C110.998 32.6514 111.328 32.6206 111.659 32.6206C118.134 32.6172 124.609 32.6325 131.084 32.6C131.921 32.5966 132.308 32.7763 132.181 33.6749C132.116 34.1405 132.169 34.6249 132.169 35.2137C131.124 35.2137 130.191 35.2086 129.256 35.2171C129.029 35.2188 128.801 35.2531 128.577 35.289C126.417 35.6399 125.956 36.4649 126.981 38.3837C129.999 44.0321 133.06 49.6583 136.106 55.2913C136.156 55.3838 136.248 55.4522 136.356 55.572C137.607 53.1569 138.847 50.7863 140.067 48.4071C141.782 45.0625 143.531 41.7368 145.169 38.3546C146.181 36.2664 145.798 35.6844 143.506 35.4259C142.913 35.3592 142.311 35.3746 141.714 35.3643C141.145 35.3558 140.575 35.3626 139.935 35.3626C139.935 34.5188 139.935 33.7143 139.935 32.8482C145.751 32.8482 151.549 32.8482 157.394 32.8482C157.394 33.6852 157.394 34.4709 157.394 35.3626C156.607 35.3626 155.845 35.3575 155.085 35.3643C152.654 35.3832 150.785 36.4102 149.645 38.5703C147.759 42.1459 145.928 45.7523 144.079 49.3485C142.282 52.8437 140.478 56.3354 138.713 59.846C138.48 60.3081 138.35 60.8713 138.347 61.3899C138.319 65.9531 138.325 70.5181 138.338 75.0831C138.34 75.6205 138.395 76.1666 138.497 76.6938C138.906 78.7871 140.033 79.6874 142.198 79.6908C142.968 79.6926 143.738 79.7062 144.509 79.6874C144.961 79.6754 145.204 79.8021 145.181 80.3087C145.154 80.9266 145.175 81.548 145.175 82.2155C138.239 82.2155 131.408 82.2155 124.517 82.2155C124.52 81.4128 124.52 80.6288 124.52 79.6891Z" fill="#222964"></path>
<path d="M436.501 82.3901C429.551 82.3901 422.72 82.3901 415.838 82.3901C415.838 81.5737 415.838 80.7897 415.838 79.8603C416.661 79.8603 417.474 79.8603 418.287 79.8603C421.049 79.8569 422.224 78.8247 422.569 76.081C422.612 75.7421 422.629 75.3997 422.629 75.0591C422.633 63.4524 422.634 51.8458 422.624 40.2391C422.624 39.6743 422.554 39.1026 422.45 38.5463C422.078 36.5659 421.055 35.5406 419.064 35.4619C417.221 35.39 415.353 35.4276 413.522 35.6348C410.163 36.013 407.854 37.9523 406.334 40.9032C405.97 41.6118 405.617 42.3256 405.26 43.0342C404.436 43.0342 403.644 43.0342 402.738 43.0342C402.786 42.7244 402.803 42.454 402.87 42.1989C403.628 39.3114 404.411 36.429 405.143 33.5346C405.292 32.9458 405.549 32.7797 406.134 32.7797C419.48 32.7951 432.827 32.7934 446.173 32.7832C446.704 32.7832 446.966 32.9047 447.111 33.4832C447.914 36.6498 448.775 39.8026 449.643 43.065C448.826 43.065 448.093 43.101 447.369 43.0428C447.157 43.0256 446.906 42.7706 446.781 42.5601C446.216 41.6067 445.745 40.5917 445.137 39.6674C443.676 37.4388 441.647 35.9583 438.964 35.7015C436.879 35.503 434.767 35.5184 432.668 35.5577C431.366 35.5817 430.506 36.4256 430.111 37.622C429.856 38.3939 429.676 39.2309 429.674 40.0388C429.647 51.7602 429.654 63.4798 429.662 75.2012C429.662 75.7369 429.726 76.2812 429.834 76.8084C430.255 78.8624 431.439 79.8278 433.544 79.862C434.315 79.874 435.085 79.8825 435.853 79.8603C436.328 79.8466 436.526 80.0195 436.506 80.5039C436.482 81.0927 436.501 81.6918 436.501 82.3901Z" fill="#222964"></path>
<path d="M303.43 35.3626C303.351 35.2308 303.328 35.2086 303.324 35.1829C302.999 32.7712 303.052 32.6907 305.447 32.6206C309.231 32.511 313.015 32.3707 316.8 32.357C318.929 32.3484 321.06 32.5658 323.189 32.6856C323.646 32.7113 323.922 32.8927 323.886 33.4302C323.845 34.0241 323.878 34.6232 323.878 35.3626C322.922 35.3626 322.024 35.3626 321.125 35.3626C318.57 35.3626 317.312 36.5368 317.154 39.1145C317.081 40.3076 317.04 41.5023 317.038 42.697C317.029 53.1329 317.026 63.5706 317.045 74.0065C317.046 74.9941 317.134 75.9988 317.327 76.9676C317.726 78.9634 318.803 79.8072 320.85 79.8551C321.647 79.874 322.447 79.8706 323.244 79.8569C323.65 79.85 323.896 79.9544 323.879 80.4251C323.857 81.0499 323.874 81.6746 323.874 82.3661C317.014 82.3661 310.217 82.3661 303.345 82.3661C303.345 81.589 303.345 80.8085 303.345 79.9185C303.769 79.8996 304.211 79.8706 304.652 79.862C305.108 79.8517 305.565 79.8637 306.022 79.8586C308.341 79.8363 309.553 78.8248 309.934 76.5329C310.051 75.8345 310.109 75.119 310.109 74.4121C310.119 63.2333 310.13 52.0563 310.095 40.8775C310.092 39.7564 309.904 38.6079 309.608 37.5244C309.216 36.09 308.088 35.3712 306.586 35.3643C305.536 35.3592 304.483 35.3626 303.43 35.3626Z" fill="#222964"></path>
<path d="M466.78 102.427C470.4 105.312 474.519 106.911 479.13 107.32C481.316 107.514 483.439 107.377 485.525 106.672C485.755 106.595 486.117 106.607 486.299 106.74C489.732 109.239 493.701 110.305 497.785 111.043C501.493 111.712 505.24 111.973 509.002 111.854C513.363 111.718 517.683 111.238 521.859 109.86C522.157 109.763 522.556 109.704 522.823 109.822C525.447 110.978 528.255 111.27 531.052 111.566C533.049 111.777 535.062 111.856 537.067 111.993C537.064 112.05 537.066 112.103 537.066 112.157C536.175 112.289 535.286 112.464 534.391 112.546C530.6 112.897 526.837 112.689 523.104 111.935C522.781 111.87 522.407 111.853 522.096 111.943C518.281 113.061 514.374 113.573 510.417 113.831C504.767 114.199 499.154 114.004 493.599 112.859C490.975 112.319 488.409 111.56 486.037 110.274C485.323 109.888 484.652 109.811 483.841 109.963C480.306 110.627 476.873 110.079 473.521 108.895C472.457 108.518 471.413 108.084 470.261 107.639C470.53 109.379 471.54 110.451 472.962 111.305C468.245 110.48 465.369 106.045 466.041 101.854C466.311 102.064 466.548 102.242 466.78 102.427ZM556.086 102.914C559.72 102.295 563.393 102.281 567.061 102.745C576.697 103.964 585.751 107.143 594.615 110.949C594.745 111.006 594.871 111.076 594.99 111.151C595.027 111.176 595.041 111.239 595.111 111.365C591.092 111.382 587.114 111.69 583.171 110.99C582.563 110.882 582.046 110.33 581.452 110.062C580.786 109.765 580.095 109.426 579.387 109.344C577.384 109.111 575.367 108.927 573.353 108.854C564.377 108.525 555.475 108.952 546.817 111.668C546.744 111.692 546.655 111.671 546.474 111.671C548.211 110.221 550.164 109.378 552.188 108.693C555.767 107.483 559.477 106.92 563.224 106.565C564.48 106.447 565.736 106.341 566.992 106.231C567.006 106.137 567.02 106.041 567.033 105.947C566.058 105.756 565.089 105.487 564.104 105.385C560.665 105.03 557.28 105.542 553.958 106.329C551.028 107.024 548.178 108.051 545.255 108.775C543.814 109.133 542.285 109.274 540.798 109.275C538.153 109.279 535.491 109.26 532.869 108.964C529.542 108.587 526.247 107.921 522.937 107.394C522.615 107.342 522.255 107.308 521.949 107.394C517.569 108.619 513.107 109.395 508.562 109.33C503.755 109.262 498.954 108.903 494.324 107.423C492.577 106.863 491.011 105.97 489.66 104.662C491.586 105.095 493.445 105.639 495.343 105.913C498.097 106.308 500.875 106.543 503.647 106.784C507.235 107.097 510.816 106.875 514.38 106.436C516.783 106.139 519.162 105.715 521.343 104.551C521.606 104.411 521.998 104.436 522.316 104.482C525.89 104.994 529.453 105.607 533.037 106.029C538.221 106.642 543.301 105.756 548.344 104.655C550.928 104.092 553.483 103.357 556.086 102.914ZM525.062 0C525.463 0.141995 525.922 0.207443 526.245 0.452148C526.478 0.628481 526.556 1.03534 526.657 1.35352C526.775 1.72493 526.845 2.11398 526.927 2.45801C528.347 2.04386 529.685 1.56952 531.06 1.27344C532.431 0.97735 533.838 0.958371 535.177 1.52148C536.097 1.90828 536.77 2.56228 536.896 3.58203C537.004 4.44811 537.505 4.60763 538.208 4.4707C539.914 4.14026 541.169 3.07576 542.321 1.8623C542.414 1.76654 542.501 1.66558 542.59 1.56641C542.675 1.59204 542.759 1.6189 542.845 1.64453C542.723 2.15459 542.639 2.67917 542.47 3.17383C542.244 3.82924 541.742 4.43358 542.297 5.16602C542.365 5.25703 542.283 5.56821 542.174 5.6709C540.183 7.52447 538.008 8.88012 535.108 8.17871C534.55 8.04351 534.118 7.89077 533.968 7.15332C533.809 6.36619 532.976 6.06287 532.271 6.13281C531.244 6.23551 530.19 6.45084 529.24 6.84277C528.172 7.28267 528.159 8.44678 529.051 9.23242C531.057 11.0022 533.078 12.7589 535.029 14.5869C539.863 19.1175 542.518 24.8084 543.771 31.2285C544.534 35.143 544.609 39.0859 544.257 43.0449C544.253 43.091 544.202 43.1325 544.144 43.2178C543.267 42.4185 542.441 41.5687 541.515 40.8447C540.428 39.9975 539.577 39.0816 539.072 37.7227C538.405 35.9324 537.04 34.6714 534.986 34.0176C535.626 36.5969 536.224 39.0205 536.832 41.4424C540.295 55.2398 543.757 69.0373 547.223 82.833C547.957 85.7581 548.711 88.6801 549.423 91.6104C549.563 92.1854 549.801 92.41 550.41 92.3535C554.261 91.9975 558.123 91.7512 561.966 91.3164C569.283 90.4897 576.596 89.6338 583.895 88.6582C590.967 87.7117 598.021 86.6125 605.078 85.5547C607.861 85.137 610.636 84.6602 613.409 84.1826C613.625 84.1448 613.806 83.8962 613.951 83.6602C615.201 83.4394 615.807 83.6842 616.264 84.6494C615.422 84.8308 614.61 84.9951 613.806 85.1816C608.154 86.4859 602.5 87.7848 596.854 89.1113C595.806 89.3578 594.793 89.6577 594.149 90.71C593.935 91.0608 593.287 91.2171 592.806 91.3232C589.141 92.1277 585.468 92.9029 581.797 93.6748C580.642 93.9179 579.806 94.5791 579.137 95.5273C578.99 95.736 578.654 95.9375 578.411 95.9326C575.859 95.8744 573.817 96.859 572.268 98.8701C571.949 99.284 571.638 99.3401 571.107 99.2598C568.583 98.8713 566.053 98.4197 563.51 98.2725C559.053 98.0157 554.747 99.0632 550.465 100.162C545.371 101.468 540.212 102.281 534.936 102.111C530.605 101.973 526.322 101.41 522.095 100.467C521.354 100.302 520.769 100.383 520.104 100.782C518.036 102.018 515.703 102.451 513.361 102.807C509.575 103.382 505.76 103.493 501.948 103.295C498.484 103.113 495.018 102.824 491.677 101.781C490.872 101.53 490.064 101.184 489.367 100.717C488.857 100.375 488.49 100.383 487.981 100.605C485.393 101.733 482.684 102.033 479.887 101.785C479.063 101.712 478.462 101.46 478.32 100.564C478.315 100.537 478.299 100.512 478.292 100.484C477.879 98.7317 477.054 97.4678 475.104 97.0039C474.288 96.8105 473.507 96.0271 472.938 95.3271C472.044 94.2301 471.344 92.9769 470.521 91.7275C471.431 91.0002 472.482 91.0309 473.408 91.084C475.758 91.2192 478.097 91.5629 480.443 91.7871C484.01 92.1277 487.579 92.4563 491.149 92.749C492.962 92.8979 494.783 92.9735 496.601 93.0352C496.866 93.0436 497.302 92.865 497.383 92.6631C498.115 90.8131 499.025 91.0493 500.625 91.0732C503.845 91.1212 507.067 91.1147 510.286 91.125C510.363 91.1247 510.438 91.0624 510.566 91.0078C510.525 90.7393 510.455 90.4692 510.446 90.1973C510.429 89.6325 510.126 89.5022 509.611 89.5039C508.073 89.509 506.53 89.5155 504.995 89.4453C499.484 89.1886 493.967 88.9991 488.466 88.6055C477.929 87.8523 467.467 86.4982 457.12 84.3262C454.868 83.8538 452.629 83.3077 450.234 82.7617C451.359 82.2928 452.35 81.9179 453.309 81.4746C458.348 79.1485 462.44 75.6186 465.93 71.3652C471.409 64.6864 474.78 56.9601 477.06 48.7031C478.586 43.1746 479.504 37.5361 480.091 31.8398C480.103 31.7287 480.131 31.619 480.176 31.3916C486.805 39.4449 494.28 46.4405 502.967 52.2207C503.123 50.4971 502.28 49.4512 501.178 48.4551C498.58 46.1085 496.039 43.6968 493.487 41.2988C488.881 36.9701 484.299 32.6136 479.669 28.3105C478.615 27.3298 478.514 26.1842 478.606 24.6182C486.381 31.7129 493.984 38.6511 501.765 45.751C501.465 44.0823 501.217 42.6374 500.945 41.1963C499.405 33.0627 497.851 24.9321 496.324 16.7969C496.073 15.4567 495.918 14.0972 495.745 12.7451C495.716 12.516 495.773 12.1007 495.889 12.0605C496.147 11.9733 496.572 11.954 496.743 12.1113C497.079 12.4159 497.35 12.8339 497.528 13.2549C497.701 13.6622 497.723 14.1318 497.819 14.6162C498.711 14.2671 499.529 13.8813 500.387 13.6211C502.105 13.1008 503.85 12.9588 505.584 13.5732C506.621 13.9395 507.347 14.6226 507.508 15.7588C507.619 16.5478 508.104 16.7316 508.783 16.6084C510.337 16.3276 511.518 15.4049 512.608 14.3369C512.81 14.1401 512.995 13.9239 513.188 13.7168C513.272 13.7339 513.357 13.7534 513.44 13.7705C513.374 14.1896 513.373 14.6361 513.225 15.0244C512.929 15.798 512.289 16.5 512.927 17.3984C512.98 17.4738 512.876 17.7412 512.77 17.8389C510.787 19.6481 508.628 20.9765 505.767 20.3262C505.166 20.1892 504.753 20.0022 504.536 19.2783C504.406 18.8471 503.701 18.4073 503.189 18.3096C501.964 18.0751 500.766 18.3265 499.651 18.958C499.107 19.266 498.999 19.6273 499.129 20.2158C500.183 24.993 501.205 29.778 502.246 34.5586C504.024 42.728 505.813 50.8975 507.579 59.0703C507.653 59.4109 507.605 59.812 507.508 60.1543C505.06 68.6936 501.654 76.8414 497.462 84.667C497.305 84.9613 497.175 85.273 496.986 85.6699C497.457 85.6699 497.836 85.6751 498.214 85.6699C501.711 85.6152 505.207 85.533 508.704 85.5176C510.037 85.5107 511.373 85.6613 512.708 85.7246C513.327 85.7539 513.59 86.0725 513.698 86.668C513.945 88.0337 514.25 89.3876 514.544 90.8115C516.788 90.6215 518.96 90.4292 521.136 90.2529C523.573 90.0544 526.009 89.7464 528.448 89.7275C529.656 89.7191 530.868 90.2515 532.076 90.5391C532.381 90.611 532.681 90.7331 532.989 90.7588C534.127 90.8548 534.81 91.3699 534.684 92.751C538.49 92.6449 542.201 92.5419 546.033 92.4375C545.857 91.6981 545.753 91.1139 545.566 90.5576C545.506 90.3797 545.226 90.1565 545.046 90.1562C538.826 90.1631 532.985 88.3021 527.13 86.5254C522.931 85.252 518.7 84.1262 514.346 83.5459C510.19 82.9914 506.017 82.8383 501.834 83.2422C501.755 83.249 501.674 83.2276 501.614 83.2207C502.848 80.3674 504.127 77.5445 505.298 74.6758C508.956 65.7051 511.726 56.4845 512.64 46.8018C512.982 43.1816 513.12 39.5252 513.065 35.8896C513.023 33.0057 512.543 30.1286 512.24 27.0752C518.97 35.3971 526.785 42.4062 535.702 48.4551C535.445 47.0893 535.229 46.0263 534.206 45.0918C529.626 40.9017 525.156 36.5901 520.634 32.335C517.669 29.545 514.657 26.8041 511.724 23.9834C510.873 23.1652 510.859 22.0217 511.053 20.625C518.772 27.6478 526.329 34.5238 533.886 41.3994C533.951 41.3652 534.014 41.3291 534.079 41.2949C533.937 40.5898 533.808 39.8814 533.647 39.1797C533.11 36.8501 532.576 34.5204 532.001 32.2012C531.914 31.8504 531.693 31.4581 531.412 31.2441C529.966 30.1471 528.482 29.1009 526.986 28.0176C528.261 27.8396 529.544 27.66 530.934 27.4648C530.386 25.0857 529.878 22.905 529.384 20.7227C527.893 14.1483 526.404 7.57359 524.936 0.994141C524.867 0.687834 525.015 0.333647 525.062 0ZM539.95 42.165C545.658 47.1219 550.314 52.9327 553.4 59.834C556.148 65.9788 558.542 72.2847 561.039 78.5391C561.455 79.5796 561.674 80.4081 563.163 80.3262C565.138 80.2183 567.14 80.4455 569.122 80.6133C572.009 80.8563 574.89 81.1643 577.771 81.4775C578.087 81.5118 578.438 81.6886 578.68 81.9043C580.419 83.4567 582.132 85.0382 583.854 86.6094C583.812 86.6863 583.772 86.7639 583.732 86.8408C580.128 87.255 576.506 87.5624 572.922 88.1152C569.891 88.5825 566.92 87.9054 563.92 87.9619C559.629 88.0424 555.395 88.393 551.388 90.1113C551.318 90.1421 551.221 90.1152 550.956 90.1152C550.956 89.2817 550.999 88.4442 550.949 87.6123C550.403 78.4791 548.579 69.5838 545.926 60.8477C544.087 54.7936 541.747 48.9449 538.743 43.3633C538.312 42.5605 538.168 41.6034 537.893 40.7168C537.961 40.674 538.028 40.6326 538.097 40.5898C538.715 41.1153 539.337 41.6344 539.95 42.165ZM536.821 53.1924C536.743 53.4868 536.652 53.7801 536.585 54.0762C535.645 58.1961 535.805 62.3301 536.512 66.4551C537.623 72.9335 539.875 79.0233 542.936 84.8223C543.56 86.0067 544.289 87.1364 544.971 88.29C545.039 88.2559 545.108 88.2217 545.178 88.1875C542.446 76.5176 539.714 64.8474 536.984 53.1758C536.93 53.1809 536.874 53.1873 536.821 53.1924ZM546.292 37.9678C567.905 52.5886 588.844 67.9526 610.135 83.2119C607.894 83.5388 605.89 84.0317 603.879 84.0557C602.566 84.0711 601.253 83.3743 599.927 83.0508C592.209 81.1645 584.396 79.7939 576.511 78.8525C572.533 78.3784 568.534 78.0635 564.543 77.7178C564.014 77.6715 563.89 77.3921 563.751 77.002C561.817 71.5812 559.583 66.28 556.872 61.2119C553.933 55.7177 550.869 50.2799 547.602 44.9756C546.231 42.7539 546.09 40.5592 546.292 37.9678ZM533.073 26.3887C534.21 25.295 534.621 24.096 534.68 22.7559C534.767 20.7672 534.126 18.9444 533.294 17.1885C532.238 14.9583 530.906 12.8959 529.233 11.0303C530.498 16.0881 531.762 21.1443 533.073 26.3887Z" fill="url(#paint0_linear_12_1762)"></path>
<path d="M283.741 104.024C285.281 106.369 286.808 108.691 288.448 111.185C287.034 111.185 285.824 111.221 284.621 111.154C284.378 111.141 284.112 110.768 283.934 110.507C282.88 108.957 281.829 107.401 280.816 105.823C280.242 104.929 279.467 104.585 278.431 104.677C277.867 104.727 277.293 104.686 276.612 104.686C276.612 106.959 276.612 109.193 276.612 111.478C275.491 111.478 274.483 111.478 273.425 111.478C273.425 105.985 273.425 100.523 273.425 95.0751C273.495 95.0289 273.54 94.9707 273.584 94.9707C276.658 95.0067 279.737 94.9638 282.808 95.1145C285.213 95.2326 286.308 96.8792 286.64 98.8271C287.041 101.172 286.12 102.851 284.107 103.827C283.958 103.899 283.813 103.984 283.741 104.024ZM276.449 101.749C278.265 101.648 280.023 101.62 281.762 101.427C282.83 101.309 283.436 100.532 283.409 99.6863C283.38 98.7568 282.729 97.9558 281.673 97.8976C279.951 97.8018 278.219 97.872 276.448 97.872C276.449 99.1317 276.449 100.32 276.449 101.749Z" fill="#222964"></path>
<path d="M396.971 97.8206C396.971 98.8938 396.967 99.8283 396.972 100.763C396.976 101.347 397.419 101.251 397.773 101.251C399.968 101.258 402.164 101.283 404.356 101.239C405.123 101.223 405.443 101.424 405.364 102.23C405.299 102.899 405.351 103.579 405.351 104.345C402.516 104.345 399.795 104.345 397.024 104.345C397.024 105.706 397.024 106.973 397.024 108.334C400.087 108.334 403.093 108.334 406.152 108.334C406.152 109.357 406.152 110.286 406.152 111.288C402.034 111.288 397.922 111.288 393.758 111.288C393.758 105.828 393.758 100.373 393.758 94.8629C397.811 94.8629 401.84 94.8629 405.922 94.8629C405.922 95.8385 405.922 96.7902 405.922 97.8206C402.965 97.8206 400.041 97.8206 396.971 97.8206Z" fill="#222964"></path>
<path d="M39.3936 94.856C43.433 94.856 47.4143 94.856 51.4761 94.856C51.4761 95.8145 51.4761 96.7645 51.4761 97.8137C48.5577 97.8137 45.6359 97.8137 42.656 97.8137C42.656 98.9794 42.656 100.047 42.656 101.218C45.386 101.218 48.111 101.218 50.9095 101.218C50.9095 102.291 50.9095 103.267 50.9095 104.325C48.1743 104.325 45.4494 104.325 42.6611 104.325C42.6611 105.672 42.6611 106.937 42.6611 108.287C45.6684 108.287 48.6792 108.287 51.7636 108.287C51.7636 109.318 51.7636 110.269 51.7636 111.291C47.6813 111.291 43.5683 111.291 39.3953 111.291C39.3935 105.814 39.3936 100.357 39.3936 94.856Z" fill="#222964"></path>
<path d="M253.231 104.333C250.481 104.333 247.756 104.333 244.971 104.333C244.971 105.68 244.971 106.945 244.971 108.294C247.994 108.294 251.003 108.294 254.084 108.294C254.084 109.325 254.084 110.276 254.084 111.295C249.986 111.295 245.873 111.295 241.705 111.295C241.705 105.823 241.705 100.386 241.705 94.88C245.717 94.88 249.721 94.88 253.798 94.88C253.798 95.8231 253.798 96.7731 253.798 97.8223C250.864 97.8223 247.942 97.8223 244.967 97.8223C244.967 98.9879 244.967 100.056 244.967 101.223C247.713 101.223 250.44 101.223 253.233 101.223C253.231 102.297 253.231 103.274 253.231 104.333Z" fill="#222964"></path>
<path d="M437.397 100.866C436.364 100.126 435.282 99.4415 434.308 98.6302C433.337 97.8206 430.506 97.343 429.428 98.05C429.01 98.3221 428.557 98.9434 428.584 99.3748C428.612 99.8095 429.14 100.412 429.585 100.58C430.83 101.05 432.141 101.343 433.432 101.687C434.767 102.045 436.006 102.54 436.98 103.599C438.419 105.167 438.62 107.37 437.415 109.14C434.859 112.89 427.822 112.662 425.579 108.746C424.932 107.615 424.629 106.399 424.887 104.958C426.039 105.78 427.379 106.06 428.269 107.235C429.428 108.767 432.278 109.171 433.916 108.186C434.448 107.866 434.957 107.466 434.897 106.709C434.839 105.975 434.453 105.455 433.788 105.227C432.795 104.888 431.768 104.648 430.761 104.345C429.757 104.042 428.726 103.791 427.766 103.38C424.31 101.899 424.978 97.3276 427.044 95.847C429.212 94.2912 433.38 94.2141 435.542 95.7905C437.19 96.9921 437.745 98.6832 437.63 100.645C437.551 100.717 437.474 100.79 437.397 100.866Z" fill="#222964"></path>
<path d="M209.409 104.741C210.582 105.641 211.939 105.894 212.819 107.098C213.914 108.597 216.855 108.989 218.474 108.048C219.022 107.729 219.506 107.33 219.462 106.579C219.416 105.8 218.989 105.273 218.301 105.042C217.279 104.698 216.218 104.481 215.186 104.167C214.21 103.871 213.236 103.558 212.29 103.187C209.105 101.935 209.514 97.6186 211.277 96.008C213.538 93.9437 218.495 93.9711 220.677 96.1329C221.891 97.3345 222.329 98.81 222.149 100.795C220.978 99.991 219.866 99.3868 218.955 98.56C217.942 97.6409 214.914 97.1582 213.808 98.0208C213.454 98.2981 213.082 98.8972 213.147 99.2755C213.223 99.712 213.699 100.258 214.128 100.422C215.29 100.867 216.535 101.097 217.721 101.487C218.739 101.822 219.795 102.141 220.71 102.68C223.084 104.08 223.371 107.402 221.6 109.506C219.01 112.582 212.757 112.017 210.806 109.521C209.734 108.154 209.206 106.668 209.409 104.741Z" fill="#222964"></path>
<path d="M19.6102 111.315C18.578 111.315 17.5904 111.315 16.4932 111.315C16.4932 108.946 16.4932 106.569 16.4932 104.061C15.3721 104.061 14.3537 104.061 13.337 104.061C12.4247 104.061 11.5106 104.095 10.6001 104.051C9.94792 104.018 9.76991 104.277 9.78018 104.897C9.81099 106.721 9.79045 108.546 9.79045 110.37C9.79045 110.653 9.79045 110.935 9.79045 111.29C8.69328 111.29 7.65773 111.29 6.54688 111.29C6.54688 105.843 6.54688 100.388 6.54688 94.8714C7.58584 94.8714 8.6231 94.8714 9.79045 94.8714C9.79045 96.3897 9.77846 97.889 9.79386 99.3884C9.81269 101.338 9.52172 101.062 11.449 101.08C13.07 101.093 14.6909 101.083 16.4231 101.083C16.4231 98.976 16.4231 96.9442 16.4231 94.8629C17.5442 94.8629 18.5524 94.8629 19.6084 94.8629C19.6102 100.356 19.6102 105.812 19.6102 111.315Z" fill="#222964"></path>
<path d="M161.09 94.856C162.101 94.856 163.057 94.856 164.095 94.856C164.095 96.8963 164.095 98.9092 164.095 101.001C166.35 101.001 168.525 101.001 170.812 101.001C170.812 98.976 170.812 96.9442 170.812 94.8629C171.937 94.8629 172.946 94.8629 174.033 94.8629C174.033 100.33 174.033 105.785 174.033 111.3C173.013 111.3 172 111.3 170.877 111.3C170.877 108.941 170.877 106.564 170.877 104.125C168.59 104.125 166.413 104.125 164.154 104.125C164.154 106.516 164.154 108.869 164.154 111.291C163.099 111.291 162.124 111.291 161.09 111.291C161.09 105.812 161.09 100.357 161.09 94.856Z" fill="#222964"></path>
<path d="M371.379 101.093C370.96 98.94 369.815 97.7744 368.072 97.67C365.989 97.5433 364.454 98.6045 363.812 100.629C363.174 102.646 363.324 104.63 364.228 106.521C364.969 108.07 366.78 108.886 368.541 108.59C370.111 108.325 371.348 106.952 371.576 105.229C371.586 105.146 371.624 105.069 371.662 104.948C372.379 105.148 373.076 105.401 373.793 105.526C374.537 105.656 374.657 106.088 374.493 106.685C373.863 108.986 372.589 110.733 370.251 111.555C367.324 112.584 363.718 111.714 361.845 109.374C360.339 107.491 359.904 105.213 359.999 102.858C360.113 99.9926 361.185 97.5587 363.713 96.0302C366.883 94.1132 372.011 94.3613 374.221 98.9177C374.803 100.119 374.695 100.344 373.433 100.633C372.773 100.783 372.107 100.931 371.379 101.093Z" fill="#222964"></path>
<path d="M69.1064 111.36C69.9503 109.123 70.7428 106.998 71.549 104.878C72.6718 101.927 73.8049 98.9794 74.9295 96.0285C75.419 94.743 75.5285 94.6643 76.8311 94.7242C78.4075 94.7978 78.4092 94.7961 79.0254 96.3126C80.9408 101.03 82.8561 105.749 84.768 110.468C84.8724 110.725 84.9494 110.993 85.0727 111.356C83.9447 111.356 82.8989 111.382 81.8565 111.332C81.6682 111.324 81.4132 111.031 81.3276 110.815C80.8672 109.653 80.4119 108.486 80.0387 107.293C79.8641 106.735 79.568 106.608 79.046 106.618C77.7058 106.644 76.3638 106.653 75.0236 106.613C74.4742 106.598 74.1952 106.79 74.024 107.298C73.644 108.431 73.2076 109.545 72.8293 110.678C72.6615 111.178 72.4116 111.406 71.8485 111.372C70.9807 111.322 70.1043 111.36 69.1064 111.36ZM78.5119 103.769C77.9351 102.264 77.4114 100.902 76.8157 99.3473C76.2183 100.955 75.7117 102.315 75.1708 103.769C76.3125 103.769 77.3172 103.769 78.5119 103.769Z" fill="#222964"></path>
<path d="M319.511 94.8115C318.78 96.708 318.101 98.483 317.413 100.255C316.066 103.729 314.701 107.197 313.378 110.68C313.185 111.19 312.944 111.373 312.398 111.375C310.236 111.375 310.229 111.397 309.438 109.367C307.632 104.73 305.833 100.09 304.033 95.4499C303.964 95.2719 303.915 95.0854 303.829 94.8149C304.894 94.8149 305.887 94.7756 306.871 94.8458C307.092 94.8612 307.377 95.2309 307.475 95.4962C308.666 98.7534 309.825 102.023 310.999 105.285C311.177 105.781 311.395 106.262 311.687 106.976C312.625 104.44 313.476 102.141 314.327 99.8438C314.881 98.3512 315.458 96.8672 315.984 95.3644C316.132 94.9399 316.329 94.7876 316.773 94.8047C317.627 94.8338 318.481 94.8115 319.511 94.8115Z" fill="#222964"></path>
<path d="M137.493 111.314C136.406 111.314 135.449 111.314 134.357 111.314C134.357 106.851 134.357 102.398 134.357 97.8462C132.646 97.8462 131.064 97.8462 129.428 97.8462C129.428 96.7987 129.428 95.8488 129.428 94.856C133.808 94.856 138.131 94.856 142.536 94.856C142.536 95.8128 142.536 96.7611 142.536 97.8086C140.904 97.8086 139.263 97.8086 137.495 97.8086C137.493 102.358 137.493 106.814 137.493 111.314Z" fill="#222964"></path>
<path d="M102.723 94.8594C103.731 94.8594 104.689 94.8594 105.78 94.8594C105.78 99.3114 105.78 103.762 105.78 108.311C108.344 108.311 110.778 108.311 113.278 108.311C113.278 109.359 113.278 110.307 113.278 111.308C109.758 111.308 106.269 111.308 102.724 111.308C102.723 105.814 102.723 100.361 102.723 94.8594Z" fill="#222964"></path>
<path d="M340.902 94.8714C340.902 100.376 340.902 105.809 340.902 111.302C339.863 111.302 338.857 111.302 337.792 111.302C337.792 105.838 337.792 100.385 337.792 94.8714C338.805 94.8714 339.812 94.8714 340.902 94.8714Z" fill="#222964"></path>
<defs>
<linearGradient id="paint0_linear_12_1762" x1="450.234" y1="56.9999" x2="616.264" y2="56.9999" gradientUnits="userSpaceOnUse">
<stop stop-color="#1F2463"></stop>
<stop offset="1" stop-color="#015F53"></stop>
</linearGradient>
</defs>
</svg>