<svg width="142" height="40" viewBox="0 0 142 40" fill="none" xmlns="http://www.w3.org/2000/svg">
<g clip-path="url(#clip0_16_7305)">
<path d="M138.632 13.0825C137.929 10.1646 134.579 9.24638 131.932 8.48986C130.852 8.21986 127.502 7.89552 128.69 6.11248C129.339 5.40988 130.581 5.57248 131.5 5.68031C132.742 5.84205 133.877 6.22031 134.957 6.86857C135.228 7.03074 135.498 7.13857 135.768 7.30074C135.822 7.35466 135.876 7.35466 135.929 7.409H135.983L138.577 3.19467C138.523 3.14075 138.469 3.14075 138.415 3.08641C137.01 2.05989 135.065 1.41163 133.336 1.14163C129.716 0.49337 124.908 1.08772 123.395 4.92379C122.8 6.54465 122.855 8.43595 123.611 9.94855C124.638 12.0559 127.393 12.7581 129.446 13.2981C129.446 13.2981 129.5 13.352 129.554 13.352C130.257 13.5138 130.959 13.6764 131.607 13.8385C132.148 14.0003 132.742 14.2164 133.174 14.7029C133.444 14.919 133.444 15.3511 133.336 15.7294C133.174 16.0538 132.85 16.2155 132.526 16.3238C130.256 16.9181 127.771 16.0538 125.826 14.9729C125.718 14.919 125.447 14.8111 125.286 14.7029C125.177 14.649 125.123 14.5946 125.069 14.5946L122.422 18.809C122.476 18.8629 122.584 18.9168 122.692 18.9707C122.908 19.1329 123.07 19.1872 123.124 19.2411C123.502 19.4572 123.935 19.619 124.259 19.7811L124.313 19.8351C125.826 20.4833 127.339 20.8616 129.013 21.0777C130.688 21.2937 132.471 21.2398 134.092 20.8077C135.605 20.4294 137.063 19.5651 137.928 18.2681C138.306 17.6738 138.522 17.0798 138.684 16.3772C138.901 15.2425 138.901 14.162 138.63 13.0816L138.632 13.0825Z" fill="#F5E1CB"/>
<path d="M30.4413 1.22421H24.8826V20.9523H30.4413V1.22421Z" fill="#F5E1CB"/>
<path d="M105.404 13.1368C106.755 12.3803 107.782 11.1916 108.268 9.73287C108.538 9.08461 108.7 8.32809 108.7 7.62549C108.7 6.86897 108.592 6.16679 108.376 5.57245C108.322 5.41028 108.322 5.24811 108.267 5.14028C108.213 4.97853 108.16 4.81593 108.106 4.7081C107.997 4.43767 107.889 4.16767 107.727 3.89767C107.457 3.4655 107.079 3.03332 106.647 2.65507C106.215 2.27681 105.729 2.00681 105.242 1.73638C104.81 1.57463 104.432 1.41203 104 1.3042C103.567 1.19595 103.135 1.25029 102.703 1.25029H92.2756V20.9364H97.6243V14.1089H99.9474L102.163 18.7554L103.207 20.9339H109.914L105.404 13.1363V13.1368ZM101.406 9.73287H97.6243V5.57245H101.785C102.757 5.84245 103.243 6.38288 103.297 7.62549C103.351 8.76026 102.757 9.40852 101.406 9.73287Z" fill="#F5E1CB"/>
<path d="M87.9112 5.9118V1.22421H78.3144H72.765H72.7556V20.9369H87.9112V16.2878H78.3144V12.9404H84.0422V8.84287H78.3144V5.9118H87.9112Z" fill="#F5E1CB"/>
<path d="M41.4501 15.9981V1.22421H35.8909V20.8941V20.9369H50.1209V15.9981H41.4501Z" fill="#F5E1CB"/>
<path d="M59.5707 15.9981V1.22421H54.0115V20.9369H68.242V15.9981H59.5707Z" fill="#F5E1CB"/>
<path d="M19.8778 1.25029V20.921H14.7991V10.9164L10.0447 20.9523L5.29041 11.0837V20.921H0.212158V1.25029H5.56084L10.0987 12.3803L14.5834 1.25029H19.8778Z" fill="#F5E1CB"/>
<path d="M7.77567 27.3056H4.04785L1.40047 34.8019L0.536121 37.1793L-0.382568 39.7184H2.37307L3.29133 37.1789H8.47827L9.39653 39.7184H12.1522L7.77609 27.3056H7.77567ZM4.15611 34.8015L5.88523 29.9933L7.61435 34.8015H4.15654H4.15611Z" fill="#F5E1CB"/>
<path d="M105.292 27.2919V35.6179C105.085 37.9375 103.951 38.9683 102.972 39.4326C102.179 40 100.411 40 100.411 40C99.4838 40 98.3841 39.8451 97.6109 39.4326C96.6314 38.9683 95.4971 37.938 95.2913 35.6179V27.2919H98.1505V34.8417C98.1505 36.6457 99.0542 37.3838 100.292 37.3838C101.529 37.3838 102.486 36.6457 102.486 34.8417V27.2919H105.292H105.292Z" fill="#F5E1CB"/>
<path d="M42.2477 29.4331V27.3056H34.0847V27.5303V29.4331V32.5726V34.7005V37.5212V39.6491V39.7428H37.0714H42.2477V37.5212H37.0714V34.7005H40.6071V32.5726H37.0714V29.4331H42.2477Z" fill="#F5E1CB"/>
<path d="M21.6629 37.5011V27.3056H18.6989V36.7788H18.6946V39.7428H26.9675V37.5011H21.6629Z" fill="#F5E1CB"/>
<path d="M62.9125 35.0715H67.1713V39.7428H70.1354V27.3056H67.1713V32.1071H62.9125V27.3056H59.9485V32.1071V35.0715V39.7428H62.9125V35.0715Z" fill="#F5E1CB"/>
<path d="M82.9288 27.2919C79.4714 27.2919 77.5801 30.1011 77.5801 33.6132C77.5801 37.1254 79.5792 39.8267 82.9288 39.8267C86.0627 39.8267 88.2779 37.071 88.2779 33.6132C88.2779 30.1554 86.1705 27.2919 82.9288 27.2919ZM82.9288 37.3954C80.9296 37.3954 79.9575 35.6663 79.9575 33.6132C79.9575 31.5602 80.8757 29.7772 82.9288 29.7772C84.874 29.7772 85.7922 31.5602 85.7922 33.6132C85.7922 35.6663 84.8196 37.3954 82.9288 37.3954Z" fill="#F5E1CB"/>
<path d="M51.2147 31.7113L51.8762 32.9124L53.2228 33.17L52.2853 34.1704L52.456 35.5307L51.2147 34.9479L49.9738 35.5307L50.1445 34.1704L49.207 33.17L50.5536 32.9124L51.2147 31.7113Z" fill="#F5E1CB"/>
<path d="M115.864 -1.52588e-05L116.909 1.89599L119.034 2.30334L117.554 3.8827L117.823 6.03073L115.864 5.11076L113.904 6.03073L114.174 3.8827L112.693 2.30334L114.82 1.89599L115.864 -1.52588e-05Z" fill="#F5E1CB"/>
<path d="M122.322 35.9055C122.324 35.9388 122.324 35.9722 122.325 36.0056C122.34 36.7112 122.18 37.4288 121.809 38.0291C121.225 38.9722 120.175 39.5447 119.098 39.8109C116.829 40.3718 114.289 39.6607 112.642 38.0034C113.265 37.4219 113.888 36.84 114.512 36.2585C115.551 37.3693 117.25 37.8109 118.699 37.3479C119.327 37.1472 119.919 36.6299 119.586 35.9174C119.421 35.5623 119.082 35.3171 118.728 35.1494C117.783 34.7027 116.757 34.5148 115.768 34.193C114.805 33.8794 113.84 33.3826 113.31 32.52C112.759 31.6218 112.763 30.4331 113.129 29.4665C113.478 28.5431 114.362 27.9133 115.252 27.5667C117.453 26.7087 120.133 27.2522 121.826 28.9C121.265 29.5016 120.704 30.1032 120.143 30.7048C119.264 29.8679 117.997 29.4558 116.793 29.6154C116.239 29.689 115.608 29.9843 115.544 30.5392C115.506 30.8704 115.696 31.1956 115.956 31.404C116.216 31.6124 116.539 31.7245 116.856 31.8259C117.879 32.1528 118.928 32.4096 119.916 32.8293C120.645 33.1391 121.361 33.5589 121.805 34.2149C122.139 34.7091 122.295 35.3081 122.321 35.905L122.322 35.9055Z" fill="#F5E1CB"/>
<path d="M137.747 29.4331V27.3056H129.584V27.5303V29.4331V32.5726V34.7005V37.5212V39.6491V39.7428H132.57H137.747V37.5212H132.57V34.7005H136.106V32.5726H132.57V29.4331H137.747Z" fill="#F5E1CB"/>
<path d="M140.243 27.2855C140.287 27.2329 140.309 27.1657 140.309 27.0836C140.309 27.0339 140.3 26.9864 140.282 26.9415C140.263 26.8961 140.237 26.8568 140.203 26.8225C140.169 26.7887 140.127 26.7614 140.078 26.7412C140.028 26.7207 139.974 26.71 139.914 26.71H139.429V27.8987H139.695V27.4387H139.822L140.038 27.8987H140.341L140.09 27.3985C140.148 27.3758 140.199 27.3382 140.243 27.2855H140.243ZM139.999 27.1914C139.969 27.2222 139.929 27.2376 139.88 27.2376H139.694V26.9291H139.88C139.929 26.9291 139.969 26.9441 139.999 26.9753C140.029 27.0065 140.044 27.0421 140.044 27.0836C140.044 27.1251 140.029 27.1606 139.999 27.1918V27.1914Z" fill="#F5E1CB"/>
<path d="M140.627 26.5153C140.526 26.4144 140.408 26.3348 140.272 26.2757C140.136 26.2171 139.991 26.188 139.837 26.188C139.683 26.188 139.537 26.2171 139.402 26.2757C139.266 26.3348 139.148 26.4144 139.047 26.5153C138.946 26.6163 138.866 26.7344 138.807 26.8705C138.749 27.0061 138.72 27.1512 138.72 27.3057C138.72 27.4601 138.749 27.6052 138.807 27.7408C138.866 27.8765 138.946 27.995 139.047 28.096C139.148 28.197 139.266 28.2766 139.402 28.3352C139.537 28.3938 139.683 28.4229 139.837 28.4229C139.991 28.4229 140.136 28.3938 140.272 28.3352C140.408 28.2766 140.526 28.197 140.627 28.096C140.728 27.995 140.808 27.8765 140.866 27.7408C140.925 27.6052 140.954 27.4597 140.954 27.3057C140.954 27.1516 140.925 27.0061 140.866 26.8705C140.808 26.7344 140.728 26.6163 140.627 26.5153ZM140.624 27.6497C140.581 27.7558 140.521 27.8474 140.444 27.9248C140.367 28.0018 140.276 28.0626 140.172 28.1071C140.068 28.1512 139.956 28.1734 139.837 28.1734C139.717 28.1734 139.603 28.1512 139.5 28.1071C139.397 28.0626 139.307 28.0018 139.229 27.9248C139.152 27.8478 139.092 27.7558 139.049 27.6497C139.006 27.544 138.984 27.4289 138.984 27.3057C138.984 27.1824 139.006 27.0673 139.049 26.9612C139.092 26.8551 139.152 26.7635 139.229 26.6861C139.306 26.609 139.397 26.5483 139.5 26.5042C139.603 26.4597 139.715 26.4379 139.837 26.4379C139.958 26.4379 140.068 26.4597 140.172 26.5042C140.276 26.5483 140.366 26.609 140.444 26.6861C140.521 26.7631 140.581 26.8551 140.624 26.9612C140.668 27.0673 140.689 27.182 140.689 27.3057C140.689 27.4293 140.668 27.544 140.624 27.6497Z" fill="#F5E1CB"/>
</g>
<defs>
<clipPath id="clip0_16_7305">
<rect width="142" height="40" fill="white"/>
</clipPath>
</defs>
</svg>