<svg xmlns="http://www.w3.org/2000/svg" width="119" height="24" fill="none"><mask id="a" width="30" height="24" x="0" y="0" maskUnits="userSpaceOnUse" style="mask-type:alpha"><path fill="#fff" d="M.5.363h28.699V23.65H.5z"/></mask><g mask="url(#a)"><path fill="#C33D32" fill-rule="evenodd" d="M26.336 12.087c-.771 0-1.718.204-2.63.57-.978.392-1.849.942-2.39 1.51-.453.476-.542.823-.492.94s.367.301 1.034.328c.797.03 1.817-.175 2.794-.567s1.848-.942 2.389-1.51c.453-.475.542-.823.492-.94-.052-.118-.369-.302-1.034-.328zM14.642 1.964a12.8 12.8 0 00-4.768.923c-6.392 2.562-9.42 9.719-6.75 15.954l.402.942c.679-.757 1.738-1.466 3.074-2.001 1.336-.536 2.603-.76 3.635-.689l-.424-.991c-1.122-2.622.155-5.632 2.847-6.711s5.795.176 6.916 2.797l.429 1.001.098-.105c.708-.744 1.763-1.42 2.972-1.905 1.208-.484 2.449-.73 3.493-.687q.075.003.146.008l-.407-.95c-1.293-3.023-3.715-5.38-6.82-6.637a12.9 12.9 0 00-4.843-.95zM4.352 21.71c.136.32 1.648.634 3.827-.24.977-.39 1.848-.941 2.39-1.51.452-.475.542-.822.492-.94-.137-.32-1.649-.634-3.828.24-2.178.872-3.018 2.127-2.882 2.45zm1.205 1.94c-1.344 0-2.358-.454-2.733-1.328l-1.228-2.87C-1.422 12.403 2.008 4.31 9.24 1.41a14.5 14.5 0 0110.882.028c3.51 1.422 6.248 4.085 7.71 7.499l1.226 2.866q0 .002.002.003c.197.462.355 1.418-.805 2.636-.708.743-1.763 1.42-2.972 1.904-1.208.484-2.45.729-3.493.687-1.267-.05-2.153-.517-2.494-1.314l-.001-.003-1.248-2.915c-.774-1.807-2.908-2.674-4.758-1.933-1.85.742-2.725 2.815-1.952 4.621l1.248 2.916q0 .003.002.003c.197.462.355 1.418-.804 2.636-.708.744-1.764 1.42-2.972 1.904-1.177.472-2.3.702-3.255.702z" clip-rule="evenodd"/></g><mask id="b" width="5" height="5" x="77" y="19" maskUnits="userSpaceOnUse" style="mask-type:alpha"><path fill="#fff" d="M77.337 19.516h4.102v4.404h-4.102z"/></mask><g mask="url(#b)"><path fill="#C33D32" fill-rule="evenodd" d="M79.627 22.883l-.986-.835c-.191.118-.306.279-.306.458 0 .315.287.537.739.537.178 0 .374-.05.553-.16m.68.574c-.362.26-.814.383-1.272.383-1.005 0-1.698-.513-1.698-1.297 0-.464.28-.822.718-1.057-.203-.26-.299-.519-.299-.815 0-.686.599-1.155 1.412-1.155.866 0 1.317.5 1.42 1.173l-.942.161c-.032-.402-.204-.544-.478-.544-.248 0-.432.136-.432.39 0 .222.115.395.477.71l.904.76a1.6 1.6 0 00.038-.358v-.279h.922v.279c0 .389-.076.716-.21.994l.572.482-.591.636-.54-.463z" clip-rule="evenodd"/></g><path fill="#C33D32" fill-rule="evenodd" d="M88.18 22.184c-.2 1.045-1.065 1.655-2.168 1.655-1.275 0-2.28-.951-2.28-2.178 0-1.22 1.005-2.179 2.28-2.179 1.058 0 1.956.61 2.16 1.6l-1.037.237c-.135-.604-.57-.897-1.123-.897-.678 0-1.223.53-1.223 1.24 0 .709.545 1.244 1.224 1.244.545 0 .98-.299 1.128-.921l1.038.199zm4.225-.517c0-.716-.532-1.245-1.23-1.245-.7 0-1.231.53-1.231 1.245 0 .71.532 1.232 1.23 1.232a1.2 1.2 0 001.23-1.232zm1.057 0c0 1.214-1.006 2.172-2.287 2.172-1.283 0-2.288-.958-2.288-2.172 0-1.22 1.005-2.185 2.288-2.185 1.281 0 2.287.966 2.287 2.185m5.808 2.079h-1.025v-2.221l-1.205 2.221h-.487l-1.211-2.234v2.234h-1.026v-4.17h1.039l1.442 2.646 1.442-2.646h1.031zm3.044-2.135c.41 0 .659-.23.659-.584 0-.337-.249-.573-.659-.573h-.936v1.157zm.121-2.035c.968 0 1.577.58 1.577 1.438 0 .878-.628 1.456-1.622 1.456h-1.012v1.276h-1.058v-4.17zm3.762 1.158l-.545 1.37h1.096zm1.205 3.012l-.302-.759h-1.807l-.301.76h-1.135l1.795-4.17h1.083l1.795 4.17h-1.128zm5.877 0h-.872l-2.173-2.415v2.415h-1.057v-4.17h.878l2.172 2.49v-2.49h1.052z" clip-rule="evenodd"/><mask id="c" width="6" height="5" x="113" y="19" maskUnits="userSpaceOnUse" style="mask-type:alpha"><path fill="#fff" d="M113.959 19.576h4.435v4.17h-4.435z"/></mask><g mask="url(#c)"><path fill="#C33D32" fill-rule="evenodd" d="M116.696 23.746h-1.077v-1.295l-1.66-2.875h1.154l1.058 1.83 1.044-1.83h1.179l-1.698 2.863z" clip-rule="evenodd"/></g><path fill="#C33D32" fill-rule="evenodd" d="M54.587 14.29c1.899 0 3.496-1.438 3.496-3.575 0-2.114-1.597-3.576-3.496-3.576-1.922 0-3.52 1.462-3.52 3.576 0 2.137 1.598 3.576 3.52 3.576zm-.023-9.58c3.612 0 6.507 2.497 6.507 6.005 0 3.53-2.895 6.005-6.484 6.005-3.612 0-6.507-2.474-6.507-6.005 0-3.508 2.895-6.004 6.484-6.004zm14.644 9.58c1.899 0 3.496-1.438 3.496-3.575 0-2.114-1.597-3.576-3.496-3.576-1.922 0-3.52 1.462-3.52 3.576 0 2.137 1.598 3.576 3.52 3.576zm-.023-9.58c3.612 0 6.507 2.497 6.507 6.005 0 3.53-2.895 6.005-6.484 6.005-3.612 0-6.507-2.474-6.507-6.005 0-3.508 2.895-6.004 6.484-6.004zm14.042 9.603c1.528 0 2.964-1.08 2.964-3.62 0-1.777-.972-3.531-2.94-3.531-1.622 0-2.965 1.282-2.965 3.553 0 2.181 1.204 3.598 2.941 3.598m-.556-9.603c2.594 0 3.404 1.462 3.404 1.462h.046S86.1 5.88 86.1 5.52V.482h2.94V16.45h-2.78v-.945c0-.427.047-.742.047-.742h-.047s-.995 1.957-3.704 1.957c-3.196 0-5.234-2.452-5.234-6.005 0-3.643 2.223-6.005 5.35-6.005zM91.224.482h2.918v12.12c0 1.26.44 1.575 1.203 1.575.232 0 .44-.023.44-.023v2.497s-.44.067-.926.067c-1.62 0-3.635-.404-3.635-3.688zM46.86 14.178c-.765 0-1.205-.315-1.205-1.575l-.002-1.942V9.066c0-3.036-1.482-4.363-4.098-4.363-2.386 0-3.682 1.417-4.192 2.384h-.046s.046-.36.046-.787V4.973h-2.825v11.47h2.941V11.18c0-.54.046-1.057.208-1.53.44-1.371 1.598-2.338 3.173-2.338 1.505 0 1.875.944 1.875 2.339l.003 2.433v.947c0 3.283 2.014 3.688 3.635 3.688.486 0 .926-.067.926-.067v-2.497s-.208.023-.44.023zm58.026-4.879c-.046-1.552-1.042-2.384-2.339-2.384-1.505 0-2.547.9-2.825 2.384zm-2.27-4.588c3.405 0 5.234 2.406 5.234 5.442 0 .338-.07 1.102-.07 1.102h-8.15c.184 2.001 1.782 3.036 3.542 3.036 1.899 0 3.404-1.26 3.404-1.26l1.135 2.047s-1.806 1.642-4.747 1.642c-3.913 0-6.345-2.744-6.345-6.005 0-3.53 2.478-6.004 5.997-6.004m8.013 8.321s1.296 1.259 3.219 1.259c.833 0 1.551-.36 1.551-1.035 0-1.709-5.743-1.484-5.743-5.172 0-2.136 1.968-3.373 4.516-3.373 2.663 0 3.96 1.304 3.96 1.304l-1.089 2.114s-1.088-.99-2.894-.99c-.764 0-1.506.315-1.506 1.035 0 1.62 5.743 1.417 5.743 5.105 0 1.912-1.713 3.441-4.515 3.441-2.941 0-4.585-1.687-4.585-1.687z" clip-rule="evenodd"/></svg>