<svg xmlns="http://www.w3.org/2000/svg" viewBox="0 0 244.8 100.8"><path d="M93.4 46.9H65.2c-.1-.1-.2-.1-.2-.2l-.1-.1s-.1 0-.1-.1l-.3-.2c-1.2-.5-4-1.4-11.8-2.5 0-.3.1-.6.1-.8v-.4c1.5.3 3.1.5 4.7.5C68.8 43.3 77 35 77 23.9c0-11.2-8.2-19.4-19.8-19.4s-19.8 8.2-19.8 19.4c0 5.1 1.7 9.6 4.7 13-.5-.2-2.9-1.4-6.6-.6-2.4.5-3.7 1.7-4 1.9-.7.4-.8.5-2.1-.5-.6-.4-1.3-.9-2.1-1.2-1-.3-2.4-.9-3.6.2s-.9 2.5-.8 3.1c.1.3.1.6.2 1 .1 1.5.6 2.6 1.2 3.4-1.3 2.8-2.9 7.8-1 12.1 1.4 3.2 4.3 5.2 8.7 6.1 4 .8 8 11.3 8.9 23.3l.2 2.3h14.3l-.6-3c-1.6-8.5-6.3-17.2-8.7-21.3 2.4-.8 4.2-1.3 9 1.9l.5.5c.4.4 1.5 1.7 2.2 2.6 1.8 2.6 5.8 3 8 2.4 5.7-1.4 6.7-8.4 5.8-14.5-.1-.4-.1-.8-.2-1.2h2.5v30.1H83v-30h10.5l-.1-8.6zM57.3 13c6.1 0 10.4 4.4 10.4 10.9s-4.3 10.9-10.4 10.9-10.4-4.4-10.4-10.9C46.8 17.4 51.2 13 57.3 13zm51.6 46.8.2-.2-.6-.4c-2.3-1.1-2.4-1.2-4.6-1.4-.3 0-.5-.1-.7-.1-3.3 0-5.8 1.2-7.4 3.9v-3.1h-8.3v27.1h8.6V71c0-3.4 2.3-5.1 5.4-5.1 0 0 1.5 0 3.1.6 1-3.3 2.2-5 4.3-6.7zm16.3 1.6c-1.6-2.1-4.1-3.7-7.8-3.7-7.3 0-12.6 6.3-12.6 14.2 0 8 5.4 14.3 12.6 14.3 3.7 0 6.2-1.5 7.8-3.6v2.9h8.4v-27h-8.4v2.9zm-5.7 16.9c-3.4 0-5.8-2.7-5.8-6.2s2.3-6.2 5.8-6.2c3.4 0 5.8 2.6 5.8 6.2 0 3.5-2.4 6.2-5.8 6.2zm35.6-17.2c-1.6-2-4-3.3-7.5-3.3-7.3 0-12.6 6.3-12.6 14.2 0 8 5.4 14.3 12.6 14.3 3.7 0 6.2-1.5 7.8-3.6v2.9h8.2V42.8l-8.5 2v16.3zm-5.4 17.2c-3.4 0-5.8-2.7-5.8-6.2s2.3-6.2 5.8-6.2c3.4 0 5.8 2.6 5.8 6.2 0 3.5-2.4 6.2-5.8 6.2zm17.6-19.8h8.6v27.1h-8.6zm59.1 0v2.8c-1.6-2.1-4-3.6-7.6-3.6-7.3 0-12.6 6-12.6 13.7s5.3 13.7 12.6 13.7c3.5 0 5.9-1.4 7.5-3.4v1.7c0 4.3-3.3 6.2-6.8 6.2-3.2 0-6.1-.9-8.7-2.8l-3.1 6.9c3.2 2.3 7.8 3.4 12.4 3.4 8.9 0 14.7-5.3 14.7-14.2V58.5h-8.4zm-5.5 18.8c-3.4 0-5.7-2.5-5.7-5.8s2.3-5.8 5.7-5.8c3.3 0 5.5 2.5 5.5 5.8s-2.2 5.8-5.5 5.8zm-25.5-19.5c-3.6 0-6.4 1.3-8.1 4.1v-3.4H179v27.1h8.6V71c0-3.5 2-5.1 4.4-5.1 2.7 0 4.3 1.8 4.3 5v14.7h8.6V67.8c.1-6.3-4.1-10-9.5-10zM154 16.3c-3.5 0-6.1 1.3-7.8 4V17h-8v26.2h8.4V29.1c0-3.4 1.9-5 4.2-5 2.6 0 4.3 1.7 4.3 4.8v14l8.5-2-.3-14.9c0-6-4-9.7-9.3-9.7zm62.2-11.4h8.4v38.5h-8.4zM87.8 28.3c0-3.3 1.9-4.5 4.9-4.5 1.5 0 3.3.3 4.4.7v-8.7c-.6-.1-1.6-.3-2.3-.3-3.3 0-5.8 1.2-7.3 3.8v-3.1h-8.2v26.6h8.6l-.1-14.5zm15-15.6c2.9 0 5.1-2.2 5.1-5.1s-2.2-5.1-5.1-5.1-5.1 2.2-5.1 5.1c-.1 2.9 2.2 5.1 5.1 5.1zm-3 3.4-1.3-.2v26.9h8.6V15.9l-1 .2c-2.1.3-4.2.4-6.3 0zm26.9 26.8c4.8-1.3 8.3-4 10.3-7.4l-6.7-3.5c-1.2 1.9-3.1 3.3-5 3.8-2.9.8-5.2 0-6.7-2.6l17.6-4.8c-.1-.6-.3-1.8-.5-2.6-2.2-8.1-9-12.2-16.7-10.1-7.9 2.2-11.8 9.3-9.5 17.5 2 8 9.1 11.9 17.2 9.7zm-5.9-20.2c2.4-.7 4.4.3 5.8 2.7l-9.4 2.6c-.2-2.8 1-4.6 3.6-5.3zM179 43.8c3.2-.3 5.6-1.4 7.7-2.8l1.5-1c2.2 2.5 5.2 3.9 8.6 3.9 3.6 0 6-1.5 7.6-3.5v2.9h8.1V17h-8.1v2.8c-1.6-2.1-4-3.6-7.5-3.6-7 0-12.2 6.1-12.2 13.8 0 1.3.1 2.5.4 3.7-2.5 1.6-4.3 2.3-5.8 2.3-2.1 0-3.7-1-3.7-4v-7.7h8V17h-8V9.3h-8.4V17h-5.9c-.2 0-.2.1-.2.1 0 .1.1.2.1.2 1.4 1.2 3.1 3.3 3.4 7.1h2.6v8.8c0 1.9.2 3.6.8 5.1-2.5 1.3-4.2 3.8-4.2 6.9 0 4.3 3.4 7.6 7.7 7.6s7.7-3.3 7.7-7.6c-.1-.6-.1-1-.2-1.4zm19.9-19.7c3.3 0 5.6 2.5 5.6 6s-2.3 6-5.6 6-5.6-2.6-5.6-6 2.3-6 5.6-6z" fill="#fff"/><path d="M176.6 45c0 2.9-2.3 5.1-5.2 5.1s-5.2-2.2-5.2-5.1 2.2-5.2 5.2-5.2c3 .1 5.2 2.3 5.2 5.2z" fill="#ee5f9e"/><ellipse cx="47" cy="43.2" rx="3" ry="3.2" fill="#fff"/><path d="M63.7 49c-2.8-1.6-14.6-2.9-17.5-3.2-.6 2.2-2.6 3.7-4.9 3.6-2.6-.2-4.6-2.6-4.5-5.3.1-1.6 1-3 2.2-3.9-2.2-.8-4.5-.8-6.3.2-3.1 1.8-4.6-.9-6.4-1.5-1.8-.7-1-.2-.9 1.8.2 2.7 1.9 2.7 1.9 2.7S19 57.3 32.4 60c6.2 1.3 10 14.1 10.9 25.6h9c-1.6-8.3-6.4-17.3-9.4-22.1-.3-.5-.4-.9-.3-1.2l2.2-.7c3-1 5.6-2.1 11.9 2.2.6-9.4 6.5-14.6 7-14.8z" fill="#ee5f9e"/><ellipse cx="41.7" cy="44.4" rx="4.8" ry="5.1" fill="#fff"/><g fill="#221f1f"><path d="M56.6 63.8c.6-9.4 6.6-14.6 7.1-14.8 0 0 4.4 2.3 5.3 8.1.2 1.4 1.4 10.4-3.9 11.7-1.5.4-4.4.1-5.4-1.5l-2.3-2.9-.8-.6z"/><path d="M42.2 44.7c-.4 1.2-1.7 2-2.9 1.6s-2-1.7-1.6-2.9h.9l-.3-1c.6-.6 1.5-.8 2.3-.5 1.3.2 2 1.6 1.6 2.8zm4.5-3.6c-.4 0-.8.1-1.1.3.6.9.9 2 .8 3.2v.1c.8 0 1.5-.7 1.7-1.6.1-.9-.5-1.8-1.4-2z" fill-rule="evenodd"/></g><path d="M63.1 49.5c-3-1.8-17.1-3.1-17.1-3.1-.8 1.9-2.6 3.1-4.7 3-.1 0-.3-.1-.4-.1-1 .7-1.8 1.4-2.1 2-1 1.9.2 9.9 3.8 10.3.5-.2.9-.3 1.4-.5-.6-.1-1.1-.3-1.4-.6-.7-.6-.7-1.5-.7-1.9-.4-.1-.8-.3-1-.6-.1-.2-.1-.4.1-.5s.4-.1.5.1.4.3.7.3c.4.1.9-.1 1.1-.3.2-.1.4-.1.5.1s.1.4 0 .5c-.3.2-.7.4-1.1.4 0 .6.1 1 .5 1.3.6.5 1.9.6 3.7.2h.2c2.5-.5 5.4-.2 9.7 2.8v-.5c1-8.4 6.3-12.9 6.3-12.9z" fill="#f6b6d2"/><path d="M45.1 40.6s1.2-1.6.3-3.5c0-.1.1-.2.1-.1.5.5 1 1.4 1 2.4 0 0 .8-.6.8-2.1 0-.1.1-.1.2 0 .2.5.4 1.4 0 2.3 0 0 .7-.4 1-1 0-.1.2-.1.2 0 0 .5 0 1.1-.5 1.6.1 0-1.5-1-3.1.4zm-7.8 2s-3.1-.2-2.7-3.6c0-.1.1-.1.1 0 .2.4.5 1.2 1.1 1.6.5.3 1.2.3 1.6-.1s-1.4-.5-1-2.4c0-.1.1-.1.2 0 .2.7.8 2.1 2.3 1.6 0 0-.8-.6-.6-1.8 0-.1.1-.1.2 0 .1.3.3.7.7 1s.7.3 1.3.3c.3-.1 1-.1 1.3.3-.2-.1-3.3-.1-4.5 3.1z" fill="#221f1f" fill-rule="evenodd"/><path d="m241.8 58.5-.9 2-.8-2h-.9v3h.6v-2.3l.8 1.9h.6l.8-1.9v2.3h.6v-3zm-5.7.5h1v2.5h.6V59h.9v-.5h-2.5z" fill="#fff"/></svg>