<?xml version="1.0" standalone="no"?>
<!DOCTYPE svg PUBLIC "-//W3C//DTD SVG 20010904//EN"
 "http://www.w3.org/TR/2001/REC-SVG-20010904/DTD/svg10.dtd">
<svg version="1.0" xmlns="http://www.w3.org/2000/svg"
 width="1711.000000pt" height="633.000000pt" viewBox="0 0 1711.000000 633.000000"
 preserveAspectRatio="xMidYMid meet">

<g transform="translate(0.000000,633.000000) scale(0.100000,-0.100000)"
fill="#e5c8a2" stroke="none">
<path d="M11221 6315 c-103 -23 -159 -44 -285 -107 -208 -104 -330 -143 -504
-159 -187 -17 -308 -65 -472 -188 -90 -67 -177 -111 -221 -111 -11 0 -43 22
-72 50 -67 65 -140 102 -257 134 -126 33 -182 42 -455 66 -386 35 -799 26
-1071 -21 -78 -14 -104 -35 -129 -104 -41 -115 -107 -188 -244 -272 -85 -51
-74 -51 -276 -9 -128 26 -161 39 -390 144 -60 28 -145 61 -187 73 l-78 23 -27
-20 c-16 -12 -52 -54 -80 -95 -98 -139 -119 -150 -424 -229 -313 -81 -371
-121 -398 -275 l-7 -40 -58 -7 c-35 -5 -78 -19 -111 -38 l-53 -30 -53 19 c-30
11 -121 38 -204 61 -82 23 -158 48 -167 57 -10 9 -31 37 -47 62 -38 59 -80 85
-124 76 -18 -4 -99 -36 -182 -72 -135 -59 -257 -95 -323 -95 -26 0 -135 68
-174 109 -15 16 -38 53 -53 85 -14 31 -32 61 -39 67 -20 16 -103 30 -259 42
-142 10 -471 -1 -634 -21 -40 -5 -200 -16 -355 -25 -509 -27 -642 -36 -743
-50 -55 -7 -147 -19 -205 -25 -194 -20 -304 -42 -545 -111 -414 -118 -738
-240 -1108 -418 l-127 -62 0 -38 c0 -32 4 -40 23 -44 12 -3 137 -6 277 -6 140
0 302 -3 360 -6 58 -3 294 -1 525 5 231 6 467 11 525 11 239 1 610 -13 686
-27 118 -21 247 -18 351 8 79 19 112 21 323 19 756 -7 801 -9 908 -30 94 -19
137 -21 526 -21 410 0 426 1 488 22 60 21 86 22 508 28 245 3 455 10 466 14
13 5 24 3 28 -3 10 -15 662 -15 830 1 98 8 157 9 245 0 64 -7 242 -15 396 -18
l280 -7 24 27 c29 30 39 33 37 9 -2 -33 98 -36 875 -24 415 6 773 12 796 12
23 0 51 -5 62 -11 13 -6 196 -10 538 -10 419 0 542 3 638 16 123 16 238 15
420 -5 55 -6 810 -11 1940 -12 1018 -1 1936 -3 2040 -3 611 -3 1883 8 1898 16
43 22 -3 104 -87 153 -59 34 -152 50 -234 39 -125 -15 -198 -11 -229 14 -43
34 -61 39 -182 51 -75 8 -124 18 -150 32 -22 11 -97 31 -168 43 -149 28 -220
50 -341 108 l-87 42 -125 1 -125 0 -150 71 c-82 39 -195 89 -250 112 -71 30
-121 60 -174 103 -96 78 -134 97 -223 109 -40 6 -109 19 -153 29 -44 11 -116
24 -160 30 -69 10 -89 17 -145 56 -36 24 -106 82 -157 129 -111 102 -184 153
-307 212 -125 61 -197 73 -305 52 -94 -19 -177 -58 -258 -122 -95 -74 -190
-98 -290 -72 -45 11 -96 39 -199 109 -258 174 -352 205 -769 252 -126 14 -274
32 -327 40 -119 18 -192 18 -277 0z"/>
<path d="M1020 4035 c-30 -13 -80 -29 -110 -36 -30 -6 -76 -22 -103 -35 -26
-14 -98 -41 -159 -61 -115 -37 -119 -39 -180 -122 -18 -25 -62 -64 -98 -87
-97 -63 -128 -92 -135 -125 -4 -18 -17 -35 -34 -44 -20 -10 -35 -31 -51 -75
-12 -33 -35 -78 -50 -99 -16 -22 -42 -88 -64 -161 -36 -123 -36 -125 -36 -309
0 -273 21 -386 88 -485 19 -28 51 -91 72 -139 54 -124 96 -191 165 -262 55
-58 124 -102 185 -120 14 -4 41 -22 60 -40 19 -19 58 -45 86 -59 62 -31 242
-76 304 -76 25 0 70 -7 100 -15 76 -22 318 -31 405 -16 97 17 168 44 226 85
27 20 60 36 74 36 40 0 203 87 258 138 27 26 86 94 131 152 44 58 113 137 153
175 l72 70 6 70 c9 101 24 164 51 214 20 36 25 63 30 165 7 137 -4 215 -40
291 -18 36 -26 72 -29 130 -7 138 -71 268 -171 347 -27 22 -58 56 -67 76 -30
66 -158 184 -214 198 -16 4 -71 36 -122 71 -70 47 -101 63 -127 63 -21 0 -54
12 -83 30 -69 43 -150 60 -303 66 -74 2 -158 6 -185 8 -37 3 -65 -2 -105 -19z
m250 -708 c26 -12 83 -59 136 -111 l92 -91 8 -70 c12 -99 9 -278 -5 -355 -28
-142 -50 -190 -122 -261 -76 -76 -111 -91 -215 -93 -65 -1 -76 2 -116 29 -23
17 -64 58 -89 91 -44 58 -46 64 -63 180 -20 140 -22 197 -11 359 l8 120 49 63
c59 74 118 124 179 152 49 22 77 20 149 -13z"/>
<path d="M4784 3995 c-18 -19 -36 -35 -40 -35 -4 0 -30 11 -59 25 -38 19 -75
27 -137 32 -78 5 -89 4 -113 -15 -38 -30 -101 -37 -155 -17 -40 15 -127 21
-139 10 -2 -3 -4 -267 -4 -587 0 -419 4 -604 13 -659 9 -58 10 -103 1 -196
-15 -162 -33 -215 -96 -280 -80 -82 -147 -87 -270 -19 -101 56 -149 140 -161
286 -3 36 -13 87 -21 114 -18 58 -20 135 -3 165 17 32 24 223 11 313 -9 63 -8
83 4 112 22 52 20 179 -4 242 -31 82 -35 141 -17 271 10 65 16 143 14 173 -3
54 -3 55 -36 58 -19 2 -55 -4 -81 -14 -47 -17 -48 -17 -117 12 -91 38 -204 40
-276 6 -50 -24 -103 -28 -157 -12 -19 5 -37 8 -39 5 -11 -10 -1 -192 13 -238
19 -65 19 -134 -1 -238 -9 -48 -13 -103 -10 -129 4 -25 8 -196 9 -380 2 -223
7 -348 15 -375 9 -31 9 -54 0 -102 -10 -56 -9 -75 17 -200 23 -113 33 -144 55
-168 41 -46 65 -92 100 -190 17 -49 41 -100 52 -112 11 -12 50 -32 87 -43 36
-12 102 -44 147 -71 71 -44 87 -50 130 -48 27 1 69 -6 93 -15 36 -14 62 -16
140 -10 86 6 105 11 184 51 124 62 190 77 267 62 51 -10 62 -16 79 -45 25 -41
69 -54 182 -53 46 0 113 1 149 2 36 0 121 -2 190 -4 156 -5 220 9 220 50 0 33
-37 113 -95 206 l-45 72 0 154 c0 178 -10 250 -43 323 l-25 53 29 43 c54 80
58 123 32 333 -15 129 -15 141 0 191 21 66 21 132 1 310 -12 103 -14 172 -9
256 8 125 8 301 0 338 -8 33 -42 28 -81 -13z"/>
<path d="M5855 3983 c-46 -18 -176 -21 -218 -4 -34 13 -163 15 -171 2 -3 -5
-8 -110 -10 -234 -2 -124 -7 -231 -11 -237 -4 -6 -4 -26 -1 -43 l6 -32 148 0
c137 0 150 -2 184 -23 75 -47 103 -115 100 -247 -1 -66 3 -96 14 -113 14 -21
14 -30 0 -86 -20 -77 -20 -159 -1 -296 17 -126 19 -268 3 -330 -6 -25 -12
-121 -12 -215 -1 -93 -5 -222 -10 -285 -5 -68 -5 -129 1 -150 8 -30 14 -35 43
-38 19 -2 58 4 88 14 45 14 64 15 106 6 28 -6 83 -14 121 -17 64 -6 76 -4 119
19 70 37 125 35 230 -9 18 -8 18 -5 11 46 -5 30 -9 173 -10 319 -1 159 -6 290
-14 327 -10 54 -10 67 5 95 14 27 15 47 8 128 -4 52 -7 129 -6 170 1 41 1 125
0 185 -3 264 -2 288 22 349 28 74 88 140 146 162 44 17 125 16 227 -2 34 -6
37 -5 37 17 0 13 -7 46 -15 72 -13 43 -13 53 0 84 24 57 35 181 25 279 -5 49
-10 92 -10 96 0 3 -17 2 -37 -4 -23 -6 -76 -8 -132 -4 l-95 7 -53 -53 -53 -52
-31 37 c-25 31 -37 37 -68 37 -21 0 -60 7 -87 15 -61 19 -131 19 -164 0 -33
-19 -128 -19 -260 0 -58 8 -112 17 -120 19 -8 3 -33 -3 -55 -11z"/>
<path d="M14340 3985 c-10 -12 -30 -16 -74 -15 -183 3 -549 -10 -666 -24 -266
-32 -371 -67 -468 -159 -31 -30 -81 -67 -111 -82 -67 -33 -129 -96 -205 -205
-33 -47 -81 -105 -107 -130 -92 -89 -123 -186 -139 -445 -6 -94 -13 -184 -16
-202 -3 -21 5 -61 24 -115 16 -46 35 -117 41 -158 29 -177 79 -279 197 -396
44 -45 84 -92 87 -106 10 -38 57 -78 163 -138 53 -30 118 -74 145 -97 47 -40
52 -41 136 -48 49 -3 108 -11 133 -16 32 -7 55 -7 74 0 38 15 110 13 181 -4
78 -19 195 -19 265 0 69 19 163 18 215 0 41 -15 132 -12 206 6 45 11 49 27 49
178 0 58 5 123 9 145 7 28 5 49 -6 80 -14 40 -13 153 3 234 9 47 -19 57 -120
44 -180 -25 -409 -36 -498 -24 -75 10 -102 19 -195 68 -149 79 -155 84 -190
157 -81 165 -89 315 -24 453 37 80 98 139 204 200 45 26 95 58 111 71 79 66
173 87 319 74 78 -8 110 -7 155 5 37 10 89 14 147 12 l90 -3 -2 35 c-1 19 -5
157 -8 305 -3 149 -7 280 -10 293 -5 19 -12 22 -54 22 -32 0 -53 -5 -61 -15z"/>
<path d="M15745 3983 c-11 -2 -58 -12 -105 -23 -47 -10 -115 -22 -152 -25 -67
-7 -68 -7 -78 19 -5 15 -14 25 -19 21 -40 -24 -161 -24 -278 0 -21 5 -21 4
-20 -143 1 -81 -2 -197 -7 -258 -7 -93 -6 -118 8 -160 15 -47 15 -55 0 -115
-11 -40 -17 -97 -16 -154 6 -417 2 -1174 -7 -1244 -9 -76 -1 -254 12 -268 3
-2 31 3 62 12 60 18 99 16 152 -6 26 -10 42 -11 75 -2 35 10 46 9 59 -3 15
-13 22 -12 64 11 63 33 127 33 211 -1 40 -16 74 -24 89 -20 l24 6 -20 67 c-28
100 -22 187 16 233 8 9 15 57 17 125 4 92 9 120 32 175 16 36 29 66 30 67 6 7
133 -51 163 -75 19 -14 55 -53 81 -86 25 -34 97 -116 160 -183 96 -104 121
-124 156 -133 75 -18 143 -60 206 -127 82 -86 109 -97 240 -98 58 -1 112 -4
120 -8 13 -6 20 10 38 90 25 113 26 139 8 172 -12 21 -11 30 5 65 23 50 23 80
3 204 -9 54 -13 119 -10 147 l6 51 -123 91 c-149 110 -199 140 -297 174 l-75
27 -23 93 c-30 119 -33 226 -9 296 20 57 79 130 132 163 18 11 45 40 58 63 35
59 106 124 214 197 90 61 153 119 153 142 0 7 -22 33 -49 59 -35 33 -54 61
-62 91 -20 78 -100 160 -225 233 -41 24 -54 27 -101 22 -63 -7 -78 -17 -86
-57 -5 -24 -18 -34 -72 -60 -79 -38 -166 -120 -220 -207 -28 -48 -43 -63 -61
-63 -16 0 -38 -19 -74 -65 -62 -78 -89 -98 -160 -119 l-54 -16 -38 37 c-26 26
-43 55 -54 93 -9 30 -25 76 -35 102 -24 60 -24 133 1 228 25 96 25 126 1 140
-20 10 -31 11 -66 3z"/>
<path d="M7584 3957 c-3 -8 2 -42 10 -75 21 -79 20 -128 -4 -181 -26 -56 -26
-133 1 -237 l21 -82 -21 -83 c-23 -91 -28 -258 -12 -361 7 -37 6 -69 0 -90 -6
-18 -13 -91 -16 -163 -4 -103 -1 -161 16 -278 l21 -147 -22 -31 c-34 -45 -38
-164 -8 -260 l21 -71 -28 -41 c-24 -35 -28 -52 -32 -124 -1 -46 0 -95 3 -108
6 -24 9 -25 99 -25 100 1 222 19 277 42 31 13 40 13 75 0 22 -8 90 -17 152
-19 94 -5 122 -2 180 15 l69 21 42 -20 c34 -17 57 -20 124 -18 46 2 184 2 308
1 l225 -3 145 46 c167 54 187 68 226 164 55 135 83 190 112 220 l29 31 7 173
c5 116 3 183 -4 202 -6 15 -33 52 -59 81 -39 42 -55 71 -76 136 -33 100 -36
103 -98 134 -44 23 -48 28 -42 52 13 55 55 133 120 224 l67 93 -5 58 c-5 53
-2 63 25 107 29 47 30 53 26 142 -3 87 -6 98 -43 158 -108 180 -147 220 -216
220 -25 0 -42 7 -60 26 -65 70 -178 92 -384 75 -140 -12 -413 -16 -640 -10
-251 7 -328 3 -388 -16 -58 -18 -59 -18 -130 3 -40 11 -80 24 -89 27 -11 5
-20 2 -24 -8z m1066 -430 c25 -12 55 -38 68 -57 20 -29 23 -44 19 -90 -8 -87
-42 -164 -103 -229 -67 -72 -100 -88 -153 -72 -64 19 -85 48 -104 149 -30 158
-20 239 37 291 46 43 155 47 236 8z m5 -887 c62 -58 82 -146 61 -268 -8 -45
-24 -102 -36 -127 -26 -53 -92 -115 -123 -115 -42 0 -123 29 -144 52 -23 25
-53 134 -53 189 0 34 28 177 49 254 l10 40 105 0 c97 0 106 -2 131 -25z"/>
<path d="M10236 3958 c-15 -49 -14 -78 6 -159 l22 -89 -22 -134 c-29 -177 -22
-196 72 -196 57 0 140 -42 166 -84 17 -29 20 -50 20 -147 0 -139 -19 -225 -65
-301 -19 -31 -35 -65 -35 -75 0 -30 -33 -119 -80 -213 -34 -69 -41 -93 -37
-127 4 -37 1 -45 -30 -75 -47 -45 -79 -118 -109 -249 -23 -95 -30 -112 -50
-119 -14 -6 -24 -18 -24 -29 0 -37 -31 -115 -80 -201 -27 -47 -52 -97 -56
-113 l-6 -27 88 6 c49 3 113 10 142 16 29 5 76 7 103 3 29 -4 76 -2 114 6 56
11 75 10 142 -4 43 -9 84 -17 90 -17 7 0 17 19 24 43 6 23 17 49 25 58 7 8 28
44 46 80 76 148 240 198 569 171 152 -13 198 -31 267 -107 27 -29 68 -90 91
-134 l42 -81 47 0 c31 0 68 10 110 30 l63 30 37 -25 c31 -21 48 -25 107 -25
38 1 114 9 168 19 l99 19 11 -25 c7 -16 17 -23 31 -21 32 5 25 71 -17 154 -41
84 -67 155 -107 299 -37 129 -61 198 -94 263 -13 26 -27 69 -31 96 -10 72 -40
142 -91 213 -65 91 -76 124 -78 229 l-2 92 -46 51 c-71 78 -87 130 -118 380
-7 64 -19 102 -46 154 -24 47 -44 107 -59 181 -25 122 -49 183 -76 191 -9 3
-48 1 -85 -5 -38 -6 -121 -11 -184 -9 -63 1 -145 -2 -182 -6 -38 -4 -78 -4
-95 2 -18 6 -90 6 -198 0 -119 -6 -199 -6 -265 2 -82 10 -101 9 -133 -4 -49
-20 -95 -19 -140 5 -43 23 -56 25 -61 8z m978 -987 c29 -28 61 -150 71 -276
l6 -80 -62 -45 c-112 -82 -138 -86 -215 -35 -62 42 -74 59 -74 113 0 82 18
140 52 171 30 27 33 34 36 106 l4 77 78 -4 c66 -3 83 -7 104 -27z"/>
<path d="M13635 896 c-100 -46 -154 -137 -155 -256 0 -95 28 -159 95 -218 229
-201 559 73 420 348 -27 54 -89 113 -141 135 -56 23 -159 19 -219 -9z m210
-31 c37 -15 90 -66 112 -108 21 -41 29 -154 14 -200 -68 -205 -325 -221 -427
-27 -26 49 -26 172 0 220 62 118 182 164 301 115z"/>
<path d="M13650 641 c0 -154 1 -161 20 -161 18 0 20 7 20 75 l0 75 30 0 c31 0
36 -6 115 -135 6 -10 20 -16 33 -14 21 4 21 6 -18 64 -44 66 -49 85 -22 85 34
0 62 37 62 84 0 68 -21 80 -141 84 l-99 4 0 -161z m178 113 c26 -18 29 -56 6
-78 -11 -11 -35 -16 -80 -16 l-64 0 0 55 0 55 58 0 c36 0 66 -6 80 -16z"/>
<path d="M6604 890 c-12 -4 -24 -17 -28 -27 -78 -194 -297 -826 -292 -839 3
-8 20 -13 40 -12 33 1 36 5 64 67 17 36 38 91 47 121 21 64 55 136 82 168 18
23 21 23 141 16 l123 -7 25 -50 c14 -27 41 -95 61 -150 52 -152 57 -159 101
-155 30 2 38 7 40 26 4 25 -152 446 -255 690 -50 117 -69 152 -83 152 -10 0
-24 2 -32 4 -7 3 -22 1 -34 -4z m86 -266 c17 -41 30 -88 28 -102 -3 -26 -5
-27 -70 -27 -37 0 -72 5 -78 11 -18 18 59 212 79 199 5 -3 23 -39 41 -81z"/>
<path d="M9680 886 c-107 -31 -184 -95 -235 -197 -42 -81 -55 -137 -55 -230 0
-140 36 -235 127 -330 69 -73 136 -99 274 -106 135 -8 181 9 269 96 153 151
189 360 96 557 -45 94 -94 147 -174 186 -58 29 -76 33 -161 35 -57 1 -114 -3
-141 -11z m238 -118 c56 -20 69 -29 103 -77 121 -169 111 -347 -27 -484 -75
-75 -155 -98 -260 -77 -117 24 -187 90 -226 212 -34 111 -15 235 51 331 83
121 199 152 359 95z"/>
<path d="M11143 892 c-8 -5 -14 -101 -20 -324 l-8 -316 -31 -39 c-17 -21 -56
-50 -86 -66 -50 -25 -61 -26 -116 -19 -71 10 -119 39 -156 96 -24 37 -26 49
-27 161 -1 66 -4 206 -8 310 l-6 190 -36 3 -36 3 -6 -227 c-13 -421 -8 -468
54 -539 75 -85 245 -128 357 -91 66 22 139 87 168 151 23 49 24 55 24 373 l0
322 -26 10 c-30 12 -26 12 -41 2z"/>
<path d="M11830 891 c-109 -36 -160 -103 -160 -209 0 -88 52 -142 180 -188 91
-33 189 -85 214 -115 31 -36 33 -78 7 -134 -52 -113 -178 -144 -353 -85 -49
17 -91 30 -94 30 -2 0 -4 -20 -4 -45 0 -58 20 -78 105 -104 176 -55 346 -4
422 126 31 53 43 167 24 226 -26 78 -70 111 -240 182 -128 54 -154 78 -149
139 3 34 8 43 38 61 43 25 158 26 235 1 27 -8 50 -14 51 -13 1 1 4 21 7 45 5
42 4 43 -35 63 -45 23 -202 36 -248 20z"/>
<path d="M3788 880 c-60 -18 -117 -54 -128 -80 -6 -15 -15 -54 -19 -86 -17
-119 44 -179 253 -253 110 -39 139 -59 161 -113 23 -58 13 -97 -41 -157 -56
-62 -92 -75 -198 -69 -74 4 -112 15 -223 64 -16 7 -26 -30 -18 -67 6 -26 18
-36 74 -62 56 -27 80 -32 163 -35 71 -3 109 0 146 12 62 21 136 73 168 118 31
43 49 129 40 190 -14 96 -73 146 -262 224 -178 74 -209 117 -134 186 57 52
131 57 249 17 30 -11 58 -19 62 -19 14 0 22 70 11 94 -7 16 -25 27 -56 35 -51
12 -207 13 -248 1z"/>
<path d="M4471 869 c-5 -14 -7 -37 -4 -52 l5 -26 112 -3 111 -3 5 -375 c3
-206 7 -376 8 -376 11 -7 46 -11 61 -7 17 4 18 24 23 360 6 427 -4 398 139
398 98 0 112 7 100 54 -10 34 -36 38 -323 47 l-227 7 -10 -24z"/>
<path d="M12622 463 l3 -428 240 0 240 0 3 41 3 41 -83 6 c-46 4 -126 7 -179
7 -139 0 -140 1 -146 165 -2 78 0 136 6 144 7 12 50 16 203 20 l193 6 0 45 0
45 -192 5 c-105 3 -195 9 -200 13 -12 12 -10 184 2 196 6 6 95 16 200 23 206
14 206 14 191 74 l-6 24 -240 0 -240 0 2 -427z"/>
<path d="M5444 872 l-41 -3 -5 -78 c-3 -44 -2 -235 0 -425 l5 -346 246 2 246
3 0 45 0 45 -181 1 c-106 1 -190 6 -201 12 -17 10 -21 25 -26 122 -3 61 -3
126 0 145 5 31 9 35 56 45 32 7 96 8 173 4 67 -4 133 -4 147 0 27 6 42 44 32
77 -6 19 -16 20 -190 19 -102 -1 -189 1 -194 4 -17 11 -34 111 -27 157 11 74
3 72 218 78 l193 6 3 30 c1 17 -1 35 -5 41 -8 11 -357 23 -449 16z"/>
<path d="M7480 871 c-24 -7 -25 -11 -31 -106 -4 -55 -10 -245 -14 -421 l-8
-322 21 -6 c51 -17 58 -4 65 111 4 58 7 136 7 173 0 86 9 130 26 130 14 0 161
-178 273 -330 35 -47 68 -88 75 -92 17 -11 84 -9 91 2 11 17 -38 91 -173 259
-169 210 -163 199 -119 253 20 24 99 104 177 177 77 73 140 139 140 147 0 10
-14 14 -56 14 l-56 0 -165 -160 c-92 -88 -172 -160 -179 -160 -22 0 -27 46
-20 177 4 80 3 131 -4 143 -11 21 -12 22 -50 11z"/>
<path d="M8436 843 c-9 -61 -19 -778 -11 -802 6 -18 13 -22 43 -19 l37 3 7
194 c6 158 10 197 23 210 13 14 45 16 205 16 103 0 192 -4 197 -8 4 -5 10 -99
13 -210 l5 -202 25 -3 c14 -1 31 2 38 6 27 18 37 801 12 843 -6 8 -16 9 -36 2
l-29 -10 -5 -141 c-4 -116 -8 -144 -22 -158 -15 -15 -45 -18 -206 -22 l-189
-4 -12 32 c-6 18 -11 87 -11 152 0 134 -7 158 -49 158 -26 0 -30 -4 -35 -37z"/>
</g>
</svg>
