<svg xmlns="http://www.w3.org/2000/svg" xml:space="preserve" id="Capa_1" width="512" height="512" x="0" y="0" style="enable-background:new 0 0 512 512" version="1.1" viewBox="0 0 512 512"><g><path d="M432.99 166.895v284.52c0 10.9-8.83 19.73-19.73 19.73H98.74c-10.9 0-19.73-8.83-19.73-19.73v-284.52c0-10.9 8.83-19.73 19.73-19.73h314.52c10.9 0 19.73 8.83 19.73 19.73z" style="fill:#fe7c66"/><path d="M432.99 166.895v284.52c0 10.9-8.83 19.73-19.73 19.73h-47.3c10.9 0 19.73-8.83 19.73-19.73v-284.52c0-10.9-8.83-19.73-19.73-19.73h47.3c10.9 0 19.73 8.83 19.73 19.73z" style="fill:#fe6c55"/><g><path d="M353.61 397.535c-.62 3.2-2.34 5.96-4.7 7.92a13.631 13.631 0 0 1-8.67 3.12h-15.43l-2.38 11.05a49.6 49.6 0 0 1-24.46 32.93l-5.08 2.81v15.78h-54.82l-21.51-54.59a19.145 19.145 0 0 0-17.8-12.12H162.5c-6.24 0-11.32-4.93-11.55-11.11-.01-.15-.01-.29-.01-.44a11.56 11.56 0 0 1 11.56-11.55h64.61c11.3 0 22.34 3.38 31.69 9.73l3.34 2.26 22.49 15.25 11.43-9.64 10.81-9.11a36.026 36.026 0 0 1 23.22-8.49h10.15c8.55 0 14.99 7.8 13.37 16.2z" style="fill:#ffdfcf"/><path d="M262.138 393.325H150.951c-.007-.146-.007-.293-.007-.439 0-3.192 1.297-6.078 3.385-8.166a11.53 11.53 0 0 1 8.173-3.385h64.611a56.431 56.431 0 0 1 31.687 9.729l3.338 2.261zM353.61 397.535c-.62 3.2-2.34 5.96-4.7 7.92a13.631 13.631 0 0 1-8.67 3.12h-15.43l-2.38 11.05a49.6 49.6 0 0 1-24.46 32.93l-5.08 2.81v15.78h-17.78v-13.49c0-3.9 2.02-7.47 5.26-9.63 21.73-14.46 15.69-49.08 15.69-49.08v-.01l10.81-9.11a36.026 36.026 0 0 1 23.22-8.49h10.15c8.55 0 14.99 7.8 13.37 16.2z" style="fill:#ffcebf"/><path d="m238.073 471.149-21.513-54.59a19.139 19.139 0 0 0-17.802-12.123h-36.256c-6.384 0-11.558-5.167-11.558-11.551 0-3.192 1.297-6.078 3.385-8.166a11.53 11.53 0 0 1 8.173-3.385h64.611a56.431 56.431 0 0 1 31.687 9.729l25.835 17.509 22.231-18.753a36.035 36.035 0 0 1 23.228-8.485h10.141c8.559 0 14.996 7.8 13.373 16.199a13.595 13.595 0 0 1-4.702 7.92 13.594 13.594 0 0 1-8.672 3.119h-15.421l-2.381 11.052a49.608 49.608 0 0 1-24.459 32.931l-5.081 2.806v15.787M275.115 416.608l31.754-26.787" style="fill:none;stroke:#000;stroke-width:15;stroke-linecap:round;stroke-linejoin:round;stroke-miterlimit:10"/></g><g><path d="M375.368 351.357c0-66.13-53.609-119.739-119.739-119.739S135.89 285.227 135.89 351.357h239.478z" style="fill:#f9f3f1"/><path d="M375.368 351.357h-68.5c0-54.23-36.05-100.04-85.49-114.76 10.85-3.24 22.35-4.98 34.25-4.98 66.13.001 119.74 53.611 119.74 119.74z" style="fill:#f3eae6"/><path d="M396.113 351.357H115.145c-8.278 0-14.989 6.711-14.989 14.989s6.711 14.989 14.989 14.989h280.969c8.278 0 14.989-6.711 14.989-14.989-.001-8.278-6.712-14.989-14.99-14.989z" style="fill:#f9f3f1"/><path d="M354.25 351.361h41.86c4.14 0 7.89 1.68 10.6 4.39a14.95 14.95 0 0 1 4.39 10.6c0 8.27-6.71 14.98-14.99 14.98H115.14c-4.14 0-7.88-1.68-10.59-4.39a14.943 14.943 0 0 1-4.39-10.59c0-8.28 6.71-14.99 14.98-14.99h204.11M375.368 351.357c0-66.13-53.609-119.739-119.739-119.739S135.89 285.227 135.89 351.357" style="fill:none;stroke:#000;stroke-width:15;stroke-linecap:round;stroke-linejoin:round;stroke-miterlimit:10"/><circle cx="255.629" cy="216.14" r="15.478" style="fill:#f9f3f1"/><circle cx="255.629" cy="216.14" r="15.478" style="fill:none;stroke:#000;stroke-width:15;stroke-linecap:round;stroke-linejoin:round;stroke-miterlimit:10"/></g><path d="M79.01 227.861v-60.97c0-10.9 8.83-19.73 19.73-19.73h37.07M382.13 147.161h31.13c10.9 0 19.73 8.83 19.73 19.73v284.52c0 10.9-8.83 19.73-19.73 19.73H98.74c-10.9 0-19.73-8.83-19.73-19.73v-189.05M342.69 147.165H175.25" style="fill:none;stroke:#000;stroke-width:15;stroke-linecap:round;stroke-linejoin:round;stroke-miterlimit:10"/><path d="M492.575 101.988H19.425c-6.586 0-11.925-5.339-11.925-11.925V52.78c0-6.586 5.339-11.925 11.925-11.925h473.15c6.586 0 11.925 5.339 11.925 11.925v37.283c0 6.585-5.339 11.925-11.925 11.925z" style="fill:#e49280"/><path d="M504.5 52.782v37.28c0 6.59-5.33 11.93-11.92 11.93H436.1c6.59 0 11.93-5.34 11.93-11.93v-37.28c0-6.59-5.34-11.93-11.93-11.93h56.48c6.59.001 11.92 5.34 11.92 11.93z" style="fill:#dd7f66"/><path d="M428.13 40.851h64.44c6.59 0 11.93 5.34 11.93 11.93v37.28c0 6.58-5.34 11.92-11.93 11.92H382.13M135.81 101.981H19.43c-6.59 0-11.93-5.34-11.93-11.92v-37.28c0-6.59 5.34-11.93 11.93-11.93h374.64M342.69 101.985H175.25" style="fill:none;stroke:#000;stroke-width:15;stroke-linecap:round;stroke-linejoin:round;stroke-miterlimit:10"/><path d="M155.528 193.07c-10.891 0-19.719-8.829-19.719-19.719V87.989c0-10.891 8.829-19.719 19.719-19.719 10.891 0 19.719 8.829 19.719 19.719v85.361c0 10.891-8.828 19.72-19.719 19.72zM362.41 193.07c-10.891 0-19.719-8.829-19.719-19.719V87.989c0-10.891 8.829-19.719 19.719-19.719 10.891 0 19.719 8.829 19.719 19.719v85.361c.001 10.891-8.828 19.72-19.719 19.72z" style="fill:#ffe177"/><path d="M382.13 87.98v85.37c0 10.89-8.83 19.71-19.72 19.71-3.25 0-6.33-.79-9.03-2.19 6.34-3.27 10.68-9.89 10.68-17.52V87.98c0-5.45-2.21-10.37-5.78-13.94a19.487 19.487 0 0 0-4.9-3.58c2.7-1.41 5.78-2.2 9.03-2.2 5.44 0 10.38 2.21 13.94 5.78 3.57 3.57 5.78 8.49 5.78 13.94zM175.247 87.98v85.37c0 10.89-8.83 19.71-19.72 19.71-3.25 0-6.33-.79-9.03-2.19 6.34-3.27 10.68-9.89 10.68-17.52V87.98c0-5.45-2.21-10.37-5.78-13.94a19.487 19.487 0 0 0-4.9-3.58c2.7-1.41 5.78-2.2 9.03-2.2 5.44 0 10.38 2.21 13.94 5.78 3.57 3.57 5.78 8.49 5.78 13.94z" style="fill:#fece85"/><path d="M155.528 193.07h0c-10.891 0-19.719-8.829-19.719-19.719V87.989c0-10.891 8.829-19.719 19.719-19.719h0c10.891 0 19.719 8.829 19.719 19.719v85.361c0 10.891-8.828 19.72-19.719 19.72zM362.41 193.07h0c-10.891 0-19.719-8.829-19.719-19.719V87.989c0-10.891 8.829-19.719 19.719-19.719h0c10.891 0 19.719 8.829 19.719 19.719v85.361c.001 10.891-8.828 19.72-19.719 19.72z" style="fill:none;stroke:#000;stroke-width:15;stroke-linecap:round;stroke-linejoin:round;stroke-miterlimit:10"/></g></svg>