<svg xmlns="http://www.w3.org/2000/svg" viewBox="0 0 216 72" fill="#5a3160"><path d="M15.7,17.5c-0.7-0.6-1.6-1.1-2.5-1.5c-0.9-0.4-1.8-0.7-2.8-1c-0.9-0.3-1.8-0.6-2.7-0.9C6.8,13.8,6,13.4,5.4,13c-0.6-0.4-1.2-0.9-1.5-1.5c-0.4-0.6-0.6-1.3-0.6-2.2c0-0.7,0.1-1.4,0.4-2C3.9,6.6,4.3,6,4.8,5.6c0.5-0.5,1.1-0.9,1.9-1.1C7.5,4.1,8.4,4,9.4,4c1,0,1.9,0.1,2.6,0.4c0.6,0.2,1.2,0.5,1.7,0.8c0.6,0.3,1.8,1.3,1.8,1.3l0.9,0.7l0-3.6l-0.2-0.2c-0.7-0.6-1.1-0.9-2.4-1.5C12.4,1.4,11,1.1,9.4,1.1c-1.4,0-2.7,0.2-3.9,0.7C4.3,2.2,3.4,2.9,2.6,3.6C1.8,4.4,1.2,5.3,0.8,6.2c-0.4,1-0.6,2-0.6,3.1c0,1.4,0.2,2.5,0.7,3.4c0.5,0.9,1.1,1.7,1.8,2.3c0.7,0.6,1.6,1.1,2.5,1.5c0.9,0.4,1.9,0.7,2.8,1c0.9,0.3,1.8,0.6,2.7,0.9c0.8,0.3,1.6,0.7,2.3,1.1c0.6,0.4,1.1,0.9,1.5,1.5c0.4,0.6,0.6,1.4,0.6,2.3c0,0.9-0.2,1.7-0.5,2.5c-0.3,0.8-0.8,1.5-1.3,2c-0.6,0.6-1.3,1-2.2,1.3c-0.9,0.3-1.9,0.5-3,0.5c-0.8,0-1.5-0.1-2.2-0.2c-0.6-0.2-1.2-0.4-1.7-0.6c-0.5-0.2-0.9-0.5-1.3-0.7C3,28.1,2.9,28.1,2.8,28c-0.3-0.2-0.7-0.5-0.9-0.7c-0.3-0.3-1-0.8-1-0.8L0,25.9l0,3.7l0.2,0.2c0.1,0.1,0.2,0.2,0.3,0.3c0.7,0.6,1,0.9,2.3,1.5c1.5,0.7,3.3,1.1,5.3,1.1c1.6,0,3-0.3,4.2-0.7c1.2-0.5,2.3-1.2,3.2-2c0.9-0.9,1.5-1.9,2-3.1c0.5-1.2,0.7-2.4,0.7-3.7c0-1.3-0.2-2.4-0.7-3.3C17.1,18.9,16.5,18.1,15.7,17.5z"/><path d="M50.9,26.9c-0.3,0.3-0.6,0.5-1,0.7c-0.1,0.1-0.3,0.2-0.4,0.3c-0.6,0.4-1.2,0.7-1.9,1c-0.7,0.3-1.4,0.5-2.2,0.6c-0.8,0.1-1.7,0.2-2.8,0.2c-1.6,0-3.1-0.3-4.5-0.9c-1.4-0.6-2.6-1.4-3.6-2.5c-1-1.1-1.8-2.4-2.4-4c-0.6-1.6-0.9-3.4-0.9-5.5c0-2,0.3-3.8,0.9-5.4c0.6-1.6,1.4-2.9,2.4-4c1-1.1,2.3-2,3.7-2.5c1.4-0.6,3.1-0.9,4.8-0.9c0.9,0,1.8,0.1,2.5,0.2c0.7,0.1,1.4,0.3,2,0.5c0.6,0.2,1,0.4,1.4,0.7c0.1,0.1,0.3,0.2,0.4,0.2c0.3,0.2,0.7,0.4,0.9,0.6c0.3,0.2,1,0.6,1,0.7l0.8,0.5l0-3.4l-0.2-0.2c-0.3-0.3-0.4-0.3-0.7-0.5c-0.1,0-0.2-0.1-0.3-0.2c-0.7-0.5-1.5-0.9-2.3-1.2c-0.8-0.3-1.7-0.6-2.6-0.7c-0.9-0.2-1.9-0.3-3.1-0.3c-2.2,0-4.3,0.4-6.1,1.1c-1.8,0.8-3.5,1.8-4.8,3.2c-1.3,1.4-2.4,3.1-3.1,5c-0.7,1.9-1.1,4.1-1.1,6.4c0,2.4,0.4,4.5,1.1,6.5c0.7,1.9,1.7,3.6,3,5c1.3,1.4,2.8,2.5,4.6,3.2c1.8,0.7,3.8,1.1,5.9,1.1c1.3,0,2.4-0.1,3.5-0.3c1.1-0.2,2.1-0.5,3-0.9c0.9-0.4,1.7-0.9,2.5-1.4c0.3-0.2,0.4-0.3,0.5-0.4c0.2-0.1,0.3-0.2,0.4-0.4l0.1-0.1l0-3.5l-0.9,0.7C51.6,26.3,50.9,26.9,50.9,26.9z"/><polygon points="65.6,32.3 84.6,32.3 84.6,29.4 68.9,29.4 68.9,18.1 81.9,18.1 81.9,15.3 68.9,15.3 68.9,4.3 84.6,4.3 84.6,1.4 65.6,1.4 "/><polygon points="117.9,25.1 96.8,0.5 96.8,32.3 99.8,32.3 99.8,8.9 120.9,33.2 120.9,1.4 117.9,1.4 "/><polygon points="131.3,4.4 141.8,4.4 141.8,32.3 145,32.3 145,4.4 155.5,4.4 155.5,1.4 131.3,1.4 "/><path d="M213.1,1.4c-0.3,0-0.6,0.1-0.8,0.3c-0.2,0.1-0.3,0.3-0.5,0.5l-8.5,13.7c-0.2,0.3-0.3,0.5-0.4,0.8c-0.1-0.2-0.3-0.5-0.4-0.8L194,2.2l0,0c-0.1-0.2-0.3-0.4-0.5-0.5c-0.2-0.2-0.5-0.2-0.8-0.2h-2.9l11.4,18.2v12.7h3.3V19.6L216,1.4H213.1z"/><path d="M180.2,17.5c-0.7-0.6-1.6-1.1-2.5-1.5c-0.9-0.4-1.8-0.7-2.8-1c-1-0.3-1.9-0.6-2.7-0.9c-0.9-0.3-1.6-0.7-2.3-1.1c-0.6-0.4-1.2-0.9-1.5-1.5c-0.4-0.6-0.6-1.3-0.6-2.2c0-0.7,0.1-1.4,0.4-2c0.3-0.6,0.6-1.2,1.1-1.7c0.5-0.5,1.1-0.9,1.9-1.1c0.8-0.3,1.7-0.4,2.7-0.4c1,0,1.9,0.1,2.6,0.4c0.6,0.2,1.2,0.5,1.7,0.8c0.6,0.3,1.8,1.3,1.8,1.3l0.9,0.7l0-3.6l-0.2-0.2c-0.7-0.6-1.1-0.9-2.4-1.5c-1.3-0.5-2.8-0.8-4.4-0.8c-1.4,0-2.7,0.2-3.9,0.7c-1.1,0.5-2.1,1.1-2.9,1.8c-0.8,0.8-1.4,1.6-1.8,2.6c-0.4,1-0.6,2-0.6,3.1c0,1.4,0.2,2.5,0.7,3.4c0.5,0.9,1.1,1.7,1.8,2.3c0.7,0.6,1.6,1.1,2.5,1.5c0.9,0.4,1.9,0.7,2.8,1c0.9,0.3,1.8,0.6,2.7,0.9c0.8,0.3,1.6,0.7,2.3,1.1c0.6,0.4,1.1,0.9,1.5,1.5c0.4,0.6,0.6,1.4,0.6,2.3c0,0.9-0.2,1.7-0.5,2.5c-0.3,0.8-0.8,1.5-1.3,2c-0.6,0.6-1.3,1-2.2,1.3c-0.9,0.3-1.9,0.5-3,0.5c-0.8,0-1.5-0.1-2.2-0.2c-0.6-0.2-1.2-0.4-1.7-0.6c-0.5-0.2-0.9-0.5-1.3-0.7c-0.1-0.1-0.2-0.1-0.3-0.2c-0.3-0.2-0.7-0.5-0.9-0.7c-0.3-0.3-1-0.8-1-0.8l-0.9-0.6l0,3.7l0.2,0.2c0.1,0.1,0.2,0.2,0.3,0.3c0.7,0.6,1,0.9,2.3,1.5c1.5,0.7,3.3,1.1,5.3,1.1c1.6,0,3-0.3,4.2-0.7c1.2-0.5,2.3-1.2,3.2-2c0.9-0.9,1.5-1.9,2-3.1c0.5-1.2,0.7-2.4,0.7-3.7c0-1.3-0.2-2.4-0.7-3.3C181.5,18.9,180.9,18.1,180.2,17.5z"/><path d="M114.7,45.5c0-0.1-0.1-0.2-0.2-0.2l-4.8-0.7l-2.1-4.6c0-0.1-0.1-0.1-0.2-0.1c-0.1,0-0.2,0.1-0.2,0.1l-2.1,4.6l-4.8,0.7c-0.1,0-0.2,0.1-0.2,0.2c0,0.1,0,0.2,0.1,0.3l3.5,3.5l-0.9,5c0,0.1,0,0.2,0.1,0.2c0.1,0.1,0.2,0.1,0.2,0l4.3-2.4l4.3,2.4c0,0,0.1,0,0.1,0c0,0,0.1,0,0.1,0c0.1-0.1,0.1-0.1,0.1-0.2l-0.9-5l3.5-3.5C114.7,45.7,114.7,45.6,114.7,45.5"/><rect x="0.9" y="47.5" width="92.2" height="1.1"/><rect x="121.6" y="47.5" width="92.2" height="1.1"/><path d="M1,71.2v-6.8h1.3v6.8H1z"/><path d="M12.2,71.2l-4.4-4.6l-0.4-0.5v5.1H6v-6.8h1.2l4.3,4.6l0.4,0.5v-5.1h1.3v6.8H12.2z"/><path d="M20.5,71.2H17v-6.8h3.5c2.4,0,4,1.5,4,3.3v0.2C24.5,69.7,23,71.2,20.5,71.2z M23.2,67.7c0-1.3-1-2.3-2.7-2.3h-2.2v4.7h2.2c1.7,0,2.7-1,2.7-2.3V67.7z"/><path d="M27.8,71.2v-6.8h6.2v1.1h-4.9v1.8h3.8v1h-3.8v1.9h4.9v1.1H27.8z"/><path d="M41.2,68.7h-2.4v2.6h-1.3v-6.8h3.7c2.1,0,3,0.9,3,2.1v0C44.1,67.8,43.2,68.7,41.2,68.7z M42.9,66.5c0-0.6-0.5-1-1.5-1h-2.6v2.2h2.7C42.5,67.6,42.9,67.1,42.9,66.5L42.9,66.5z"/><path d="M47.4,71.2v-6.8h6.2v1.1h-4.9v1.8h3.8v1h-3.8v1.9h4.9v1.1H47.4z"/><path d="M63.2,71.2l-4.4-4.6l-0.4-0.5v5.1H57v-6.8h1.2l4.3,4.6l0.4,0.5v-5.1h1.3v6.8H63.2z"/><path d="M71.6,71.2h-3.5v-6.8h3.5c2.4,0,4,1.5,4,3.3v0.2C75.5,69.7,74,71.2,71.6,71.2z M74.2,67.7c0-1.3-1-2.3-2.7-2.3h-2.2v4.7h2.2c1.7,0,2.7-1,2.7-2.3V67.7z"/><path d="M78.9,71.2v-6.8h6.2v1.1h-4.9v1.8h3.8v1h-3.8v1.9h4.9v1.1H78.9z"/><path d="M94.6,71.2l-4.4-4.6l-0.4-0.5v5.1h-1.3v-6.8h1.2L94,69l0.4,0.5v-5.1h1.3v6.8H94.6z"/><path d="M103.4,65.5v5.8h-1.3v-5.8h-3v-1.1h7.3v1.1H103.4z"/><path d="M121.4,66.3c-0.6-0.6-1.5-1.1-2.7-1.1c-1.8,0-2.9,1.3-2.9,2.6v0.1c0,1.3,1,2.5,2.9,2.5c1.1,0,2.1-0.5,2.7-1.1l0.8,0.8c-0.7,0.7-2,1.4-3.5,1.4c-2.6,0-4.2-1.7-4.2-3.5v-0.2c0-1.8,1.7-3.6,4.2-3.6c1.4,0,2.8,0.6,3.5,1.4L121.4,66.3z"/><path d="M129,71.5c-2.4,0-4-1.7-4-3.6v-0.2c0-1.8,1.6-3.6,4-3.6c2.4,0,4,1.7,4,3.6v0.2C133,69.7,131.4,71.5,129,71.5z M131.7,67.7c0-1.3-1-2.5-2.7-2.5c-1.7,0-2.7,1.2-2.7,2.5v0.2c0,1.3,1,2.5,2.7,2.5c1.7,0,2.7-1.2,2.7-2.5V67.7z"/><path d="M142.5,71.2l-4.4-4.6l-0.4-0.5v5.1h-1.3v-6.8h1.2l4.3,4.6l0.4,0.5v-5.1h1.3v6.8H142.5z"/><path d="M150.6,71.5c-1.4,0-2.7-0.4-3.7-0.9l0.5-1c1.1,0.5,2.2,0.9,3.3,0.9c1.5,0,2.1-0.5,2.1-1c0-1.6-5.7-0.5-5.7-3.1c0-1.3,1.4-2.2,3.5-2.2c1.3,0,2.6,0.5,3.4,1l-0.7,0.9c-0.6-0.4-1.7-0.8-2.7-0.8c-1.3,0-2.2,0.5-2.2,1c0,1.5,5.7,0.5,5.7,3.1C154.1,70.6,152.7,71.5,150.6,71.5z"/><path d="M160.9,71.5c-2.5,0-3.6-1.3-3.6-3.1v-4h1.3v4c0,1.3,0.8,2,2.4,2c1.6,0,2.3-0.7,2.3-2v-4h1.3v4C164.6,70.1,163.5,71.5,160.9,71.5z"/><path d="M168.2,71.2v-6.8h1.3v5.8h5.4v1.1H168.2z"/><path d="M180.3,65.5v5.8h-1.3v-5.8h-3v-1.1h7.3v1.1H180.3z"/><path d="M191.9,71.2l-0.9-1.7h-4l-0.9,1.7h-1.4l3.7-6.8h1.1l3.8,6.8H191.9z M189,65.7l-1.5,2.9h3L189,65.7z"/><path d="M202.3,71.2l-4.4-4.6l-0.4-0.5v5.1h-1.3v-6.8h1.2l4.3,4.6l0.4,0.5v-5.1h1.3v6.8H202.3z"/><path d="M211.1,65.5v5.8h-1.3v-5.8h-3v-1.1h7.3v1.1H211.1z"/></svg>