<?xml version="1.0" encoding="UTF-8"?> <svg xmlns="http://www.w3.org/2000/svg" id="ab208606-5851-4a88-89a2-fef13f8e3cb5" data-name="Layer 1" viewBox="0 0 610.52 191.87"><defs><style>.f7f55430-f975-4b98-905f-aeacc4942df0{fill:#00b259;stroke:#00b259;stroke-width:0.5px;}.a54bf032-2576-476d-b58b-75b6d550907e,.ac04bace-9b32-4fb6-baa1-5134b17f5ff5,.b4acfec0-8bfd-4414-ad4f-5630e17a14e8,.b8b9e09e-5122-41d3-8a0c-13f8a6b1e782,.bdf465f7-240c-4314-8ca1-e644e0aa2009,.f7f55430-f975-4b98-905f-aeacc4942df0{stroke-miterlimit:10;}.bdf465f7-240c-4314-8ca1-e644e0aa2009{fill:#0054a4;stroke:#0054a4;}.a54bf032-2576-476d-b58b-75b6d550907e,.b4acfec0-8bfd-4414-ad4f-5630e17a14e8{fill:#e31937;}.a54bf032-2576-476d-b58b-75b6d550907e,.ac04bace-9b32-4fb6-baa1-5134b17f5ff5,.b4acfec0-8bfd-4414-ad4f-5630e17a14e8,.b8b9e09e-5122-41d3-8a0c-13f8a6b1e782{stroke:#e31937;}.b4acfec0-8bfd-4414-ad4f-5630e17a14e8{stroke-width:4.17px;}.ac04bace-9b32-4fb6-baa1-5134b17f5ff5,.b4acfec0-8bfd-4414-ad4f-5630e17a14e8{fill-rule:evenodd;}.ac04bace-9b32-4fb6-baa1-5134b17f5ff5,.b8b9e09e-5122-41d3-8a0c-13f8a6b1e782{fill:none;stroke-width:12.5px;}</style></defs><path class="f7f55430-f975-4b98-905f-aeacc4942df0" d="M13,8.42v25.4H6V8.42H.25v-6H18.77v6Z"></path><path class="f7f55430-f975-4b98-905f-aeacc4942df0" d="M30.31,33.82h-7V.25h7V13.7h.13A6.33,6.33,0,0,1,32.38,11a5.22,5.22,0,0,1,3.52-1.2,5.77,5.77,0,0,1,3.23.82A5.45,5.45,0,0,1,41,12.77a10,10,0,0,1,.89,3.15,29.5,29.5,0,0,1,.22,3.69V33.82h-7V19.56A7.25,7.25,0,0,0,34.73,17,1.65,1.65,0,0,0,33,15.88a2.22,2.22,0,0,0-2,1.18,5.92,5.92,0,0,0-.71,3.08Z"></path><path class="f7f55430-f975-4b98-905f-aeacc4942df0" d="M54.87,24a6.82,6.82,0,0,0,.24,1.84,6,6,0,0,0,.64,1.51,3.46,3.46,0,0,0,1,1,2.34,2.34,0,0,0,1.29.37A2.43,2.43,0,0,0,59.88,28,5.35,5.35,0,0,0,61,26.18l5.11,2.89a10,10,0,0,1-3.22,4.08,8.43,8.43,0,0,1-5.13,1.51,8.88,8.88,0,0,1-3.79-.8,8.62,8.62,0,0,1-3.07-2.37,11.48,11.48,0,0,1-2-3.89,17.57,17.57,0,0,1-.73-5.33,18.18,18.18,0,0,1,.68-5.17,11.69,11.69,0,0,1,2-4,8.88,8.88,0,0,1,3-2.51,9,9,0,0,1,7.9,0,7.78,7.78,0,0,1,2.77,2.55A11.11,11.11,0,0,1,66,17.1,22.82,22.82,0,0,1,66.5,22V24Zm5.24-4.53a7.47,7.47,0,0,0-.58-3.11,2,2,0,0,0-1.91-1.24,1.86,1.86,0,0,0-1.22.42,3.71,3.71,0,0,0-.87,1.07A5.35,5.35,0,0,0,55,18a6.44,6.44,0,0,0-.18,1.44Z"></path><path class="bdf465f7-240c-4314-8ca1-e644e0aa2009" d="M65.28,74.64a38.67,38.67,0,0,1-2.65,15,29.66,29.66,0,0,1-7.06,10.45,28.52,28.52,0,0,1-10,6.11,33.48,33.48,0,0,1-11.33,2H24.06v38H.94V42H33.33A40.89,40.89,0,0,1,44.6,43.58,28.79,28.79,0,0,1,54.9,49,27,27,0,0,1,62.41,59Q65.29,65.37,65.28,74.64Zm-22.08.45q0-7.08-3.39-10.16a11.78,11.78,0,0,0-8.24-3.09H24.06V89.07h7.51a10.86,10.86,0,0,0,8.24-3.61Q43.2,81.86,43.2,75.09Z"></path><path class="bdf465f7-240c-4314-8ca1-e644e0aa2009" d="M73.9,146.2V34.89H97.46V146.2Z"></path><path class="bdf465f7-240c-4314-8ca1-e644e0aa2009" d="M242.75,155.82a132.44,132.44,0,0,1-4.4,13.61A43.58,43.58,0,0,1,232,180.72a28.6,28.6,0,0,1-9.44,7.77,29.9,29.9,0,0,1-13.77,2.88,58.82,58.82,0,0,1-7.45-.48c-2.51-.32-4.72-.7-6.64-1.12L198.08,167a14.54,14.54,0,0,0,3.36,1,21.16,21.16,0,0,0,3.36.32c3.2,0,5.53-.86,7-2.56a15.73,15.73,0,0,0,3.12-6.09l1.28-4.64-25-85.82h26.42l12,55.88h.32L241,69.2h25.46Z"></path><path class="a54bf032-2576-476d-b58b-75b6d550907e" d="M274.54,69.2h22.38v13h.16q4.11-15.3,15.45-15.31c.79,0,1.42,0,1.91.07a12.25,12.25,0,0,1,1.77.37L314.74,90.4c-.79-.2-1.55-.37-2.28-.52a14.86,14.86,0,0,0-2.72-.22,8.77,8.77,0,0,0-5.16,1.55,13.62,13.62,0,0,0-3.75,4,19.9,19.9,0,0,0-2.36,5.9,29.57,29.57,0,0,0-.81,6.92V146.2H274.54Z"></path><path class="a54bf032-2576-476d-b58b-75b6d550907e" d="M532.72,69.2V80.09h.3a18.85,18.85,0,0,1,6.18-9.64q4.71-4,12.08-4,8.24,0,12.29,4a21.54,21.54,0,0,1,5.67,9.72h.29A24.94,24.94,0,0,1,572.25,75a20.16,20.16,0,0,1,16.86-8.61q6.63,0,10.75,2.72a17.92,17.92,0,0,1,6.33,7.29,34.82,34.82,0,0,1,3,10.45A89.68,89.68,0,0,1,610,99.08V146.2H587.2V98.94a22.9,22.9,0,0,0-1.47-8.54,5.53,5.53,0,0,0-5.6-3.68,7.19,7.19,0,0,0-6.55,3.9q-2.28,3.9-2.28,10.23V146.2H548.62V98.94a24,24,0,0,0-1.39-8.54,5.4,5.4,0,0,0-5.53-3.68,7.2,7.2,0,0,0-6.55,3.9q-2.28,3.9-2.28,10.23V146.2H510.2v-77Z"></path><path class="b4acfec0-8bfd-4414-ad4f-5630e17a14e8" d="M470.22,140.28c-2.81.79-5.88,1.32-8.46,2.33-.16,2.27.35,5.22-.29,7a33.06,33.06,0,0,1-9.63,0c-.55-1.81-.27-5.6-.29-7a54.63,54.63,0,0,0-7.59-2c-1.83,1.48-2.33,4.28-4.08,5.83a21.78,21.78,0,0,1-8.17-4.66c.09-3,2.22-4,2.91-6.42-1.52-2.08-3.68-3.52-5.25-5.55-2.72.4-3.94,2.28-6.42,2.92a15,15,0,0,1-5-8.46c1.52-1.69,4-2.4,5.84-3.79-.77-2.54-1.34-5.28-2-7.88-2.36-.17-5.42.35-7.3-.3-.62-2.49-.14-6.08-.29-9,1.16-1.72,5.81-1,7.59-1.17,1-2.23,1-5.4,2.33-7.29-1.47-2-5.56-1.85-6.13-4.09-.72-2.87,3.48-5.91,4.67-8.46,2.4.72,4,2.18,6.13,3.21,2.25-1.54,3.74-3.84,5.83-5.54-.9-2.22-2.25-4-3.21-6.13,1.11-1.06,5.72-5.39,8.17-5s2.15,4.12,4.09,5.83c2.63-.47,4.5-1.72,7.59-1.75.41-1.49.26-4.36.29-7,1.65-1.88,7.42-1.32,9.92-.58.77,1.85-.2,5.45.58,7.29,2.33.89,5.26,1.17,7.59,2,1.48-1.72,2-4.44,3.79-5.83a18.91,18.91,0,0,1,8.46,4.67c-.55,2.55-2.23,4-3.21,6.13,1.62,2.17,3.86,3.73,5.55,5.83,2.56-.65,3.55-2.86,6.71-2.92,2,2.09,3.12,5,4.66,7.59-1.08,2.41-4,3-6.12,4.38.89,2.51,1.21,5.6,2.33,7.87,2.35-.54,5.87-.4,7.3.88-.15,3,.33,6.55-.29,9-1.76.58-4.5.18-6.71.3-1.7,1.7-1.33,5.47-2.63,7.58,1.52,2,4.68,2.33,6.12,4.38a35.11,35.11,0,0,1-4.66,8.17c-2.72-.5-4.33-2.1-6.42-3.21-2.1,1.69-3.72,3.86-5.84,5.55.78,2.33,2.35,3.88,3.21,6.12-1.61,2.77-5.13,3.62-7.87,5.25C471.94,145.34,470.45,142.23,470.22,140.28Zm-41.14-35.89c-2,18.36,13.12,32.78,31.51,30.64,11.07-1.29,22.18-10.8,23.64-23.93C486.4,91.53,470.84,78,453,80.17A27.4,27.4,0,0,0,429.08,104.39Z"></path><path class="b4acfec0-8bfd-4414-ad4f-5630e17a14e8" d="M378.15,140.28c-2.81.79-5.88,1.32-8.46,2.33-.17,2.27.35,5.22-.29,7a33.06,33.06,0,0,1-9.63,0c-.55-1.81-.27-5.6-.29-7a54.63,54.63,0,0,0-7.59-2c-1.83,1.48-2.33,4.28-4.09,5.83a21.81,21.81,0,0,1-8.16-4.66c.09-3,2.22-4,2.91-6.42-1.52-2.08-3.68-3.52-5.25-5.55-2.72.4-3.95,2.28-6.42,2.92a15,15,0,0,1-5-8.46c1.52-1.69,4-2.4,5.83-3.79-.77-2.54-1.34-5.28-2-7.88-2.36-.17-5.41.35-7.29-.3-.62-2.49-.14-6.08-.29-9,1.16-1.72,5.81-1,7.58-1.17,1-2.23,1-5.4,2.34-7.29-1.47-2-5.56-1.85-6.13-4.09-.72-2.87,3.48-5.91,4.67-8.46,2.39.72,4,2.18,6.13,3.21,2.24-1.54,3.74-3.84,5.83-5.54-.9-2.22-2.25-4-3.21-6.13,1.11-1.06,5.72-5.39,8.17-5s2.15,4.12,4.09,5.83c2.63-.47,4.49-1.72,7.58-1.75.42-1.49.27-4.36.3-7,1.64-1.88,7.42-1.32,9.92-.58.77,1.85-.21,5.45.58,7.29,2.32.89,5.26,1.17,7.59,2,1.48-1.72,2-4.44,3.79-5.83a18.91,18.91,0,0,1,8.46,4.67c-.55,2.55-2.23,4-3.21,6.13,1.62,2.17,3.85,3.73,5.54,5.83,2.57-.65,3.56-2.86,6.71-2.92,2,2.09,3.13,5,4.67,7.59-1.08,2.41-4,3-6.12,4.38.89,2.51,1.21,5.6,2.33,7.87,2.35-.54,5.87-.4,7.3.88-.16,3,.33,6.55-.29,9-1.76.58-4.5.18-6.72.3-1.7,1.7-1.33,5.47-2.62,7.58,1.51,2,4.68,2.33,6.12,4.38a34.76,34.76,0,0,1-4.67,8.17c-2.71-.5-4.32-2.1-6.41-3.21-2.11,1.69-3.72,3.86-5.84,5.55.78,2.33,2.34,3.88,3.21,6.12-1.61,2.77-5.14,3.62-7.88,5.25C379.87,145.34,378.38,142.23,378.15,140.28ZM337,104.39c-2,18.36,13.11,32.78,31.51,30.64,11.06-1.29,22.18-10.8,23.63-23.93,2.18-19.57-13.39-33.14-31.22-30.93A27.39,27.39,0,0,0,337,104.39Z"></path><path class="ac04bace-9b32-4fb6-baa1-5134b17f5ff5" d="M386.26,108a21.08,21.08,0,1,1-21.07-21.07A21.07,21.07,0,0,1,386.26,108Z"></path><circle class="b8b9e09e-5122-41d3-8a0c-13f8a6b1e782" cx="457.19" cy="107.6" r="21.07"></circle><path class="bdf465f7-240c-4314-8ca1-e644e0aa2009" d="M165.53,71.53h19v75.88h-19v-8A37.62,37.62,0,0,1,154.35,147a31.47,31.47,0,0,1-12.16,2.33q-14.7,0-25.43-11.4T106,109.61Q106,92,116.41,80.8t25.22-11.22a32.06,32.06,0,0,1,12.82,2.58,35,35,0,0,1,11.08,7.74Zm-20,15.62a19.25,19.25,0,0,0-14.67,6.24q-5.84,6.26-5.83,16T131,125.58a19.26,19.26,0,0,0,14.63,6.35,19.6,19.6,0,0,0,14.88-6.25q5.89-6.24,5.9-16.35,0-9.9-5.9-16A19.87,19.87,0,0,0,145.51,87.15Z"></path></svg> 