<?xml version="1.0" encoding="utf-8"?>
<svg xmlns="http://www.w3.org/2000/svg" id="Layer_1" style="enable-background:new 0 0 800 96.1;" version="1.1" viewBox="0 0 800 96.1" x="0px" y="0px">
<style type="text/css">
	.st0{fill:#231F20;}
	.st1{fill:#9E303A;}
	.st2{fill:#FEDE08;}
	.st3{fill:#F16623;}
</style>
<path class="st0" d="M106.82,52.21V22.19c0-0.74-0.07-3.3-0.13-7.61c-6.94,0.2-10.9,0.47-11.78,0.47c-1.28,0-1.82-0.34-1.82-1.28&#xD;&#xA;	c0-1.21,0.47-1.41,2.02-1.41h44.43c1.55,0,2.02,0.2,2.02,1.41c0,0.94-0.54,1.28-1.82,1.28c-0.87,0-4.78-0.27-11.71-0.47&#xD;&#xA;	c-0.07,4.3-0.13,6.87-0.13,7.61v30.02c0,0.74,0.06,3.36,0.13,7.68h-21.34C106.76,55.58,106.82,52.95,106.82,52.21"/>
<path class="st0" d="M144.19,11.69h18.18c-0.07,4.31-0.21,6.86-0.21,7.61v7.74c5.52-4.04,10.64-6.06,15.89-6.06&#xD;&#xA;	c4.24,0,7.81,1.28,9.69,3.16c3.23,3.24,3.23,7.07,3.23,12.46v15.55c0,0.74,0.07,3.37,0.14,7.67h-18.18&#xD;&#xA;	c0.07-4.31,0.14-6.93,0.14-7.67v-23.9c0-1.88-0.61-2.83-2.42-2.83c-2.36,0-4.98,1.55-8.49,4.31v22.42c0,0.74,0.14,3.37,0.21,7.67&#xD;&#xA;	h-18.18c0.07-4.31,0.13-6.93,0.13-7.67V19.29C144.32,18.55,144.26,16,144.19,11.69"/>
<path class="st0" d="M210.97,39.76V26.43c0-2.69,0.94-3.77,4.38-3.77c3.57,0,4.64,1.01,4.64,3.77v13.33H210.97z M210.97,41.91h24.17&#xD;&#xA;	c-0.4-13.12-8.69-21.41-19.93-21.41c-5.45,0-10.37,1.89-14.07,5.32c-4.31,3.97-6.59,9.22-6.59,15.01c0,6.73,3.16,12.93,8.41,16.56&#xD;&#xA;	c3.5,2.42,7.54,3.7,11.85,3.7c5.52,0,10.84-2.09,15.35-6.06c2.63-2.29,3.98-3.91,3.98-5.19c0-0.81-0.61-1.42-1.34-1.42&#xD;&#xA;	c-1.41,0-2.43,2.83-6.26,6.06c-3.43,2.83-7.68,4.37-11.51,4.37c-3.3,0-4.04-1.01-4.04-4.17V41.91z"/>
<path class="st0" d="M246.31,78.37V26.66c0-1.27-0.12-5.68-0.23-13.1c-11.94,0.35-18.78,0.81-20.29,0.81c-2.2,0-3.13-0.58-3.13-2.2&#xD;&#xA;	c0-2.08,0.81-2.43,3.47-2.43h76.51c2.66,0,3.48,0.35,3.48,2.43c0,1.62-0.93,2.2-3.13,2.2c-1.51,0-8.23-0.46-20.17-0.81&#xD;&#xA;	c-0.12,7.42-0.23,11.83-0.23,13.1v51.71c0,1.27,0.12,5.8,0.23,13.21h-36.75C246.19,84.16,246.31,79.64,246.31,78.37"/>
<path class="st0" d="M311.23,78.25V39.18c0-1.27-0.12-5.79-0.23-13.21h31.3c-0.12,7.42-0.35,11.94-0.35,13.21v39.07&#xD;&#xA;	c0,1.27,0.23,5.79,0.35,13.22H311C311.11,84.04,311.23,79.52,311.23,78.25 M326.53,5.33c10.09,0,16,3.71,16,8.58&#xD;&#xA;	c0,4.87-5.91,8.46-16,8.46c-10.2,0-16-3.71-16-8.46C310.53,9.16,316.33,5.33,326.53,5.33"/>
<path class="st0" d="M346.35,8.57h31.3c-0.12,7.53-0.35,11.82-0.35,13.1v56.57c0,1.28,0.23,5.8,0.35,13.22h-31.3&#xD;&#xA;	c0.11-7.42,0.23-11.94,0.23-13.22V21.67C346.59,20.4,346.47,15.99,346.35,8.57"/>
<path class="st0" d="M409.42,56.92V33.96c0-4.64,1.62-6.49,7.53-6.49c6.14,0,8,1.74,8,6.49v22.95H409.42z M409.42,60.63h41.62&#xD;&#xA;	c-0.7-22.6-14.96-36.87-34.32-36.87c-9.39,0-17.86,3.25-24.23,9.16c-7.42,6.84-11.36,15.88-11.36,25.85&#xD;&#xA;	c0,11.6,5.44,22.26,14.49,28.52c6.03,4.18,12.99,6.37,20.41,6.37c9.5,0,18.66-3.59,26.43-10.43c4.52-3.94,6.84-6.72,6.84-8.93&#xD;&#xA;	c0-1.39-1.04-2.44-2.32-2.44c-2.43,0-4.17,4.87-10.78,10.44c-5.92,4.87-13.22,7.53-19.83,7.53c-5.68,0-6.95-1.74-6.95-7.18V60.63z"/>
<path class="st0" d="M496.85,59.93c-9.97-10.9-15.65-19.25-15.65-28.29c0-14.15,12.86-24.58,33.15-24.58c8,0,14.38,1.74,21.34,5.45&#xD;&#xA;	c3.82,2.09,5.67,4.06,5.67,5.34c0,0.92-0.81,1.62-1.74,1.62c-1.51,0-2.9-1.86-5.33-3.71c-4.52-3.36-10.2-5.1-16-5.1&#xD;&#xA;	c-4.98,0-7.76,2.09-7.76,4.98c0,3.02,2.78,6.96,8.11,12.52l15.53,16.35c8.35,8.81,12.63,17.15,12.63,24.92&#xD;&#xA;	c0,14.26-12.86,24.58-34.31,24.58c-10.2,0-19.6-3.01-27.82-9.16c-3.36-2.55-5.1-4.06-5.1-5.45c0-1.16,0.93-2.09,1.97-2.09&#xD;&#xA;	c1.86,0,3.26,1.97,6.38,4.29c7.19,5.33,13.33,8.46,19.93,8.46c5.23,0,8.24-2.09,8.24-5.45c0-2.89-2.55-6.38-7.19-11.36L496.85,59.93&#xD;&#xA;	z"/>
<path class="st0" d="M552.03,8.57h31.3c-0.11,7.42-0.35,11.82-0.35,13.1v13.33c9.5-6.95,18.32-10.43,27.37-10.43&#xD;&#xA;	c7.3,0,13.44,2.2,16.69,5.45c5.55,5.56,5.55,12.17,5.55,21.44v26.78c0,1.28,0.13,5.8,0.24,13.22h-31.3&#xD;&#xA;	c0.11-7.42,0.23-11.94,0.23-13.22V37.1c0-3.25-1.04-4.87-4.18-4.87c-4.05,0-8.57,2.67-14.61,7.42v38.6c0,1.28,0.24,5.8,0.35,13.22&#xD;&#xA;	h-31.3c0.12-7.42,0.24-11.94,0.24-13.22V21.67C552.27,20.4,552.15,15.99,552.03,8.57"/>
<path class="st0" d="M671.78,89.84V27.71h0.93c18.9,0,32.35,13.91,32.35,31.06c0,17.27-13.45,31.07-32.58,31.07H671.78z&#xD;&#xA;	 M638.75,58.77c0,9.5,3.59,18.08,10.32,24.81c6.6,6.6,15.3,10.08,24.69,10.08c9.51,0,18.09-3.59,24.7-10.2&#xD;&#xA;	c6.61-6.61,10.2-15.3,10.2-24.69c0-9.39-3.59-18.2-10.2-24.81c-6.61-6.61-15.31-10.2-24.7-10.2c-9.39,0-18.09,3.59-24.69,10.2&#xD;&#xA;	C642.34,40.69,638.75,49.27,638.75,58.77"/>
<path class="st0" d="M742.97,38.95c4.87-6.03,9.5-8.93,12.64-8.93c3.12,0,4.06,2.2,4.06,7.07v35.93c0,4.87-0.93,7.07-4.06,7.07&#xD;&#xA;	c-3.13,0-7.77-2.9-12.64-8.93V38.95z M712.01,96.1h31.31c-0.12-7.42-0.35-11.94-0.35-13.22v-6.61c6.5,6.49,13.22,9.51,21.33,9.51&#xD;&#xA;	c17.16,0,28.29-11.71,28.29-30.72c0-19.01-11.13-30.72-28.29-30.72c-8.11,0-14.83,3.01-21.33,9.5c0.12-2.78,0.23-5.44,0.35-7.88&#xD;&#xA;	h-31.31c0.12,7.41,0.24,11.94,0.24,13.21v43.71C712.25,84.16,712.13,88.68,712.01,96.1"/>
<rect class="st1" height="25.32" width="25.33" x="94.68" y="65.95"/>
<rect class="st1" height="25.32" width="25.33" x="124.47" y="65.95"/>
<rect class="st1" height="25.32" width="25.33" x="154.27" y="65.95"/>
<rect class="st1" height="25.32" width="25.32" x="184.07" y="65.95"/>
<rect class="st1" height="25.32" width="25.33" x="4.5" y="65.95"/>
<rect class="st1" height="25.32" width="25.33" x="34.3" y="65.95"/>
<rect class="st1" height="25.32" width="25.33" x="64.1" y="65.95"/>
<rect class="st1" height="25.32" width="25.32" x="214.65" y="65.95"/>
<g>
	<rect class="st2" height="25.32" width="25.33" x="4.5" y="5.41"/>
	<rect class="st2" height="25.32" width="25.33" x="34.3" y="5.41"/>
	<rect class="st2" height="25.32" width="25.33" x="64.09" y="5.41"/>
	<rect class="st3" height="25.32" width="25.33" x="4.5" y="35.37"/>
	<rect class="st3" height="25.32" width="25.33" x="34.3" y="35.37"/>
	<rect class="st3" height="25.32" width="25.33" x="64.09" y="35.37"/>
</g>
</svg>