<svg width="100%" style="" viewBox="0 0 288 74" fill="#fff" xmlns="http://www.w3.org/2000/svg" aria-hidden="true">
<path d="M150.25 0.849895L133.61 0.869895C132.9 0.869895 132.17 1.08989 132.17 2.07989L132.22 42.0799C132.22 42.7499 132.74 43.3599 133.42 43.4499C133.42 43.4499 145.5 43.5299 151.79 43.4199C161 43.2699 167.11 39.2399 166.82 30.6899C166.52 23.6299 161.22 21.4499 159.42 20.9099C159.2 20.8499 159.16 20.5699 159.35 20.4399C159.96 20.0199 163.8 18.1799 163.63 11.7999C163.32 0.299895 150.24 0.849895 150.24 0.849895H150.25ZM142.34 8.93989C142.34 8.33989 143.01 7.8699 143.62 7.8499H147.89C153.83 7.8399 153.25 12.9799 153.25 12.9799C153.25 12.9799 153.27 17.7199 147.91 17.7199H143.64C143.08 17.7199 142.37 17.2399 142.36 16.6899V8.9299L142.34 8.93989ZM148.71 36.3699H143.38C142.82 36.3699 142.37 35.8299 142.37 35.2699V26.1499C142.35 25.5699 142.75 25.1199 143.33 25.0699H148.9C155.63 25.0499 155.56 30.5999 155.56 30.5999C155.56 30.5999 156.26 36.3599 148.71 36.3699Z" fill="#fff"></path>
<path d="M263.05 2.07988C263.05 1.33988 262.38 0.689877 261.64 0.699877H253.43C252.83 0.719877 252.39 1.13988 252.39 1.73988L252.45 41.8999C252.45 42.6399 253.11 43.2999 253.85 43.2799H261.68C262.28 43.2599 262.73 42.8099 262.74 42.2099V32.3499C262.73 32.1099 262.81 31.8799 262.96 31.6899L265.52 28.6299C266.24 27.8699 266.8 28.2299 267.17 28.7099L275.96 42.6499C276.23 43.0199 276.66 43.2499 277.1 43.2399H286.95C287.9 43.2099 288.34 42.2099 287.74 41.3999L274.46 21.1899C274.38 21.0599 274.38 20.8899 274.46 20.7699L287.06 2.68988C287.64 1.93988 287.02 0.739877 286.01 0.659877H276.46C276.07 0.639877 275.7 0.799877 275.48 1.09988L263.76 16.9699C263.54 17.2599 263.08 17.1099 263.08 16.7499L263.06 2.07988H263.05Z" fill="#fff"></path>
<path d="M37.43 23.2907L31.19 1.83067C31.03 1.29067 30.46 0.910667 29.94 1.02067H20.93C20.42 1.14067 20.15 1.65067 20.31 2.17067L25.01 17.1207C25.04 17.2107 25.04 17.3207 25.01 17.4107L21.11 27.5607C20.79 28.3807 19.56 28.2107 19.26 27.3107L10.75 1.83067C10.58 1.31067 10.03 0.950667 9.51998 1.05067H0.679977C0.159977 1.16067 -0.130023 1.69067 0.0599767 2.23067L13.99 42.8607C14.15 43.3107 14.59 43.6307 15.06 43.6207H22.55C22.91 43.6007 23.21 43.3907 23.33 43.0707L27.91 30.8407C28.22 30.0107 29.48 30.1807 29.76 31.0907L33.37 42.8107C33.51 43.2707 33.96 43.6107 34.43 43.6007H42.05C42.41 43.5807 42.71 43.3807 42.84 43.0607L58.47 2.38067C58.7 1.79067 58.24 1.08067 57.58 0.980667H48.54C48.12 0.930667 47.74 1.15067 47.6 1.53067L39.28 23.5607C38.96 24.4007 37.69 24.2107 37.42 23.2907H37.43Z" fill="#fff"></path>
<path d="M94.0698 41.9504L79.5398 1.89038C79.3398 1.33038 78.7698 0.940383 78.1998 0.950383H68.7098C68.1298 0.950383 67.5698 1.34038 67.3698 1.90038L52.9498 42.0004C52.6798 42.7604 53.1498 43.4904 53.9298 43.5004H62.3998C62.9898 43.5004 63.5498 43.1304 63.7298 42.5604L65.9398 36.1604C66.1298 35.5804 66.6898 35.1704 67.2798 35.1804L79.7298 35.1604C80.3198 35.1504 80.8798 35.5604 81.0698 36.1404L83.2898 42.5404C83.4798 43.1204 84.0398 43.4804 84.6298 43.4704H93.0998C93.8798 43.4404 94.3498 42.7104 94.0798 41.9504H94.0698ZM69.2398 27.9604C68.9598 27.9604 68.7698 27.6904 68.8498 27.4304L72.5598 15.9904C72.8198 15.1004 74.1498 15.0904 74.3898 15.9904L78.1298 27.4204C78.2198 27.6804 78.0198 27.9604 77.7398 27.9604H69.2398Z" fill="#fff"></path>
<path d="M210.39 41.7902L195.85 1.73023C195.65 1.17023 195.08 0.780227 194.51 0.790227H185.02C184.44 0.790227 183.88 1.18023 183.68 1.74023L169.26 41.8402C168.99 42.6002 169.46 43.3302 170.24 43.3402H178.71C179.3 43.3402 179.86 42.9702 180.04 42.4002L182.25 36.0002C182.44 35.4202 183 35.0102 183.59 35.0202L196.04 35.0002C196.63 34.9902 197.19 35.4002 197.38 35.9802L199.6 42.3802C199.79 42.9602 200.35 43.3202 200.94 43.3102H209.41C210.19 43.2802 210.66 42.5502 210.39 41.7902ZM185.55 27.8002C185.27 27.8002 185.08 27.5302 185.16 27.2702L188.87 15.8302C189.13 14.9402 190.46 14.9302 190.7 15.8302L194.44 27.2602C194.53 27.5202 194.33 27.8002 194.05 27.8002H185.55Z" fill="#fff"></path>
<path d="M243.01 33.2403C242.83 32.6303 242.18 32.3103 241.56 32.5303L239.41 33.1903C236.42 34.2803 231.63 34.0703 228.84 32.7103C225 30.8503 223.05 26.4403 223.1 22.0103C223.04 17.5903 224.98 13.1703 228.81 11.3003C231.6 9.94029 236.38 9.72029 239.38 10.8003L241.54 11.4603C242.16 11.6703 242.81 11.3603 242.98 10.7403C243.48 9.02029 244.44 5.74029 244.86 4.36029C245.52 2.23029 243.52 1.81029 241.74 1.26029C232.01 -1.74971 217.49 -0.0197067 213 13.3403C212.06 16.1203 211.64 19.0903 211.71 22.0303C211.65 24.9703 212.08 27.9403 213.03 30.7203C217.56 44.0703 232.08 45.7503 241.8 42.7203C243.58 42.1703 245.58 41.7403 244.92 39.6103C244.49 38.2303 243.52 34.9603 243.02 33.2403H243.01Z" fill="#fff"></path>
<path d="M126.31 0.870493H117.61C117.15 0.810493 116.72 1.02049 116.5 1.40049L109.17 14.8705C108.94 15.2605 108.52 15.4205 108.1 15.3705C107.68 15.4205 107.26 15.2605 107.03 14.8705L99.6598 1.42049C99.4398 1.05049 99.0098 0.840493 98.5498 0.910493H89.8498C88.9298 1.06049 88.3598 2.11049 88.8098 2.85049L102.14 25.7705C102.24 25.9305 102.3 26.3805 102.3 26.5705L102.32 42.4505C102.34 43.0405 102.7 43.4705 103.3 43.4905H112.98C113.57 43.4605 113.94 43.0205 113.95 42.4405L113.93 26.5605C113.93 26.3705 114 25.9205 114.09 25.7605L127.36 2.80049C127.81 2.06049 127.24 1.01049 126.31 0.880493V0.870493Z" fill="#fff"></path>
<path d="M76.22 56.7103C76.22 56.3703 76.5 56.0903 76.84 56.0803H82.75C84.3 56.0703 85.48 56.4403 86.29 57.1903C87.1 57.9403 87.5 59.0103 87.5 60.4103C87.5 61.2603 87.35 61.9703 87.04 62.5303C86.9 62.7903 86.73 63.0303 86.52 63.2503C86.21 63.5803 86.32 64.1003 86.74 64.2603C86.92 64.3303 87.09 64.4103 87.25 64.5003C87.69 64.7503 88.05 65.0503 88.33 65.4103C88.61 65.7703 88.8 66.1703 88.92 66.6203C89.04 67.0703 89.1 67.5503 89.1 68.0503C89.1 68.8403 88.96 69.5403 88.69 70.1603C88.41 70.7703 88.03 71.2903 87.53 71.7103C87.03 72.1303 86.42 72.4403 85.71 72.6503C84.99 72.8603 84.19 72.9703 83.29 72.9703H76.86C76.52 72.9703 76.24 72.7003 76.23 72.3603L76.21 56.7303L76.22 56.7103ZM80.62 62.7003H81.43C82.8 62.7003 83.49 62.1503 83.49 61.0603C83.49 59.9703 82.8 59.4303 81.43 59.4303H80.62V62.7003ZM80.63 69.5603H81.59C82.69 69.5603 83.49 69.4103 83.96 69.1303C84.43 68.8503 84.68 68.3903 84.67 67.7603C84.66 67.1303 84.43 66.6803 83.95 66.4003C83.47 66.1203 82.68 65.9803 81.58 65.9803H80.62V69.5603H80.63Z" fill="#fff"></path>
<path d="M98.7698 56.0508C99.1498 56.0508 99.4598 56.3608 99.4598 56.7408V65.2308C99.4698 65.7208 99.4898 66.2308 99.5298 66.7408C99.5698 67.2508 99.6798 67.7208 99.8698 68.1408C100.06 68.5608 100.35 68.9008 100.76 69.1608C101.16 69.4208 101.73 69.5508 102.46 69.5508C103.19 69.5508 103.75 69.4208 104.15 69.1608C104.55 68.9008 104.84 68.5608 105.03 68.1408C105.22 67.7208 105.34 67.2608 105.38 66.7408C105.42 66.2308 105.43 65.7208 105.43 65.2308V56.7408C105.42 56.3608 105.73 56.0508 106.11 56.0508H109.09C109.47 56.0508 109.78 56.3508 109.78 56.7408V65.8308C109.8 68.4608 109.2 70.3808 108 71.5908C106.8 72.8008 104.95 73.4108 102.46 73.4108C99.9698 73.4108 98.1098 72.8108 96.8998 71.6008C95.6898 70.3908 95.0798 68.4808 95.0798 65.8508V56.7608C95.0698 56.3808 95.3798 56.0708 95.7598 56.0708H98.7598L98.7698 56.0508Z" fill="#fff"></path>
<path d="M129.41 72.8905H125.64C125.42 72.8905 125.21 72.7805 125.09 72.5905L122.3 68.2805C121.94 67.7305 121.09 67.9805 121.09 68.6405V72.2405C121.09 72.6005 120.8 72.9005 120.44 72.9005H117.37C117.01 72.9005 116.71 72.6105 116.71 72.2505L116.69 56.6805C116.69 56.3205 116.98 56.0205 117.35 56.0205H123.52C124.46 56.0205 125.28 56.1505 125.98 56.4205C126.68 56.7005 127.26 57.0705 127.72 57.5505C128.18 58.0305 128.52 58.5805 128.75 59.2105C128.98 59.8405 129.1 60.5105 129.1 61.2305C129.1 62.5105 128.79 63.5605 128.18 64.3605C127.72 64.9505 127.1 65.4105 126.31 65.7205C125.9 65.8805 125.74 66.3805 126.01 66.7405L129.94 71.8505C130.27 72.2805 129.96 72.9105 129.42 72.9105L129.41 72.8905ZM121.08 63.5705H121.91C122.78 63.5705 123.44 63.3905 123.9 63.0305C124.36 62.6705 124.59 62.1605 124.59 61.4805C124.59 60.8105 124.36 60.2905 123.89 59.9405C123.42 59.5905 122.76 59.4005 121.9 59.4105H121.07V63.5805L121.08 63.5705Z" fill="#fff"></path>
<path d="M144.51 63.4207H152.04C152.37 63.4107 152.63 63.6807 152.63 64.0007C152.62 64.6707 152.58 65.2807 152.53 65.8507C152.46 66.5807 152.31 67.2607 152.08 67.8907C151.77 68.7707 151.34 69.5507 150.81 70.2307C150.27 70.9107 149.64 71.4807 148.92 71.9307C148.2 72.3907 147.4 72.7307 146.54 72.9707C145.67 73.2107 144.76 73.3307 143.81 73.3307C142.5 73.3307 141.3 73.1207 140.22 72.6907C139.14 72.2607 138.21 71.6507 137.43 70.8707C136.65 70.0907 136.05 69.1507 135.61 68.0507C135.18 66.9507 134.96 65.7407 134.96 64.4107C134.96 63.1007 135.17 61.8907 135.59 60.7907C136.01 59.6907 136.62 58.7507 137.4 57.9807C138.18 57.2007 139.13 56.6007 140.23 56.1607C141.33 55.7307 142.56 55.5107 143.92 55.5107C145.68 55.5107 147.23 55.8907 148.56 56.6507C149.73 57.3207 150.68 58.3107 151.42 59.6207C151.59 59.9207 151.44 60.3007 151.13 60.4307L148.07 61.7007C147.8 61.8107 147.47 61.7007 147.34 61.4507C146.99 60.7707 146.55 60.2607 146.04 59.9307C145.42 59.5307 144.71 59.3307 143.92 59.3307C143.26 59.3307 142.67 59.4507 142.13 59.7007C141.59 59.9507 141.13 60.3007 140.75 60.7507C140.37 61.2107 140.07 61.7507 139.86 62.4007C139.64 63.0407 139.54 63.7607 139.54 64.5507C139.54 65.2707 139.63 65.9307 139.82 66.5407C140.01 67.1507 140.29 67.6807 140.66 68.1307C141.03 68.5807 141.5 68.9207 142.05 69.1707C142.6 69.4207 143.25 69.5407 143.98 69.5407C144.41 69.5407 144.83 69.4907 145.23 69.3907C145.63 69.2907 145.99 69.1407 146.32 68.9207C146.64 68.7007 146.9 68.4207 147.11 68.0807C147.19 67.9407 147.27 67.7907 147.33 67.6307C147.48 67.2407 147.2 66.8307 146.78 66.8307H144.51C144.19 66.8307 143.93 66.5707 143.92 66.2507V64.0207C143.92 63.7007 144.18 63.4407 144.5 63.4307L144.51 63.4207Z" fill="#fff"></path>
<path d="M167.62 59.6699H163.9C163.49 59.6699 163.15 60.0099 163.15 60.4199V61.7499C163.15 62.1599 163.49 62.4999 163.9 62.4999H167.33C167.74 62.4999 168.08 62.8299 168.08 63.2399V65.4599C168.08 65.8699 167.75 66.2099 167.34 66.2099H163.91C163.5 66.2099 163.16 66.5499 163.16 66.9599V68.3799C163.16 68.7899 163.5 69.1299 163.91 69.1299H167.63C168.04 69.1299 168.38 69.4599 168.38 69.8699V72.0899C168.38 72.4999 168.05 72.8399 167.64 72.8399H159.53C159.12 72.8499 158.78 72.5199 158.78 72.1099L158.76 56.7199C158.76 56.3099 159.09 55.9699 159.51 55.9699H167.62C168.03 55.9599 168.37 56.2899 168.37 56.6999V58.9199C168.37 59.3299 168.04 59.6699 167.63 59.6699H167.62Z" fill="#fff"></path>
<path d="M187.89 72.8104H183.77C183.59 72.8104 183.43 72.7304 183.33 72.5804L180.25 67.8204C179.97 67.3804 179.29 67.5804 179.29 68.1004V72.3004C179.29 72.5904 179.06 72.8204 178.78 72.8204H175.43C175.14 72.8204 174.91 72.5904 174.91 72.3004L174.89 56.4604C174.89 56.1704 175.12 55.9404 175.41 55.9404H181.72C182.66 55.9404 183.48 56.0704 184.18 56.3404C184.88 56.6204 185.46 56.9904 185.92 57.4704C186.38 57.9504 186.72 58.5004 186.95 59.1304C187.18 59.7604 187.3 60.4304 187.3 61.1504C187.3 62.4304 186.99 63.4804 186.38 64.2804C185.89 64.9204 185.21 65.3904 184.34 65.7004C184.01 65.8204 183.89 66.2204 184.1 66.5004L188.31 71.9804C188.57 72.3204 188.33 72.8204 187.9 72.8204L187.89 72.8104ZM179.28 63.4904H180.11C180.98 63.4904 181.64 63.3104 182.1 62.9504C182.56 62.5904 182.79 62.0804 182.79 61.4004C182.79 60.7304 182.56 60.2104 182.09 59.8604C181.63 59.5004 180.96 59.3204 180.1 59.3304H179.27V63.5004L179.28 63.4904Z" fill="#fff"></path>
<path d="M203.77 59.4802C203.57 59.8702 203.09 59.9902 202.72 59.7602C202.46 59.6002 202.21 59.4702 201.95 59.3802C201.47 59.1902 201.01 59.1002 200.56 59.1002C199.99 59.1002 199.53 59.2402 199.17 59.5102C198.81 59.7802 198.63 60.1302 198.63 60.5602C198.63 60.8602 198.72 61.1002 198.9 61.3002C199.08 61.4902 199.31 61.6602 199.61 61.8002C199.9 61.9402 200.23 62.0602 200.6 62.1702C200.97 62.2702 201.33 62.3902 201.69 62.5002C203.12 62.9802 204.17 63.6102 204.84 64.4102C205.5 65.2102 205.84 66.2502 205.84 67.5302C205.84 68.4002 205.7 69.1802 205.41 69.8802C205.12 70.5802 204.7 71.1802 204.14 71.6802C203.58 72.1802 202.89 72.5702 202.08 72.8502C201.27 73.1302 200.34 73.2702 199.32 73.2702C197.4 73.2702 195.61 72.7602 193.94 71.7402C193.62 71.5402 193.52 71.1202 193.69 70.7802L194.84 68.6102C195.05 68.2202 195.56 68.1002 195.91 68.3702C196.34 68.6902 196.77 68.9402 197.2 69.1302C197.84 69.4102 198.48 69.5502 199.1 69.5502C199.82 69.5502 200.35 69.3802 200.7 69.0602C201.05 68.7302 201.23 68.3602 201.22 67.9402C201.22 67.6902 201.17 67.4702 201.08 67.2802C200.99 67.0902 200.84 66.9202 200.63 66.7702C200.42 66.6102 200.15 66.4702 199.81 66.3302C199.47 66.2002 199.07 66.0502 198.59 65.8802C198.02 65.7002 197.47 65.5002 196.92 65.2902C196.37 65.0802 195.89 64.7902 195.46 64.4302C195.03 64.0702 194.69 63.6202 194.43 63.0802C194.17 62.5402 194.04 61.8502 194.04 61.0102C194.04 60.1702 194.18 59.4202 194.45 58.7402C194.73 58.0602 195.11 57.4802 195.61 56.9902C196.11 56.5002 196.72 56.1302 197.44 55.8602C198.16 55.5902 198.97 55.4602 199.87 55.4502C200.71 55.4502 201.58 55.5602 202.49 55.7902C203.15 55.9602 203.79 56.1802 204.41 56.4602C204.8 56.6302 204.97 57.0902 204.78 57.4702L203.76 59.4802H203.77Z" fill="#fff"></path>
<path d="M213.14 55.7207C213.49 55.7207 213.82 55.7807 214.13 55.9107C214.44 56.0407 214.72 56.2307 214.97 56.4707C215.21 56.7107 215.4 56.9907 215.52 57.3007C215.64 57.6107 215.71 57.9307 215.71 58.2807C215.71 58.6307 215.65 58.9607 215.52 59.2607C215.39 59.5607 215.21 59.8407 214.97 60.0707C214.71 60.3207 214.43 60.5107 214.12 60.6407C213.81 60.7707 213.49 60.8407 213.15 60.8407C212.81 60.8407 212.48 60.7807 212.18 60.6507C211.87 60.5207 211.6 60.3307 211.35 60.0807C211.11 59.8407 210.92 59.5607 210.79 59.2607C210.66 58.9507 210.6 58.6307 210.6 58.2907C210.6 57.9507 210.66 57.6207 210.79 57.3107C210.92 57.0007 211.11 56.7207 211.36 56.4607C211.6 56.2207 211.87 56.0307 212.17 55.9107C212.47 55.7907 212.8 55.7207 213.14 55.7207ZM215.41 58.2907C215.41 57.9807 215.35 57.6907 215.24 57.4207C215.13 57.1507 214.97 56.9007 214.75 56.6907C214.31 56.2507 213.77 56.0307 213.14 56.0307C212.84 56.0307 212.55 56.0807 212.28 56.1907C212.01 56.3007 211.78 56.4607 211.57 56.6707C211.35 56.8907 211.18 57.1407 211.07 57.4207C210.96 57.7007 210.9 57.9807 210.9 58.2807C210.9 58.5807 210.96 58.8607 211.07 59.1307C211.18 59.4007 211.35 59.6407 211.56 59.8607C211.77 60.0807 212.02 60.2407 212.29 60.3507C212.56 60.4607 212.84 60.5207 213.14 60.5207C213.44 60.5207 213.73 60.4607 214.01 60.3507C214.28 60.2407 214.53 60.0707 214.75 59.8507C214.96 59.6407 215.13 59.4007 215.24 59.1407C215.35 58.8707 215.41 58.5907 215.41 58.2807V58.2907ZM213.22 56.7707C214.03 56.7707 214.44 57.0407 214.44 57.5707C214.44 57.7707 214.38 57.9507 214.26 58.0807C214.14 58.2207 213.97 58.3107 213.76 58.3407L214.42 59.6807H213.87L213.25 58.4107H212.63V59.6807H212.14V56.7607H213.22V56.7707ZM212.62 57.1007V58.1107H213.13C213.4 58.1107 213.6 58.0707 213.73 58.0007C213.86 57.9307 213.92 57.8007 213.92 57.6107C213.92 57.4207 213.85 57.2907 213.72 57.2107C213.59 57.1307 213.39 57.0907 213.11 57.0907H212.61L212.62 57.1007Z" fill="#fff"></path>
</svg>