<?xml version="1.0" encoding="UTF-8"?>
<!-- Generator: Adobe Illustrator 27.0.1, SVG Export Plug-In . SVG Version: 6.00 Build 0)  -->
<svg version="1.1" id="Layer_4" xmlns="http://www.w3.org/2000/svg" xmlns:xlink="http://www.w3.org/1999/xlink" x="0px" y="0px" viewBox="0 0 792 295.6" style="enable-background:new 0 0 792 295.6;" xml:space="preserve">
<style type="text/css">
	.st0{fill:#F47523;}
	.st1{fill:#17AA4A;}
	.st2{fill:#183B29;}
</style>
<g>
	<path class="st0" d="M5.7,80.9C5.7,170.4,78.3,243,167.9,243c11.9,0,23.5-1.3,34.7-3.8c-22.8-10.5-46.4-26.3-49.8-46.8   c-2.3-14.3,7-28.2,24.7-31.8c15.9-3.2,29.4,3.1,40.1,11.9l1.4-1.1c31.4-25.7,71.7-4.8,62.5,25c29.9-29.4,48.5-70.4,48.5-115.6H5.7z   "/>
	<path class="st1" d="M732.4,24.7c-3.3,4.9-28.3,26.4-29.9,25.2c-1.4-1,8.9-32.3,12.2-37.2c3.3-4.9,10-6.2,14.9-2.9   S735.7,19.8,732.4,24.7z"/>
	<path class="st1" d="M774.1,45.8c-8.9,5.1-63.1,21-63.9,19.5c-1.1-1.9,40.3-40.2,49.2-45.2s19.4-3.4,23.4,3.7   C786.9,30.9,783,40.7,774.1,45.8z"/>
	<g>
		<path class="st2" d="M410.4,168.6l32.8-87.4h-20.8l-12.5,38h-0.2l-13.1-38h-20.9l24.3,62.2l-10.4,25.1H410.4z M476.6,148.7    c19.7,0,35.3-14.5,35.3-35.1c0-19.8-15.6-34.6-35.3-34.6c-19.6,0-35.3,14.5-35.3,34.8C441.3,134,456.7,148.7,476.6,148.7z     M476.5,97.4c9.2,0,15.8,7.8,15.8,16.5c0,8.7-6.5,16.5-15.7,16.5c-8.9,0-15.7-7.6-15.7-16.5C460.9,104.9,467.9,97.4,476.5,97.4z     M544.7,148.9c8.9,0,14-3.1,16.9-9.1h0.2v7h18.5V81.2h-19.6v36.4c0,8-3.8,13-11.2,13c-7.4,0-10.5-4-10.5-12.6V81.2h-19.6v40.7    C519.4,140.6,530.8,148.9,544.7,148.9z M631.4,110.7V147H651v-41.8c0-19.4-12.5-26-24.3-26c-7.9,0-13.7,2.5-17.8,9.2l-0.2-7h-18.3    V147h19.6v-36.1c0-8.9,3.3-13.2,11.2-13.2C628.3,97.7,631.4,101.8,631.4,110.7z M709,81.2v6.1h-0.2c-3.2-5.1-9.7-8.3-18.2-8.3    c-18.9,0-32.9,15.2-32.9,35.3c0,19.7,13.8,34.5,32.9,34.5c8,0,15.3-3.5,18.3-9.8v1.9c0,11.9-6,18.4-15.9,18.4    c-4.8,0-9.2-1.7-11.4-6.5h-22.7c1.3,9.6,8.6,18,20.3,21.4c-12.6,0.7-23.8,8.9-23.8,21.3c0,7.7,4.4,14.2,20.9,19.2    c9.8,3.1,12,5,12,8.6c0,3.1-3.4,5.1-6.8,5.1c-3.9,0-6.8-1.9-7.4-6h-19.5c1.4,13.3,11.9,21.7,26.7,21.7c14.9,0,26.7-8.6,26.7-22.3    c0-9.6-5.1-15.8-20.7-20c-9.1-2.4-12.3-4.1-12.3-7.7c0-2.5,2.4-4.4,5.7-4.4c3.2,0,5.9,1.2,6,5h19.2c-0.7-9.4-6.2-16-14.6-19    c16.3-0.1,29-7,33.7-16.1c2.4-4.5,3.5-11.2,3.5-20.1V81.2H709z M692.9,130.6c-9.4,0-15.7-7.7-15.7-16.9c0-9,7-16.3,15.7-16.3    c9.6,0,16.1,7.3,16.1,16.9C709,123.7,702.5,130.6,692.9,130.6z M434.7,225.8c-9.1,0-15.6-7.1-15.6-16.6c0-9.2,6.1-16.6,15.1-16.6    c6.7,0,11.8,3.1,14.6,9.2h19.8c-3.7-16.6-17.7-27.5-34.9-27.5c-18.9,0-34.4,15.2-34.4,34.8c0,19.4,15.3,35.1,34.7,35.1    c16.8,0,30.8-10.6,34.7-27h-20C445.9,222.7,441.3,225.8,434.7,225.8z M512,174.2c-7.8,0-14.2,3.2-17,8.5v-28.1h-19.6v87.4H495    v-36.8c0-8.1,3.5-12.5,11-12.5c7.2,0,10.5,4.8,10.5,13.3v36h19.6v-41.2C536.1,183.6,527,174.2,512,174.2z M577.1,173.3    c-19.2,0-34.4,16.3-34.4,35.2c0,19.5,15.8,34.7,34.7,34.7c13.8,0,25.7-8.4,32-22.7h-20.1c-3.2,4.1-6.6,6.1-11.9,6.1    c-8,0-14.3-5-15.3-12.4h49.1c0.4-1.8,0.5-3.3,0.5-5.2C611.7,188.7,596.7,173.3,577.1,173.3z M562.3,201c1.5-7,7.7-11.2,14.8-11.2    c7.6,0,13.5,4.5,15,11.2H562.3z M623.2,173.7v2.7h-7.3v14.9h7.3v50.6h19.6v-50.6h8.3v-14.9h-8.3v-2c0-5.4,2.5-6.7,7.6-6.7h0.7    v-14.8h-2.7C627.4,152.9,623.2,162.9,623.2,173.7z"/>
		<g>
			<path class="st2" d="M417.5,280.7v-2.3h-0.1c-0.9,1.9-3.4,3-6.2,3c-6.3,0-10.6-4.9-10.6-11.4c0-6.3,4.5-11.3,10.6-11.3     c2.6,0,5,1,6.2,3h0.1v-2.3h6.3v21.2H417.5z M417.5,270.1c0-3-2.4-5.4-5.4-5.4c-2.9,0-5.2,2.4-5.2,5.5c0,2.9,2.3,5.4,5.3,5.4     C415.2,275.5,417.5,273.2,417.5,270.1z"/>
			<path class="st2" d="M463.5,267.7c-0.9-2-2.6-3-4.7-3c-2.9,0-4.9,2.4-4.9,5.4c0,3.1,2.1,5.4,5,5.4c2.1,0,3.6-1,4.6-2.8h6.5     c-1.3,5.3-5.8,8.8-11.2,8.8c-6.3,0-11.2-5.1-11.2-11.4c0-6.3,5-11.3,11.1-11.3c5.6,0,10.1,3.5,11.3,8.9H463.5z"/>
			<path class="st2" d="M509.5,280.7v-2.3h-0.1c-0.9,1.9-3.4,3-6.2,3c-6.3,0-10.6-4.9-10.6-11.4c0-6.3,4.5-11.3,10.6-11.3     c2.6,0,5,1,6.2,3h0.1v-2.3h6.3v21.2H509.5z M509.5,270.1c0-3-2.4-5.4-5.4-5.4c-2.9,0-5.2,2.4-5.2,5.5c0,2.9,2.3,5.4,5.3,5.4     C507.1,275.5,509.5,273.2,509.5,270.1z"/>
			<path class="st2" d="M556.5,280.7v-2.3h-0.1c-1.2,1.9-3.3,3-6.3,3c-6.4,0-10.6-4.9-10.6-11.4c0-6.3,4.3-11.3,10.5-11.3     c2.4,0,4.4,0.7,6.2,2.5v-8.9h6.3v28.3H556.5z M556.6,270c0-2.9-2.3-5.3-5.4-5.3c-3,0-5.4,2.2-5.4,5.3c0,3.2,2.3,5.5,5.3,5.5     C554.3,275.5,556.6,273.2,556.6,270z"/>
			<path class="st2" d="M592.4,272c0.3,2.4,2.4,4,5,4c1.7,0,2.8-0.6,3.9-2h6.5c-2,4.6-5.9,7.3-10.4,7.3c-6.1,0-11.2-4.9-11.2-11.2     c0-6.1,4.9-11.4,11.1-11.4c6.3,0,11.2,5,11.2,11.6c0,0.6,0,1.1-0.2,1.7H592.4z M602.1,267.8c-0.5-2.2-2.4-3.6-4.9-3.6     c-2.3,0-4.3,1.4-4.8,3.6H602.1z"/>
			<path class="st2" d="M658.2,280.7v-11.4c0-3.3-1.1-4.5-3.2-4.5c-2.4,0-3.5,1.5-3.5,4.2v11.7h-6.3V269c0-2.8-1-4.3-3.2-4.3     c-2.5,0-3.6,1.6-3.6,4.5v11.4H632v-21.2h5.9v2.3h0.1c1.1-2,3.1-3,5.8-3c2.8,0,4.8,1.4,6.1,3.8c1.5-2.4,3.8-3.8,6.7-3.8     c4.7,0,7.9,2.9,7.9,8.8v13.1H658.2z"/>
			<path class="st2" d="M690.2,287.8l3.4-8.1l-7.9-20.1h6.8l4.2,12.3h0.1l4.1-12.3h6.7l-10.6,28.3H690.2z"/>
		</g>
		<g>
			<path class="st2" d="M714.3,187.7c0-3.3,2.8-6,6-6c3.6,0,6.2,2.8,6.2,6.1c0,3.5-2.9,6.1-6.1,6.1     C717,193.9,714.3,191.1,714.3,187.7z M725.2,187.8c0-2.8-2.1-5-4.7-5c-2.6,0-4.8,2.1-4.8,4.9c0,2.7,2.2,4.9,4.8,4.9     C723.1,192.6,725.2,190.4,725.2,187.8z M721.6,191.1c0-0.1-0.1-0.4-0.1-0.7l-0.1-0.8c-0.1-0.7-0.4-1.1-1.2-1.1h-0.7v2.6h-1.7     v-6.8h2.9c1.5,0,2.5,0.7,2.5,1.9c0,0.8-0.4,1.3-1.1,1.6c0.6,0.3,1,0.7,1,1.9c0,0.6,0.1,1,0.2,1.3H721.6z M720.4,187.4     c0.7,0,1.1-0.3,1.1-1c0-0.6-0.4-0.9-1-0.9h-1v1.9H720.4z"/>
		</g>
	</g>
</g>
</svg>